<?xml version="1.0" encoding="UTF-8" standalone="no"?>
<!-- Created with Inkscape (http://www.inkscape.org/) -->

<svg
   xmlns:dc="http://purl.org/dc/elements/1.1/"
   xmlns:cc="http://creativecommons.org/ns#"
   xmlns:rdf="http://www.w3.org/1999/02/22-rdf-syntax-ns#"
   xmlns:svg="http://www.w3.org/2000/svg"
   xmlns="http://www.w3.org/2000/svg"
   xmlns:sodipodi="http://sodipodi.sourceforge.net/DTD/sodipodi-0.dtd"
   xmlns:inkscape="http://www.inkscape.org/namespaces/inkscape"
   id="svg2"
   version="1.1"
   inkscape:version="0.91 r13725"
   xml:space="preserve"
   width="44.709141mm"
   height="44.708084mm"
   viewBox="0 0 158.41822 158.41447"
   sodipodi:docname="IceCubeDisplay.svg"
   inkscape:export-filename="/home/sjvheule/projects/be.ugent/pocket-icetop/doc/logo/IceCubeDisplay-small.png"
   inkscape:export-xdpi="46.84"
   inkscape:export-ydpi="46.84"><metadata
     id="metadata8"><rdf:RDF><cc:Work
         rdf:about=""><dc:format>image/svg+xml</dc:format><dc:type
           rdf:resource="http://purl.org/dc/dcmitype/StillImage" /><dc:title></dc:title></cc:Work></rdf:RDF></metadata><defs
     id="defs6"><clipPath
       clipPathUnits="userSpaceOnUse"
       id="clipPath16"><path
         d="m 0,193.051 183.609,0 L 183.609,0 0,0 0,193.051 Z"
         id="path18"
         inkscape:connector-curvature="0" /></clipPath><clipPath
       clipPathUnits="userSpaceOnUse"
       id="clipPath4287"><path
         d="m 91.6778,173.543 c -31.867,0 -57.699,-25.831 -57.699,-57.695 0,-31.864 25.832,-57.698 57.699,-57.698 31.863,0 57.697,25.834 57.697,57.698 0,31.864 -25.834,57.695 -57.697,57.695"
         style="fill:#b4b9bc;fill-opacity:1;fill-rule:nonzero;stroke:#ffffff;stroke-opacity:1"
         id="path4289"
         inkscape:connector-curvature="0"
         sodipodi:nodetypes="csssc" /></clipPath></defs><sodipodi:namedview
     pagecolor="#ffffff"
     bordercolor="#666666"
     borderopacity="1"
     objecttolerance="10"
     gridtolerance="10"
     guidetolerance="10"
     inkscape:pageopacity="0"
     inkscape:pageshadow="2"
     inkscape:window-width="1920"
     inkscape:window-height="1016"
     id="namedview4"
     showgrid="false"
     units="mm"
     fit-margin-top="2"
     fit-margin-left="2"
     fit-margin-bottom="2"
     fit-margin-right="2"
     inkscape:zoom="1.1261663"
     inkscape:cx="-35.782416"
     inkscape:cy="48.610453"
     inkscape:window-x="0"
     inkscape:window-y="27"
     inkscape:window-maximized="1"
     inkscape:current-layer="g4215" /><g
     id="g10"
     inkscape:groupmode="layer"
     inkscape:label="IceCubeGen2-verticalcolor"
     transform="matrix(1.25,0,0,-1.25,-35.386885,224.01535)"><g
       id="g70"
       transform="translate(36.086,31.1582)"><path
         d="m 0,0 0,17.156 2.873,0 0,-17.156"
         style="fill:#231f20;fill-opacity:1;fill-rule:nonzero;stroke:none"
         id="path72"
         inkscape:connector-curvature="0" /></g><g
       id="g74"
       transform="translate(46.4297,31.1582)"><path
         d="m 0,0 c -1.344,0 -2.25,0.227 -2.721,0.674 -0.468,0.449 -0.705,1.332 -0.705,2.652 l 0,7.418 c 0,1.309 0.237,2.195 0.713,2.656 0.479,0.457 1.383,0.69 2.713,0.69 l 8.277,0 c 1.34,0 2.252,-0.236 2.735,-0.705 0.48,-0.473 0.722,-1.354 0.722,-2.641 l 0,-1.33 -2.662,-0.439 0,3.019 -9.836,0 0,-9.869 9.836,0 0,3.361 2.662,-0.504 0,-1.656 C 11.734,2.041 11.492,1.164 11.012,0.697 10.529,0.232 9.617,0 8.277,0"
         style="fill:#231f20;fill-opacity:1;fill-rule:nonzero;stroke:none"
         id="path76"
         inkscape:connector-curvature="0" /></g><g
       id="g78"
       transform="translate(60.504,31.1582)"><path
         d="m 0,0 0,14.09 14.188,0 0,-2.096 -11.524,0 0,-3.619 6.947,0 0,-2.094 -6.947,0 0,-4.22 11.654,0 0,-2.061"
         style="fill:#231f20;fill-opacity:1;fill-rule:nonzero;stroke:none"
         id="path80"
         inkscape:connector-curvature="0" /></g><g
       id="g82"
       transform="translate(81.4805,31.1582)"><path
         d="M 0,0 C -1.559,0 -2.619,0.283 -3.182,0.852 -3.744,1.42 -4.025,2.49 -4.025,4.057 l 0,9.043 c 0,1.568 0.281,2.636 0.843,3.205 0.563,0.566 1.623,0.851 3.182,0.851 l 9.609,0 c 1.559,0 2.614,-0.281 3.164,-0.844 0.553,-0.562 0.831,-1.632 0.831,-3.212 l 0,-1.625 -2.875,-0.534 0,3.879 -11.897,0 0,-12.433 11.897,0 0,4.3 2.875,-0.601 0,-2.029 C 13.604,2.479 13.326,1.406 12.773,0.844 12.223,0.281 11.168,0 9.609,0"
         style="fill:#231f20;fill-opacity:1;fill-rule:nonzero;stroke:none"
         id="path84"
         inkscape:connector-curvature="0" /></g><g
       id="g86"
       transform="translate(101.5625,31.1582)"><path
         d="m 0,0 c -1.342,0 -2.254,0.232 -2.734,0.697 -0.483,0.467 -0.723,1.344 -0.723,2.629 l 0,10.764 2.662,0 0,-11.965 10.289,0 0,11.965 2.695,0 0,-10.764 C 12.189,2.029 11.949,1.15 11.467,0.689 10.986,0.229 10.072,0 8.732,0"
         style="fill:#231f20;fill-opacity:1;fill-rule:nonzero;stroke:none"
         id="path88"
         inkscape:connector-curvature="0" /></g><g
       id="g90"
       transform="translate(129.3887,34.8106)"><path
         d="m 0,0 c 0,-0.596 -0.119,-1.01 -0.352,-1.24 -0.232,-0.237 -0.65,-0.352 -1.255,-0.352 l -8.166,0 0,4.285 8.166,0 c 0.593,0 1.011,-0.119 1.248,-0.355 C -0.121,2.098 0,1.687 0,1.104 L 0,0 Z m -9.773,8.375 8.166,0 c 0.572,0 0.966,-0.084 1.183,-0.252 C -0.207,7.953 -0.1,7.654 -0.1,7.225 l 0,-1.332 C -0.1,5.457 -0.197,5.162 -0.391,4.998 -0.586,4.838 -0.992,4.754 -1.607,4.754 l -8.166,0 0,3.621 z M 1.994,2.799 C 1.562,3.27 0.93,3.547 0.096,3.637 0.951,3.732 1.572,3.973 1.963,4.359 2.354,4.74 2.547,5.309 2.547,6.053 l 0,1.623 c 0,0.965 -0.244,1.666 -0.731,2.101 -0.486,0.442 -1.271,0.661 -2.353,0.661 l -11.899,0 0,-14.09 11.006,0 c 1.375,0 2.397,0.226 3.069,0.681 0.67,0.457 1.006,1.149 1.006,2.078 l 0,1.801 c 0,0.791 -0.217,1.422 -0.651,1.891"
         style="fill:#231f20;fill-opacity:1;fill-rule:nonzero;stroke:none"
         id="path92"
         inkscape:connector-curvature="0" /></g><g
       id="g94"
       transform="translate(134.6329,31.1582)"><path
         d="m 0,0 0,14.09 14.186,0 0,-2.096 -11.524,0 0,-3.619 6.947,0 0,-2.094 -6.947,0 0,-4.22 11.656,0 0,-2.061"
         style="fill:#231f20;fill-opacity:1;fill-rule:nonzero;stroke:none"
         id="path96"
         inkscape:connector-curvature="0" /></g><g
       id="g4215"
       clip-path="url(#clipPath4287)"><g
         inkscape:export-ydpi="46.84"
         inkscape:export-xdpi="46.84"
         transform="translate(91.6778,62.836)"
         id="g20"><path
           inkscape:connector-curvature="0"
           id="path22"
           style="fill:#272727;fill-opacity:1;fill-rule:nonzero;stroke:none"
           d="m 0,0 c -29.279,0 -53.014,23.736 -53.014,53.012 0,29.276 23.735,53.012 53.014,53.012 29.277,0 53.012,-23.736 53.012,-53.012 C 53.012,23.736 29.277,0 0,0" /></g><g
         inkscape:export-ydpi="46.84"
         inkscape:export-xdpi="46.84"
         transform="translate(36.9102,118.5372)"
         id="g24"><path
           inkscape:connector-curvature="0"
           id="path26"
           style="fill:#616161;fill-opacity:1;fill-rule:nonzero;stroke:none"
           d="M 0,0 57.625,-3.377 57.09,-6.113 47.719,-57.705 c 0,0 -49.393,8.871 -47.719,57.705" /></g><g
         inkscape:export-ydpi="46.84"
         inkscape:export-xdpi="46.84"
         style="fill:#cc0000"
         id="g4222"><g
           id="g32"
           transform="translate(108.1465,141.4288)"
           style="fill:#cc0000"><path
             d="m 0,0 c 0,-3.873 -3.143,-7.014 -7.016,-7.014 -3.875,0 -7.017,3.141 -7.017,7.014 0,3.875 3.142,7.016 7.017,7.016 C -3.143,7.016 0,3.875 0,0"
             style="fill:#cc0000;fill-opacity:1;fill-rule:nonzero;stroke:none"
             id="path34"
             inkscape:connector-curvature="0" /></g><g
           id="g36"
           transform="translate(108.1465,164.8252)"
           style="fill:#cc0000"><path
             d="m 0,0 c 0,-3.875 -3.143,-7.014 -7.016,-7.014 -3.875,0 -7.017,3.139 -7.017,7.014 0,3.875 3.142,7.017 7.017,7.017 C -3.143,7.017 0,3.875 0,0"
             style="fill:#cc0000;fill-opacity:1;fill-rule:nonzero;stroke:none"
             id="path38"
             inkscape:connector-curvature="0" /></g><g
           id="g40"
           transform="translate(108.1114,94.2715)"
           style="fill:#cc0000"><path
             d="m 0,0 c 0,-3.875 -3.143,-7.016 -7.016,-7.016 -3.877,0 -7.017,3.141 -7.017,7.016 0,3.873 3.14,7.014 7.017,7.014 C -3.143,7.014 0,3.873 0,0"
             style="fill:#cc0000;fill-opacity:1;fill-rule:nonzero;stroke:none"
             id="path42"
             inkscape:connector-curvature="0" /></g><g
           id="g44"
           transform="translate(108.1114,70.6309)"
           style="fill:#cc0000"><path
             d="m 0,0 c 0,-3.875 -3.143,-7.018 -7.016,-7.018 -3.877,0 -7.017,3.143 -7.017,7.018 0,3.875 3.14,7.014 7.017,7.014 C -3.143,7.014 0,3.875 0,0"
             style="fill:#cc0000;fill-opacity:1;fill-rule:nonzero;stroke:none"
             id="path46"
             inkscape:connector-curvature="0" /></g><g
           id="g48"
           transform="translate(108.0879,117.6446)"
           style="fill:#cc0000"><path
             d="m 0,0 c 0,-3.873 -3.141,-7.016 -7.014,-7.016 -3.877,0 -7.017,3.143 -7.017,7.016 0,3.877 3.14,7.016 7.017,7.016 C -3.141,7.016 0,3.877 0,0"
             style="fill:#cc0000;fill-opacity:1;fill-rule:nonzero;stroke:none"
             id="path50"
             inkscape:connector-curvature="0" /></g><path
           d="m 101.328,72.455 -0.469,0 0,90.501 0.469,0 0,-90.501 z"
           style="fill:#cc0000;fill-opacity:1;fill-rule:nonzero;stroke:none"
           id="path54"
           inkscape:connector-curvature="0" /></g><g
         inkscape:export-ydpi="46.84"
         inkscape:export-xdpi="46.84"
         style="fill:#3465a4"
         id="g4233"><g
           id="g28"
           transform="translate(69.4317,113.6563)"
           style="fill:#3465a4"><path
             d="m 0,0 c 0,-9.832 -7.973,-17.801 -17.803,-17.801 -9.834,0 -17.806,7.969 -17.806,17.801 0,9.834 7.972,17.804 17.806,17.804 C -7.973,17.804 0,9.834 0,0"
             style="fill:#3465a4;fill-opacity:1;fill-rule:nonzero;stroke:none"
             id="path30"
             inkscape:connector-curvature="0" /></g><path
           d="m 52.711,77.32 -1.084,0 0,78.058 1.084,0 0,-78.058 z"
           style="fill:#3465a4;fill-opacity:1;fill-rule:nonzero;stroke:none"
           id="path56"
           inkscape:connector-curvature="0" /><g
           id="g58"
           transform="translate(43.1329,147.0147)"
           style="fill:#3465a4"><path
             d="m 0,0 c 2.525,-1.373 5.42,-2.154 8.496,-2.154 9.83,0 17.803,7.97 17.803,17.802 0,2.096 -0.365,4.108 -1.031,5.977 C 14.871,17.034 6.092,9.467 0,0"
             style="fill:#3465a4;fill-opacity:1;fill-rule:nonzero;stroke:none"
             id="path60"
             inkscape:connector-curvature="0" /></g></g><g
         inkscape:export-ydpi="46.84"
         inkscape:export-xdpi="46.84"
         style="fill:#73d216"
         id="g4235"><path
           d="m 136.555,84.125 -0.799,0 0,42.958 0.799,0 0,-42.958 z"
           style="fill:#73d216;fill-opacity:1;fill-rule:nonzero;stroke:none"
           id="path52"
           inkscape:connector-curvature="0" /><g
           style="fill:#73d216"
           id="g62"
           transform="translate(124.0723,137.0518)"><path
             d="m 0,0 c 0,-6.527 5.291,-11.815 11.818,-11.815 4.987,0 9.243,3.092 10.977,7.461 C 21.076,1.277 18.521,6.544 15.273,11.3 14.18,11.634 13.019,11.814 11.818,11.814 5.291,11.814 0,6.524 0,0"
             style="fill:#73d216;fill-opacity:1;fill-rule:nonzero;stroke:none"
             id="path64"
             inkscape:connector-curvature="0" /></g><g
           style="fill:#73d216"
           id="g66"
           transform="translate(136.25,111.6993)"><path
             d="m 0,0 c -6.525,0 -11.818,-5.291 -11.818,-11.818 0,-6.526 5.293,-11.813 11.818,-11.813 2.77,0 5.312,0.959 7.328,2.557 1.813,3.722 3.225,7.674 4.207,11.793 C 10.375,-3.977 5.654,0 0,0"
             style="fill:#73d216;fill-opacity:1;fill-rule:nonzero;stroke:none"
             id="path68"
             inkscape:connector-curvature="0" /></g></g><g
         inkscape:export-ydpi="46.84"
         inkscape:export-xdpi="46.84"
         transform="translate(68.1446,140.8663)"
         id="g98"><path
           inkscape:connector-curvature="0"
           id="path100"
           style="fill:#ffffff;fill-opacity:1;fill-rule:nonzero;stroke:none"
           d="m 0,0 c 0,0 3.104,0.373 3.592,3.996 0,0 -0.488,-3.943 2.615,-3.996 0,0 -2.939,-0.424 -3.103,-3.254 0,0 0.164,3.783 -3.104,3.254" /></g><g
         inkscape:export-ydpi="46.84"
         inkscape:export-xdpi="46.84"
         transform="translate(115.7852,114.959)"
         id="g102"><path
           inkscape:connector-curvature="0"
           id="path104"
           style="fill:#ffffff;fill-opacity:1;fill-rule:nonzero;stroke:none"
           d="m 0,0 c 0,0 2.451,0.399 2.691,2.998 0,0 -0.367,-2.719 1.959,-2.998 0,0 -2.203,-0.318 -2.326,-2.439 0,0 0.127,2.838 -2.324,2.439" /></g><g
         inkscape:export-ydpi="46.84"
         inkscape:export-xdpi="46.84"
         transform="translate(122.5508,115.6407)"
         id="g106"><path
           inkscape:connector-curvature="0"
           id="path108"
           style="fill:#ffffff;fill-opacity:1;fill-rule:nonzero;stroke:none"
           d="m 0,0 c 0,0 1.912,0.311 2.098,2.336 0,0 -0.286,-2.119 1.527,-2.336 0,0 -1.717,-0.248 -1.813,-1.902 0,0 0.1,2.213 -1.812,1.902" /></g><g
         inkscape:export-ydpi="46.84"
         inkscape:export-xdpi="46.84"
         transform="translate(119.0372,119.1114)"
         id="g110"><path
           inkscape:connector-curvature="0"
           id="path112"
           style="fill:#ffffff;fill-opacity:1;fill-rule:nonzero;stroke:none"
           d="m 0,0 c 0,0 1.475,0.24 1.617,1.803 0,0 -0.219,-1.635 1.18,-1.803 0,0 -1.326,-0.191 -1.399,-1.467 0,0 0.077,1.707 -1.398,1.467" /></g><g
         inkscape:export-ydpi="46.84"
         inkscape:export-xdpi="46.84"
         transform="translate(81.5762,121.9122)"
         id="g114"><path
           inkscape:connector-curvature="0"
           id="path116"
           style="fill:#ffffff;fill-opacity:1;fill-rule:nonzero;stroke:none"
           d="m 0,0 c 0,0 1.475,0.24 1.617,1.803 0,0 -0.219,-1.635 1.18,-1.803 0,0 -1.326,-0.189 -1.399,-1.467 0,0 0.077,1.707 -1.398,1.467" /></g><g
         inkscape:export-ydpi="46.84"
         inkscape:export-xdpi="46.84"
         transform="translate(64.3047,91.1504)"
         id="g118"><path
           inkscape:connector-curvature="0"
           id="path120"
           style="fill:#ffffff;fill-opacity:1;fill-rule:nonzero;stroke:none"
           d="m 0,0 c 0,0 1.475,0.24 1.617,1.803 0,0 -0.221,-1.635 1.178,-1.803 0,0 -1.324,-0.189 -1.399,-1.467 0,0 0.079,1.707 -1.396,1.467" /></g><g
         inkscape:export-ydpi="46.84"
         inkscape:export-xdpi="46.84"
         transform="translate(140.3925,117.4766)"
         id="g122"><path
           inkscape:connector-curvature="0"
           id="path124"
           style="fill:#ffffff;fill-opacity:1;fill-rule:nonzero;stroke:none"
           d="m 0,0 c 0,0 1.475,0.24 1.617,1.803 0,0 -0.218,-1.635 1.18,-1.803 0,0 -1.326,-0.191 -1.398,-1.467 0,0 0.076,1.707 -1.399,1.467" /></g><g
         inkscape:export-ydpi="46.84"
         inkscape:export-xdpi="46.84"
         transform="translate(107.5313,79.8536)"
         id="g126"><path
           inkscape:connector-curvature="0"
           id="path128"
           style="fill:#ffffff;fill-opacity:1;fill-rule:nonzero;stroke:none"
           d="m 0,0 c 0,0 1.475,0.24 1.617,1.803 0,0 -0.221,-1.635 1.178,-1.803 0,0 -1.324,-0.189 -1.399,-1.467 0,0 0.079,1.707 -1.396,1.467" /></g><g
         inkscape:export-ydpi="46.84"
         inkscape:export-xdpi="46.84"
         transform="translate(46.7872,136.8838)"
         id="g130"><path
           inkscape:connector-curvature="0"
           id="path132"
           style="fill:#ffffff;fill-opacity:1;fill-rule:nonzero;stroke:none"
           d="m 0,0 c 0,0 1.475,0.24 1.617,1.803 0,0 -0.219,-1.635 1.18,-1.803 0,0 -1.326,-0.191 -1.399,-1.467 0,0 0.077,1.707 -1.398,1.467" /></g><g
         inkscape:export-ydpi="46.84"
         inkscape:export-xdpi="46.84"
         transform="translate(46.7872,91.1504)"
         id="g134"><path
           inkscape:connector-curvature="0"
           id="path136"
           style="fill:#ffffff;fill-opacity:1;fill-rule:nonzero;stroke:none"
           d="m 0,0 c 0,0 1.475,0.24 1.617,1.803 0,0 -0.219,-1.635 1.18,-1.803 0,0 -1.326,-0.189 -1.399,-1.467 0,0 0.077,1.707 -1.398,1.467" /></g><g
         inkscape:export-ydpi="46.84"
         inkscape:export-xdpi="46.84"
         transform="translate(85.4688,157.0557)"
         id="g138"><path
           inkscape:connector-curvature="0"
           id="path140"
           style="fill:#ffffff;fill-opacity:1;fill-rule:nonzero;stroke:none"
           d="m 0,0 c 0,0 2.197,0.265 2.393,2.833 0,0 -0.196,-2.568 2.002,-2.833 0,0 -2.082,-0.299 -2.198,-2.304 0,0 0.121,2.682 -2.197,2.304" /></g><g
         inkscape:export-ydpi="46.84"
         inkscape:export-xdpi="46.84"
         transform="translate(87.6661,98.4532)"
         id="g142"><path
           inkscape:connector-curvature="0"
           id="path144"
           style="fill:#ffffff;fill-opacity:1;fill-rule:nonzero;stroke:none"
           d="m 0,0 c 0,0 2.318,0.377 2.543,2.832 0,0 -0.346,-2.568 1.852,-2.832 0,0 -2.082,-0.299 -2.198,-2.305 0,0 0.121,2.682 -2.197,2.305" /></g><g
         inkscape:export-ydpi="46.84"
         inkscape:export-xdpi="46.84"
         transform="translate(74.9571,72.0938)"
         id="g146"><path
           inkscape:connector-curvature="0"
           id="path148"
           style="fill:#ffffff;fill-opacity:1;fill-rule:nonzero;stroke:none"
           d="m 0,0 c 0,0 3.156,0.516 3.461,3.857 0,0 -0.471,-3.496 2.521,-3.857 0,0 -2.834,-0.406 -2.992,-3.135 0,0 0.166,3.651 -2.99,3.135" /></g><g
         inkscape:export-ydpi="46.84"
         inkscape:export-xdpi="46.84"
         transform="translate(121.3907,82.1289)"
         id="g150"><path
           inkscape:connector-curvature="0"
           id="path152"
           style="fill:#ffffff;fill-opacity:1;fill-rule:nonzero;stroke:none"
           d="m 0,0 c 0,0 3.104,0.373 3.592,3.996 0,0 -0.488,-3.623 2.615,-3.996 0,0 -2.943,-0.424 -3.103,-3.254 0,0 0,3.014 -3.104,3.254" /></g><g
         inkscape:export-ydpi="46.84"
         inkscape:export-xdpi="46.84"
         transform="translate(110.5704,146)"
         id="g154"><path
           inkscape:connector-curvature="0"
           id="path156"
           style="fill:#ffffff;fill-opacity:1;fill-rule:nonzero;stroke:none"
           d="m 0,0 c 0,0 5.072,0.551 5.898,6.021 0,0 -0.869,-5.937 4.532,-6.021 0,0 -4.94,-0.713 -5.219,-5.466 0,0 0.281,6.356 -5.211,5.466" /></g><g
         inkscape:export-ydpi="46.84"
         inkscape:export-xdpi="46.84"
         transform="translate(91.6778,62.836)"
         id="g174"><path
           inkscape:connector-curvature="0"
           id="path176"
           style="fill:#b4b9bc;fill-opacity:1;fill-rule:nonzero;stroke:none"
           d="m 0,0 c -29.279,0 -53.014,23.736 -53.014,53.012 0,29.276 23.735,53.012 53.014,53.012 29.277,0 53.012,-23.736 53.012,-53.012 C 53.012,23.736 29.277,0 0,0 m 0,110.707 c -31.867,0 -57.699,-25.831 -57.699,-57.695 0,-31.864 25.832,-57.698 57.699,-57.698 31.863,0 57.697,25.834 57.697,57.698 0,31.864 -25.834,57.695 -57.697,57.695" /></g><g
         transform="translate(1234.7772,-1634.9486)"
         id="g178" /></g></g></svg>