999
dxfrw 0.6.1
  0
SECTION
  2
HEADER
  9
$ACADVER
  1
AC1021
  9
$DWGCODEPAGE
  3
ANSI_1252
  9
$INSBASE
 10
0
 20
0
 30
0
  9
$EXTMIN
 10
-107.8125
 20
-33.99999999999999
 30
0
  9
$EXTMAX
 10
167.9999999999993
 20
207.8125
 30
0
  9
$LIMMIN
 10
0
 20
0
  9
$LIMMAX
 10
420
 20
297
  9
$ORTHOMODE
 70
    0
  9
$REGENMODE
 70
    1
  9
$FILLMODE
 70
    1
  9
$QTEXTMODE
 70
    0
  9
$MIRRTEXT
 70
    0
  9
$LTSCALE
 40
1
  9
$ATTMODE
 70
    0
  9
$TEXTSIZE
 40
2.5
  9
$TRACEWID
 40
15.68
  9
$TEXTSTYLE
  7
STANDARD
  9
$CLAYER
  8
baseplate_40mm
  9
$CELTYPE
  6
BYLAYER
  9
$CECOLOR
 62
  256
  9
$CELTSCALE
 40
1
  9
$DISPSILH
 70
    0
  9
$DIMSCALE
 40
2.5
  9
$DIMASZ
 40
2.5
  9
$DIMEXO
 40
0.625
  9
$DIMDLI
 40
3.75
  9
$DIMRND
 40
0
  9
$DIMDLE
 40
0
  9
$DIMEXE
 40
1.25
  9
$DIMTP
 40
0
  9
$DIMTM
 40
0
  9
$DIMTXT
 40
2.5
  9
$DIMCEN
 40
2.5
  9
$DIMTSZ
 40
0
  9
$DIMTOL
 70
    0
  9
$DIMLIM
 70
    0
  9
$DIMTIH
 70
    0
  9
$DIMTOH
 70
    0
  9
$DIMSE1
 70
    0
  9
$DIMSE2
 70
    0
  9
$DIMTAD
 70
    1
  9
$DIMZIN
 70
    8
  9
$DIMBLK
  1

  9
$DIMASO
 70
    1
  9
$DIMSHO
 70
    1
  9
$DIMPOST
  1

  9
$DIMAPOST
  1

  9
$DIMALT
 70
    0
  9
$DIMALTD
 70
    3
  9
$DIMALTF
 40
0.03937
  9
$DIMLFAC
 40
1
  9
$DIMTOFL
 70
    1
  9
$DIMTVP
 40
0
  9
$DIMTIX
 70
    0
  9
$DIMSOXD
 70
    0
  9
$DIMSAH
 70
    0
  9
$DIMBLK1
  1

  9
$DIMBLK2
  1

  9
$DIMSTYLE
  2
STANDARD
  9
$DIMCLRD
 70
    0
  9
$DIMCLRE
 70
    0
  9
$DIMCLRT
 70
    0
  9
$DIMTFAC
 40
1
  9
$DIMGAP
 40
0.625
  9
$DIMJUST
 70
    0
  9
$DIMSD1
 70
    0
  9
$DIMSD2
 70
    0
  9
$DIMTOLJ
 70
    0
  9
$DIMTZIN
 70
    8
  9
$DIMALTZ
 70
    0
  9
$DIMALTTZ
 70
    0
  9
$DIMUPT
 70
    0
  9
$DIMDEC
 70
    2
  9
$DIMTDEC
 70
    2
  9
$DIMALTU
 70
    2
  9
$DIMALTTD
 70
    3
  9
$DIMTXSTY
  7
STANDARD
  9
$DIMAUNIT
 70
    0
  9
$DIMADEC
 70
    0
  9
$DIMALTRND
 40
0
  9
$DIMAZIN
 70
    0
  9
$DIMDSEP
 70
   44
  9
$DIMATFIT
 70
    3
  9
$DIMFRAC
 70
    0
  9
$DIMLDRBLK
  1
STANDARD
  9
$DIMLUNIT
 70
    2
  9
$DIMLWD
 70
   -2
  9
$DIMLWE
 70
   -2
  9
$DIMTMOVE
 70
    0
  9
$DIMFXL
 40
1
  9
$DIMFXLON
 70
    0
  9
$DIMJOGANG
 40
0.7854
  9
$DIMTFILL
 70
    0
  9
$DIMTFILLCLR
 70
    0
  9
$DIMARCSYM
 70
    0
  9
$DIMLTYPE
  6

  9
$DIMLTEX1
  6

  9
$DIMLTEX2
  6

  9
$LUNITS
 70
    2
  9
$LUPREC
 70
    4
  9
$SKETCHINC
 40
1
  9
$FILLETRAD
 40
0
  9
$AUNITS
 70
    0
  9
$AUPREC
 70
    2
  9
$MENU
  1
.
  9
$ELEVATION
 40
0
  9
$PELEVATION
 40
0
  9
$THICKNESS
 40
0
  9
$LIMCHECK
 70
    0
  9
$CHAMFERA
 40
0
  9
$CHAMFERB
 40
0
  9
$CHAMFERC
 40
0
  9
$CHAMFERD
 40
0
  9
$SKPOLY
 70
    0
  9
$USRTIMER
 70
    1
  9
$ANGBASE
 50
0
  9
$ANGDIR
 70
    0
  9
$PDMODE
 70
   34
  9
$PDSIZE
 40
0
  9
$PLINEWID
 40
0
  9
$SPLFRAME
 70
    0
  9
$SPLINETYPE
 70
    2
  9
$SPLINESEGS
 70
    8
  9
$HANDSEED
  5
20000
  9
$SURFTAB1
 70
    6
  9
$SURFTAB2
 70
    6
  9
$SURFTYPE
 70
    6
  9
$SURFU
 70
    6
  9
$SURFV
 70
    6
  9
$UCSBASE
  2

  9
$UCSNAME
  2

  9
$UCSORG
 10
0
 20
0
 30
0
  9
$UCSXDIR
 10
1
 20
0
 30
0
  9
$UCSYDIR
 10
0
 20
1
 30
0
  9
$UCSORTHOREF
  2

  9
$UCSORTHOVIEW
 70
    0
  9
$UCSORGTOP
 10
0
 20
0
 30
0
  9
$UCSORGBOTTOM
 10
0
 20
0
 30
0
  9
$UCSORGLEFT
 10
0
 20
0
 30
0
  9
$UCSORGRIGHT
 10
0
 20
0
 30
0
  9
$UCSORGFRONT
 10
0
 20
0
 30
0
  9
$UCSORGBACK
 10
0
 20
0
 30
0
  9
$PUCSBASE
  2

  9
$PUCSNAME
  2

  9
$PUCSORG
 10
0
 20
0
 30
0
  9
$PUCSXDIR
 10
1
 20
0
 30
0
  9
$PUCSYDIR
 10
0
 20
1
 30
0
  9
$PUCSORTHOREF
  2

  9
$PUCSORTHOVIEW
 70
    0
  9
$PUCSORGTOP
 10
0
 20
0
 30
0
  9
$PUCSORGBOTTOM
 10
0
 20
0
 30
0
  9
$PUCSORGLEFT
 10
0
 20
0
 30
0
  9
$PUCSORGRIGHT
 10
0
 20
0
 30
0
  9
$PUCSORGFRONT
 10
0
 20
0
 30
0
  9
$PUCSORGBACK
 10
0
 20
0
 30
0
  9
$USERI1
 70
    0
  9
$USERI2
 70
    0
  9
$USERI3
 70
    0
  9
$USERI4
 70
    0
  9
$USERI5
 70
    0
  9
$USERR1
 40
0
  9
$USERR2
 40
0
  9
$USERR3
 40
0
  9
$USERR4
 40
0
  9
$USERR5
 40
0
  9
$WORLDVIEW
 70
    1
  9
$SHADEDGE
 70
    3
  9
$SHADEDIF
 70
   70
  9
$TILEMODE
 70
    1
  9
$MAXACTVP
 70
   64
  9
$PINSBASE
 10
84.81475186947678
 20
88.41076453751144
 30
0
  9
$PLIMCHECK
 70
    0
  9
$PEXTMIN
 10
0
 20
0
 30
0
  9
$PEXTMAX
 10
0
 20
0
 30
0
  9
$GRIDMODE
 70
    1
  9
$SNAPSTYLE
 70
    0
  9
$PLIMMIN
 10
0
 20
0
  9
$PLIMMAX
 10
210
 20
297
  9
$UNITMODE
 70
    0
  9
$VISRETAIN
 70
    1
  9
$PLINEGEN
 70
    0
  9
$PSLTSCALE
 70
    1
  9
$TREEDEPTH
 70
 3020
  9
$CMLSTYLE
  2
Standard
  9
$CMLJUST
 70
    0
  9
$CMLSCALE
 40
20
  9
$PROXYGRAPHICS
 70
    1
  9
$MEASUREMENT
 70
    1
  9
$CELWEIGHT
370
   -1
  9
$ENDCAPS
280
    0
  9
$JOINSTYLE
280
    0
  9
$LWDISPLAY
290
    0
  9
$INSUNITS
 70
    4
  9
$HYPERLINKBASE
  1

  9
$STYLESHEET
  1

  9
$XEDIT
290
    1
  9
$CEPSNTYPE
380
    0
  9
$PSTYLEMODE
290
    1
  9
$EXTNAMES
290
    1
  9
$PSVPSCALE
 40
0.6707447950203906
  9
$OLESTARTUP
290
    0
  9
$SORTENTS
280
  127
  9
$INDEXCTL
280
    0
  9
$HIDETEXT
280
    1
  9
$XCLIPFRAME
290
    0
  9
$HALOGAP
280
    0
  9
$OBSCOLOR
 70
  257
  9
$OBSLTYPE
280
    0
  9
$INTERSECTIONDISPLAY
280
    0
  9
$INTERSECTIONCOLOR
 70
  257
  9
$DIMASSOC
280
    0
  9
$PROJECTNAME
  1

  9
$CAMERADISPLAY
290
    0
  9
$LENSLENGTH
 40
50
  9
$CAMERAHEIGHT
 40
0
  9
$STEPSPERSEC
 40
2
  9
$STEPSIZE
 40
50
  9
$3DDWFPREC
 40
2
  9
$PSOLWIDTH
 40
5
  9
$PSOLHEIGHT
 40
80
  9
$LOFTANG1
 40
1.570796326794897
  9
$LOFTANG2
 40
1.570796326794897
  9
$LOFTMAG1
 40
0
  9
$LOFTMAG2
 40
0
  9
$LOFTPARAM
 70
    7
  9
$LOFTNORMALS
280
    1
  9
$LATITUDE
 40
1
  9
$LONGITUDE
 40
1
  9
$NORTHDIRECTION
 40
0
  9
$TIMEZONE
 70
-8000
  9
$LIGHTGLYPHDISPLAY
280
    1
  9
$TILEMODELIGHTSYNCH
280
    1
  9
$SOLIDHIST
280
    1
  9
$SHOWHIST
280
    1
  9
$DWFFRAME
280
    2
  9
$DGNFRAME
280
    0
  9
$REALWORLDSCALE
290
    1
  9
$INTERFERECOLOR
 62
    1
  9
$CSHADOW
280
    0
  9
$SHADOWPLANELOCATION
 40
0
  0
ENDSEC
  0
SECTION
  2
CLASSES
  0
ENDSEC
  0
SECTION
  2
TABLES
  0
TABLE
  2
VPORT
  5
8
330
0
100
AcDbSymbolTable
 70
    1
  0
VPORT
  5
31
330
2
100
AcDbSymbolTableRecord
100
AcDbViewportTableRecord
  2
*ACTIVE
 70
    0
 10
0
 20
0
 11
1
 21
1
 12
174.2936001407274
 22
96.41773624806198
 13
0
 23
0
 14
10
 24
10
 15
10
 25
10
 16
0
 26
0
 36
1
 17
0
 27
0
 37
0
 40
358.970648800477
 41
1.913223140495868
 42
50
 43
0
 44
0
 50
0
 51
0
 71
    0
 72
  100
 73
    1
 74
    3
 75
    0
 76
    1
 77
    0
 78
    0
281
    0
 65
    1
110
0
120
0
130
0
111
1
121
0
131
0
112
0
122
1
132
0
 79
    0
146
0
348
10020
 60
    7
 61
    5
292
1
282
    1
141
0
142
0
 63
  250
421
3358443
  0
ENDTAB
  0
TABLE
  2
LTYPE
  5
5
330
0
100
AcDbSymbolTable
 70
    4
  0
LTYPE
  5
14
330
5
100
AcDbSymbolTableRecord
100
AcDbLinetypeTableRecord
  2
ByBlock
 70
    0
  3

 72
   65
 73
    0
 40
0
  0
LTYPE
  5
15
330
5
100
AcDbSymbolTableRecord
100
AcDbLinetypeTableRecord
  2
ByLayer
 70
    0
  3

 72
   65
 73
    0
 40
0
  0
LTYPE
  5
16
330
5
100
AcDbSymbolTableRecord
100
AcDbLinetypeTableRecord
  2
Continuous
 70
    0
  3
Solid line
 72
   65
 73
    0
 40
0
  0
LTYPE
  5
32
330
5
100
AcDbSymbolTableRecord
100
AcDbLinetypeTableRecord
  2
DOT
 70
    0
  3
Dot . . . . . . . . . . . . . . . . . . . . . .
 72
   65
 73
    2
 40
6.35
 49
0
 74
    0
 49
-6.35
 74
    0
  0
LTYPE
  5
33
330
5
100
AcDbSymbolTableRecord
100
AcDbLinetypeTableRecord
  2
DOTTINY
 70
    0
  3
Dot (.15x) .....................................
 72
   65
 73
    2
 40
0.9525
 49
0
 74
    0
 49
-0.9525
 74
    0
  0
LTYPE
  5
34
330
5
100
AcDbSymbolTableRecord
100
AcDbLinetypeTableRecord
  2
DOT2
 70
    0
  3
Dot (.5x) .....................................
 72
   65
 73
    2
 40
3.175
 49
0
 74
    0
 49
-3.175
 74
    0
  0
LTYPE
  5
35
330
5
100
AcDbSymbolTableRecord
100
AcDbLinetypeTableRecord
  2
DOTX2
 70
    0
  3
Dot (2x) .  .  .  .  .  .  .  .  .  .  .  .  .
 72
   65
 73
    2
 40
12.7
 49
0
 74
    0
 49
-12.7
 74
    0
  0
LTYPE
  5
36
330
5
100
AcDbSymbolTableRecord
100
AcDbLinetypeTableRecord
  2
DASHED
 70
    0
  3
Dashed _ _ _ _ _ _ _ _ _ _ _ _ _ _ _ _ _
 72
   65
 73
    2
 40
19.05
 49
12.7
 74
    0
 49
-6.35
 74
    0
  0
LTYPE
  5
37
330
5
100
AcDbSymbolTableRecord
100
AcDbLinetypeTableRecord
  2
DASHEDTINY
 70
    0
  3
Dashed (.15x) _ _ _ _ _ _ _ _ _ _ _ _ _ _ _ _ _
 72
   65
 73
    2
 40
2.8575
 49
1.905
 74
    0
 49
-0.9525
 74
    0
  0
LTYPE
  5
38
330
5
100
AcDbSymbolTableRecord
100
AcDbLinetypeTableRecord
  2
DASHED2
 70
    0
  3
Dashed (.5x) _ _ _ _ _ _ _ _ _ _ _ _ _ _ _ _ _
 72
   65
 73
    2
 40
9.524999999999999
 49
6.35
 74
    0
 49
-3.175
 74
    0
  0
LTYPE
  5
39
330
5
100
AcDbSymbolTableRecord
100
AcDbLinetypeTableRecord
  2
DASHEDX2
 70
    0
  3
Dashed (2x) ____  ____  ____  ____  ____  ___
 72
   65
 73
    2
 40
38.09999999999999
 49
25.4
 74
    0
 49
-12.7
 74
    0
  0
LTYPE
  5
3A
330
5
100
AcDbSymbolTableRecord
100
AcDbLinetypeTableRecord
  2
DASHDOT
 70
    0
  3
Dash dot __ . __ . __ . __ . __ . __ . __ . __
 72
   65
 73
    4
 40
25.4
 49
12.7
 74
    0
 49
-6.35
 74
    0
 49
0
 74
    0
 49
-6.35
 74
    0
  0
LTYPE
  5
3B
330
5
100
AcDbSymbolTableRecord
100
AcDbLinetypeTableRecord
  2
DASHDOTTINY
 70
    0
  3
Dash dot (.15x) _._._._._._._._._._._._._._._.
 72
   65
 73
    4
 40
3.81
 49
1.905
 74
    0
 49
-0.9525
 74
    0
 49
0
 74
    0
 49
-0.9525
 74
    0
  0
LTYPE
  5
3C
330
5
100
AcDbSymbolTableRecord
100
AcDbLinetypeTableRecord
  2
DASHDOT2
 70
    0
  3
Dash dot (.5x) _._._._._._._._._._._._._._._.
 72
   65
 73
    4
 40
12.7
 49
6.35
 74
    0
 49
-3.175
 74
    0
 49
0
 74
    0
 49
-3.175
 74
    0
  0
LTYPE
  5
3D
330
5
100
AcDbSymbolTableRecord
100
AcDbLinetypeTableRecord
  2
DASHDOTX2
 70
    0
  3
Dash dot (2x) ____  .  ____  .  ____  .  ___
 72
   65
 73
    4
 40
50.8
 49
25.4
 74
    0
 49
-12.7
 74
    0
 49
0
 74
    0
 49
-12.7
 74
    0
  0
LTYPE
  5
3E
330
5
100
AcDbSymbolTableRecord
100
AcDbLinetypeTableRecord
  2
DIVIDE
 70
    0
  3
Divide ____ . . ____ . . ____ . . ____ . . ____
 72
   65
 73
    6
 40
31.75
 49
12.7
 74
    0
 49
-6.35
 74
    0
 49
0
 74
    0
 49
-6.35
 74
    0
 49
0
 74
    0
 49
-6.35
 74
    0
  0
LTYPE
  5
3F
330
5
100
AcDbSymbolTableRecord
100
AcDbLinetypeTableRecord
  2
DIVIDETINY
 70
    0
  3
Divide (.15x) __..__..__..__..__..__..__..__.._
 72
   65
 73
    6
 40
4.7625
 49
1.905
 74
    0
 49
-0.9525
 74
    0
 49
0
 74
    0
 49
-0.9525
 74
    0
 49
0
 74
    0
 49
-0.9525
 74
    0
  0
LTYPE
  5
40
330
5
100
AcDbSymbolTableRecord
100
AcDbLinetypeTableRecord
  2
DIVIDE2
 70
    0
  3
Divide (.5x) __..__..__..__..__..__..__..__.._
 72
   65
 73
    6
 40
15.875
 49
6.35
 74
    0
 49
-3.175
 74
    0
 49
0
 74
    0
 49
-3.175
 74
    0
 49
0
 74
    0
 49
-3.175
 74
    0
  0
LTYPE
  5
41
330
5
100
AcDbSymbolTableRecord
100
AcDbLinetypeTableRecord
  2
DIVIDEX2
 70
    0
  3
Divide (2x) ________  .  .  ________  .  .  _
 72
   65
 73
    6
 40
63.5
 49
25.4
 74
    0
 49
-12.7
 74
    0
 49
0
 74
    0
 49
-12.7
 74
    0
 49
0
 74
    0
 49
-12.7
 74
    0
  0
LTYPE
  5
42
330
5
100
AcDbSymbolTableRecord
100
AcDbLinetypeTableRecord
  2
BORDER
 70
    0
  3
Border __ __ . __ __ . __ __ . __ __ . __ __ .
 72
   65
 73
    6
 40
44.45
 49
12.7
 74
    0
 49
-6.35
 74
    0
 49
12.7
 74
    0
 49
-6.35
 74
    0
 49
0
 74
    0
 49
-6.35
 74
    0
  0
LTYPE
  5
43
330
5
100
AcDbSymbolTableRecord
100
AcDbLinetypeTableRecord
  2
BORDERTINY
 70
    0
  3
Border (.15x) __.__.__.__.__.__.__.__.__.__.__.
 72
   65
 73
    6
 40
6.6675
 49
1.905
 74
    0
 49
-0.9525
 74
    0
 49
1.905
 74
    0
 49
-0.9525
 74
    0
 49
0
 74
    0
 49
-0.9525
 74
    0
  0
LTYPE
  5
44
330
5
100
AcDbSymbolTableRecord
100
AcDbLinetypeTableRecord
  2
BORDER2
 70
    0
  3
Border (.5x) __.__.__.__.__.__.__.__.__.__.__.
 72
   65
 73
    6
 40
22.225
 49
6.35
 74
    0
 49
-3.175
 74
    0
 49
6.35
 74
    0
 49
-3.175
 74
    0
 49
0
 74
    0
 49
-3.175
 74
    0
  0
LTYPE
  5
45
330
5
100
AcDbSymbolTableRecord
100
AcDbLinetypeTableRecord
  2
BORDERX2
 70
    0
  3
Border (2x) ____  ____  .  ____  ____  .  ___
 72
   65
 73
    6
 40
88.89999999999999
 49
25.4
 74
    0
 49
-12.7
 74
    0
 49
25.4
 74
    0
 49
-12.7
 74
    0
 49
0
 74
    0
 49
-12.7
 74
    0
  0
LTYPE
  5
46
330
5
100
AcDbSymbolTableRecord
100
AcDbLinetypeTableRecord
  2
CENTER
 70
    0
  3
Center ____ _ ____ _ ____ _ ____ _ ____ _ ____
 72
   65
 73
    4
 40
50.8
 49
31.75
 74
    0
 49
-6.35
 74
    0
 49
6.35
 74
    0
 49
-6.35
 74
    0
  0
LTYPE
  5
47
330
5
100
AcDbSymbolTableRecord
100
AcDbLinetypeTableRecord
  2
CENTERTINY
 70
    0
  3
Center (.15x) ___ _ ___ _ ___ _ ___ _ ___ _ ___
 72
   65
 73
    4
 40
7.619999999999999
 49
4.7625
 74
    0
 49
-0.9525
 74
    0
 49
0.9525
 74
    0
 49
-0.9525
 74
    0
  0
LTYPE
  5
48
330
5
100
AcDbSymbolTableRecord
100
AcDbLinetypeTableRecord
  2
CENTER2
 70
    0
  3
Center (.5x) ___ _ ___ _ ___ _ ___ _ ___ _ ___
 72
   65
 73
    4
 40
28.575
 49
19.05
 74
    0
 49
-3.175
 74
    0
 49
3.175
 74
    0
 49
-3.175
 74
    0
  0
LTYPE
  5
49
330
5
100
AcDbSymbolTableRecord
100
AcDbLinetypeTableRecord
  2
CENTERX2
 70
    0
  3
Center (2x) ________  __  ________  __  _____
 72
   65
 73
    4
 40
101.6
 49
63.5
 74
    0
 49
-12.7
 74
    0
 49
12.7
 74
    0
 49
-12.7
 74
    0
  0
ENDTAB
  0
TABLE
  2
LAYER
  5
2
330
0
100
AcDbSymbolTable
 70
    1
  0
LAYER
  5
10
330
2
100
AcDbSymbolTableRecord
100
AcDbLayerTableRecord
  2
0
 70
    5
 62
    7
  6
CONTINUOUS
370
    0
390
F
  0
LAYER
  5
4A
330
2
100
AcDbSymbolTableRecord
100
AcDbLayerTableRecord
  2
baseplate_30mm
 70
    5
 62
    4
  6
CONTINUOUS
370
    0
390
F
  0
LAYER
  5
4B
330
2
100
AcDbSymbolTableRecord
100
AcDbLayerTableRecord
  2
baseplate_40mm
 70
    0
 62
  136
420
32896
  6
CONTINUOUS
370
    0
390
F
  0
LAYER
  5
4C
330
2
100
AcDbSymbolTableRecord
100
AcDbLayerTableRecord
  2
plate_construction
 70
    1
 62
  216
420
8388736
  6
CONTINUOUS
370
    0
390
F
  0
LAYER
  5
4D
330
2
100
AcDbSymbolTableRecord
100
AcDbLayerTableRecord
  2
strips
 70
    4
 62
   96
420
32768
  6
CONTINUOUS
370
    0
390
F
  0
ENDTAB
  0
TABLE
  2
STYLE
  5
3
330
0
100
AcDbSymbolTable
 70
    3
  0
STYLE
  5
4E
330
2
100
AcDbSymbolTableRecord
100
AcDbTextStyleTableRecord
  2
Standard
 70
    0
 40
0
 41
1
 50
0
 71
    0
 42
1
  3
txt
  4

  0
ENDTAB
  0
TABLE
  2
VIEW
  5
6
330
0
100
AcDbSymbolTable
 70
    0
  0
ENDTAB
  0
TABLE
  2
UCS
  5
7
330
0
100
AcDbSymbolTable
 70
    0
  0
ENDTAB
  0
TABLE
  2
APPID
  5
9
330
0
100
AcDbSymbolTable
 70
    1
  0
APPID
  5
12
330
9
100
AcDbSymbolTableRecord
100
AcDbRegAppTableRecord
  2
ACAD
 70
    0
  0
APPID
  5
4F
330
9
100
AcDbSymbolTableRecord
100
AcDbRegAppTableRecord
  2
LibreCad
 70
    0
  0
ENDTAB
  0
TABLE
  2
DIMSTYLE
  5
A
330
0
100
AcDbSymbolTable
 70
    1
100
AcDbDimStyleTable
 71
    1
  0
DIMSTYLE
105
50
330
A
100
AcDbSymbolTableRecord
100
AcDbDimStyleTableRecord
  2
Standard
 70
    0
 40
1
 41
2.5
 42
0.625
 43
0.38
 44
1.25
 45
0
 46
0
 47
0
 48
0
140
2.5
141
0.09
142
0
143
25.4
144
1
145
0
146
1
147
0.625
148
0
 71
    0
 72
    0
 73
    0
 74
    1
 75
    0
 76
    0
 77
    0
 78
    0
 79
    0
170
    0
171
    2
172
    0
173
    0
174
    0
175
    0
176
    0
177
    0
178
    0
179
    0
271
    4
272
    4
273
    2
274
    2
275
    0
276
    0
277
    2
278
   46
279
    0
280
    0
281
    0
282
    0
283
    1
284
    0
285
    0
286
    0
288
    0
289
    3
340
Standard
341

371
   -2
372
   -2
  0
ENDTAB
  0
TABLE
  2
BLOCK_RECORD
  5
1
330
0
100
AcDbSymbolTable
 70
    2
  0
BLOCK_RECORD
  5
1F
330
1
100
AcDbSymbolTableRecord
100
AcDbBlockTableRecord
  2
*Model_Space
 70
    0
280
    1
281
    0
  0
BLOCK_RECORD
  5
1E
330
1
100
AcDbSymbolTableRecord
100
AcDbBlockTableRecord
  2
*Paper_Space
 70
    0
280
    1
281
    0
  0
BLOCK_RECORD
  5
51
330
1
100
AcDbSymbolTableRecord
100
AcDbBlockTableRecord
  2
*D12
 70
    0
280
    1
281
    0
  0
BLOCK_RECORD
  5
54
330
1
100
AcDbSymbolTableRecord
100
AcDbBlockTableRecord
  2
*D19
 70
    0
280
    1
281
    0
  0
BLOCK_RECORD
  5
57
330
1
100
AcDbSymbolTableRecord
100
AcDbBlockTableRecord
  2
*D11
 70
    0
280
    1
281
    0
  0
BLOCK_RECORD
  5
5A
330
1
100
AcDbSymbolTableRecord
100
AcDbBlockTableRecord
  2
*D5
 70
    0
280
    1
281
    0
  0
BLOCK_RECORD
  5
5D
330
1
100
AcDbSymbolTableRecord
100
AcDbBlockTableRecord
  2
*D2
 70
    0
280
    1
281
    0
  0
BLOCK_RECORD
  5
60
330
1
100
AcDbSymbolTableRecord
100
AcDbBlockTableRecord
  2
*D16
 70
    0
280
    1
281
    0
  0
BLOCK_RECORD
  5
63
330
1
100
AcDbSymbolTableRecord
100
AcDbBlockTableRecord
  2
*D1
 70
    0
280
    1
281
    0
  0
BLOCK_RECORD
  5
66
330
1
100
AcDbSymbolTableRecord
100
AcDbBlockTableRecord
  2
*D7
 70
    0
280
    1
281
    0
  0
BLOCK_RECORD
  5
69
330
1
100
AcDbSymbolTableRecord
100
AcDbBlockTableRecord
  2
*D20
 70
    0
280
    1
281
    0
  0
BLOCK_RECORD
  5
6C
330
1
100
AcDbSymbolTableRecord
100
AcDbBlockTableRecord
  2
*D13
 70
    0
280
    1
281
    0
  0
BLOCK_RECORD
  5
6F
330
1
100
AcDbSymbolTableRecord
100
AcDbBlockTableRecord
  2
*D6
 70
    0
280
    1
281
    0
  0
BLOCK_RECORD
  5
72
330
1
100
AcDbSymbolTableRecord
100
AcDbBlockTableRecord
  2
*D15
 70
    0
280
    1
281
    0
  0
BLOCK_RECORD
  5
75
330
1
100
AcDbSymbolTableRecord
100
AcDbBlockTableRecord
  2
*D10
 70
    0
280
    1
281
    0
  0
BLOCK_RECORD
  5
78
330
1
100
AcDbSymbolTableRecord
100
AcDbBlockTableRecord
  2
*D14
 70
    0
280
    1
281
    0
  0
BLOCK_RECORD
  5
7B
330
1
100
AcDbSymbolTableRecord
100
AcDbBlockTableRecord
  2
*D9
 70
    0
280
    1
281
    0
  0
BLOCK_RECORD
  5
7E
330
1
100
AcDbSymbolTableRecord
100
AcDbBlockTableRecord
  2
*D18
 70
    0
280
    1
281
    0
  0
BLOCK_RECORD
  5
81
330
1
100
AcDbSymbolTableRecord
100
AcDbBlockTableRecord
  2
*D4
 70
    0
280
    1
281
    0
  0
BLOCK_RECORD
  5
84
330
1
100
AcDbSymbolTableRecord
100
AcDbBlockTableRecord
  2
*D3
 70
    0
280
    1
281
    0
  0
BLOCK_RECORD
  5
87
330
1
100
AcDbSymbolTableRecord
100
AcDbBlockTableRecord
  2
*D8
 70
    0
280
    1
281
    0
  0
BLOCK_RECORD
  5
8A
330
1
100
AcDbSymbolTableRecord
100
AcDbBlockTableRecord
  2
*D17
 70
    0
280
    1
281
    0
  0
ENDTAB
  0
ENDSEC
  0
SECTION
  2
BLOCKS
  0
BLOCK
  5
20
330
1F
100
AcDbEntity
  8
0
100
AcDbBlockBegin
  2
*Model_Space
 70
    0
 10
0
 20
0
 30
0
  3
*Model_Space
  1

  0
ENDBLK
  5
21
330
1F
100
AcDbEntity
  8
0
100
AcDbBlockEnd
  0
BLOCK
  5
1C
330
1B
100
AcDbEntity
  8
0
100
AcDbBlockBegin
  2
*Paper_Space
 70
    0
 10
0
 20
0
 30
0
  3
*Paper_Space
  1

  0
ENDBLK
  5
1D
330
1F
100
AcDbEntity
  8
0
100
AcDbBlockEnd
  0
BLOCK
  5
52
330
51
100
AcDbEntity
  8
0
100
AcDbBlockBegin
  2
*D12
 70
    1
 10
0
 20
0
  3
*D12
  1

  0
LINE
  5
8D
100
AcDbEntity
  8
baseplate_30mm
  6
ByBlock
 62
    0
370
   -2
100
AcDbLine
 10
142.4529946162067
 20
89.78203230275389
 11
142.4529946162067
 21
60.78203230275389
  0
SOLID
  5
8E
100
AcDbEntity
  8
baseplate_30mm
  6
ByBlock
 62
    0
370
   -2
100
AcDbTrace
 10
142.4529946162067
 20
77.28203230275389
 30
0
 11
141.4122829717746
 21
83.53203230275389
 31
0
 12
143.4937062606388
 22
83.53203230275389
 32
0
 13
143.4937062606388
 23
83.53203230275389
 33
0
  0
SOLID
  5
8F
100
AcDbEntity
  8
baseplate_30mm
  6
ByBlock
 62
    0
370
   -2
100
AcDbTrace
 10
142.4529946162067
 20
73.28203230275389
 30
0
 11
143.4937062606388
 21
67.03203230275389
 31
0
 12
141.4122829717746
 22
67.03203230275389
 32
0
 13
141.4122829717746
 23
67.03203230275389
 33
0
  0
MTEXT
  5
90
100
AcDbEntity
  8
baseplate_30mm
  6
CONTINUOUS
 62
    0
370
   -2
100
AcDbMText
 10
137.7654946162067
 20
86.65703230275389
 30
0
 40
6.25
 41
15.625
 71
    5
 72
    1
  1
4,00
  7
STANDARD
210
0
220
0
230
1
 50
90
 73
    2
 44
1
  0
ENDBLK
  5
53
330
51
100
AcDbEntity
  8
0
100
AcDbBlockEnd
  0
BLOCK
  5
55
330
54
100
AcDbEntity
  8
0
100
AcDbBlockBegin
  2
*D19
 70
    1
 10
0
 20
0
  3
*D19
  1

  0
LINE
  5
91
100
AcDbEntity
  8
baseplate_40mm
  6
ByBlock
 62
    0
370
   -2
100
AcDbLine
 10
140.8530467697244
 20
44.26213003722186
 11
149.0169826719043
 21
58.40248180953306
  0
LINE
  5
92
100
AcDbEntity
  8
baseplate_40mm
  6
ByBlock
 62
    0
370
   -2
100
AcDbLine
 10
132.19279273188
 20
49.26213003722184
 11
140.3567286340599
 21
63.40248180953304
  0
LINE
  5
93
100
AcDbEntity
  8
baseplate_40mm
  6
ByBlock
 62
    0
370
   -2
100
AcDbLine
 10
158.2798002192097
 20
49.4461524227067
 11
127.9689110867544
 21
66.94615242270666
  0
SOLID
  5
94
100
AcDbEntity
  8
baseplate_40mm
  6
ByBlock
 62
    0
370
   -2
100
AcDbTrace
 10
147.4544826719043
 20
55.69615242270669
 30
0
 11
153.3874972677731
 21
53.47243514479917
 31
0
 12
152.346785623341
 22
51.66986970061421
 32
0
 13
152.346785623341
 23
51.66986970061421
 33
0
  0
SOLID
  5
95
100
AcDbEntity
  8
baseplate_40mm
  6
ByBlock
 62
    0
370
   -2
100
AcDbTrace
 10
138.7942286340599
 20
60.69615242270667
 30
0
 11
132.8612140381911
 21
62.91986970061419
 31
0
 12
133.9019256826232
 22
64.72243514479915
 32
0
 13
133.9019256826232
 23
64.72243514479915
 33
0
  0
MTEXT
  5
96
100
AcDbEntity
  8
baseplate_40mm
  6
CONTINUOUS
 62
    0
370
   -2
100
AcDbMText
 10
159.1200338931951
 20
54.37370205850181
 30
0
 40
6.25
 41
18.40277777777778
 71
    5
 72
    1
  1
10,00
  7
STANDARD
210
0
220
0
230
1
 50
330.0000000000001
 73
    2
 44
1
  0
ENDBLK
  5
56
330
54
100
AcDbEntity
  8
0
100
AcDbBlockEnd
  0
BLOCK
  5
58
330
57
100
AcDbEntity
  8
0
100
AcDbBlockBegin
  2
*D11
 70
    1
 10
0
 20
0
  3
*D11
  1

  0
LINE
  5
97
100
AcDbEntity
  8
baseplate_30mm
  6
ByBlock
 62
    0
370
   -2
100
AcDbLine
 10
-54.45299461620743
 20
46.92562584220407
 11
-54.45299461620743
 21
75.92562584220407
  0
SOLID
  5
98
100
AcDbEntity
  8
baseplate_30mm
  6
ByBlock
 62
    0
370
   -2
100
AcDbTrace
 10
-54.45299461620743
 20
59.42562584220407
 30
0
 11
-53.41228297177533
 21
53.17562584220407
 31
0
 12
-55.49370626063953
 22
53.17562584220407
 32
0
 13
-55.49370626063953
 23
53.17562584220407
 33
0
  0
SOLID
  5
99
100
AcDbEntity
  8
baseplate_30mm
  6
ByBlock
 62
    0
370
   -2
100
AcDbTrace
 10
-54.45299461620743
 20
63.42562584220407
 30
0
 11
-55.49370626063953
 21
69.67562584220407
 31
0
 12
-53.41228297177533
 22
69.67562584220407
 32
0
 13
-53.41228297177533
 23
69.67562584220407
 33
0
  0
MTEXT
  5
9A
100
AcDbEntity
  8
baseplate_30mm
  6
CONTINUOUS
 62
    0
370
   -2
100
AcDbMText
 10
-49.76549461620743
 20
50.05062584220407
 30
0
 40
6.25
 41
15.625
 71
    5
 72
    1
  1
4,00
  7
STANDARD
210
0
220
0
230
1
 50
270
 73
    2
 44
1
  0
ENDBLK
  5
59
330
57
100
AcDbEntity
  8
0
100
AcDbBlockEnd
  0
BLOCK
  5
5B
330
5A
100
AcDbEntity
  8
0
100
AcDbBlockBegin
  2
*D5
 70
    1
 10
0
 20
0
  3
*D5
  1

  0
LINE
  5
9B
100
AcDbEntity
  8
baseplate_30mm
  6
ByBlock
 62
    0
370
   -2
100
AcDbLine
 10
-70
 20
61.42562584220408
 11
-70
 21
167.0807251039053
  0
SOLID
  5
9C
100
AcDbEntity
  8
baseplate_30mm
  6
ByBlock
 62
    0
370
   -2
100
AcDbTrace
 10
-70
 20
61.42562584220408
 30
0
 11
-71.04071164443209
 21
67.67562584220408
 31
0
 12
-68.95928835556789
 22
67.67562584220408
 32
0
 13
-68.95928835556789
 23
67.67562584220408
 33
0
  0
SOLID
  5
9D
100
AcDbEntity
  8
baseplate_30mm
  6
ByBlock
 62
    0
370
   -2
100
AcDbTrace
 10
-70
 20
167.0807251039053
 30
0
 11
-68.95928835556789
 21
160.8307251039053
 31
0
 12
-71.04071164443211
 22
160.8307251039053
 32
0
 13
-71.04071164443211
 23
160.8307251039053
 33
0
  0
MTEXT
  5
9E
100
AcDbEntity
  8
baseplate_30mm
  6
CONTINUOUS
 62
    0
370
   -2
100
AcDbMText
 10
-65.3125
 20
114.2531754730547
 30
0
 40
6.25
 41
23.26388888889005
 71
    5
 72
    1
  1
105,66
  7
STANDARD
210
0
220
0
230
1
 50
270
 73
    2
 44
1
  0
LINE
  5
9F
100
AcDbEntity
  8
baseplate_30mm
  6
ByBlock
 62
    0
370
   -2
100
AcDbLine
 10
-67.56249999999994
 20
61.42562584220408
 11
-73.125
 21
61.4256258422041
  0
LINE
  5
A0
100
AcDbEntity
  8
baseplate_30mm
  6
ByBlock
 62
    0
370
   -2
100
AcDbLine
 10
-6.562500000000199
 20
167.0807251039053
 11
-73.125
 21
167.0807251039053
  0
ENDBLK
  5
5C
330
5A
100
AcDbEntity
  8
0
100
AcDbBlockEnd
  0
BLOCK
  5
5E
330
5D
100
AcDbEntity
  8
0
100
AcDbBlockBegin
  2
*D2
 70
    1
 10
0
 20
0
  3
*D2
  1

  0
LINE
  5
A1
100
AcDbEntity
  8
baseplate_30mm
  6
ByBlock
 62
    0
370
   -2
100
AcDbLine
 10
-70
 20
-16.51666049839541
 11
-70
 21
61.42562584220407
  0
SOLID
  5
A2
100
AcDbEntity
  8
baseplate_30mm
  6
ByBlock
 62
    0
370
   -2
100
AcDbTrace
 10
-70
 20
-16.51666049839541
 30
0
 11
-71.04071164443209
 21
-10.26666049839541
 31
0
 12
-68.95928835556789
 22
-10.26666049839541
 32
0
 13
-68.95928835556789
 23
-10.26666049839541
 33
0
  0
SOLID
  5
A3
100
AcDbEntity
  8
baseplate_30mm
  6
ByBlock
 62
    0
370
   -2
100
AcDbTrace
 10
-70
 20
61.42562584220407
 30
0
 11
-68.95928835556789
 21
55.17562584220407
 31
0
 12
-71.04071164443211
 22
55.17562584220407
 32
0
 13
-71.04071164443211
 23
55.17562584220407
 33
0
  0
MTEXT
  5
A4
100
AcDbEntity
  8
baseplate_30mm
  6
CONTINUOUS
 62
    0
370
   -2
100
AcDbMText
 10
-65.3125
 20
22.45448267190433
 30
0
 40
6.25
 41
20.48611111111111
 71
    5
 72
    1
  1
77,94
  7
STANDARD
210
0
220
0
230
1
 50
270
 73
    2
 44
1
  0
LINE
  5
A5
100
AcDbEntity
  8
baseplate_30mm
  6
ByBlock
 62
    0
370
   -2
100
AcDbLine
 10
-22.56250000000001
 20
-16.5166604983954
 11
-73.125
 21
-16.51666049839541
  0
LINE
  5
A6
100
AcDbEntity
  8
baseplate_30mm
  6
ByBlock
 62
    0
370
   -2
100
AcDbLine
 10
-67.56249999999994
 20
61.42562584220407
 11
-73.125
 21
61.42562584220407
  0
ENDBLK
  5
5F
330
5D
100
AcDbEntity
  8
0
100
AcDbBlockEnd
  0
BLOCK
  5
61
330
60
100
AcDbEntity
  8
0
100
AcDbBlockBegin
  2
*D16
 70
    1
 10
0
 20
0
  3
*D16
  1

  0
LINE
  5
A7
100
AcDbEntity
  8
baseplate_40mm
  6
ByBlock
 62
    0
370
   -2
100
AcDbLine
 10
114.9608598479998
 20
-3.7094532302755
 11
154.1704310019641
 21
-26.34710969082661
  0
LINE
  5
A8
100
AcDbEntity
  8
baseplate_40mm
  6
ByBlock
 62
    0
370
   -2
100
AcDbLine
 10
122.9608598479999
 20
10.14695323027552
 11
162.1704310019641
 21
-12.49070323027559
  0
LINE
  5
A9
100
AcDbEntity
  8
baseplate_40mm
  6
ByBlock
 62
    0
370
   -2
100
AcDbLine
 10
151.4641016151377
 20
-24.78460969082661
 11
159.4641016151377
 21
-10.92820323027559
  0
SOLID
  5
AA
100
AcDbEntity
  8
baseplate_40mm
  6
ByBlock
 62
    0
370
   -2
100
AcDbTrace
 10
151.4641016151377
 20
-24.78460969082661
 30
0
 11
153.6878188930453
 21
-18.85159509495782
 31
0
 12
155.4903843372302
 22
-19.89230673938992
 32
0
 13
155.4903843372302
 23
-19.89230673938992
 33
0
  0
SOLID
  5
AB
100
AcDbEntity
  8
baseplate_40mm
  6
ByBlock
 62
    0
370
   -2
100
AcDbTrace
 10
159.4641016151377
 20
-10.92820323027559
 30
0
 11
157.2403843372302
 21
-16.86121782614438
 31
0
 12
155.4378188930453
 22
-15.82050618171228
 32
0
 13
155.4378188930453
 23
-15.82050618171228
 33
0
  0
MTEXT
  5
AC
100
AcDbEntity
  8
baseplate_40mm
  6
CONTINUOUS
 62
    0
370
   -2
100
AcDbMText
 10
160.7865519793427
 20
0.7373479910154117
 30
0
 40
6.25
 41
18.40277777777816
 71
    5
 72
    1
  1
16,00
  7
STANDARD
210
0
220
0
230
1
 50
60.00000000000001
 73
    2
 44
1
  0
ENDBLK
  5
62
330
60
100
AcDbEntity
  8
0
100
AcDbBlockEnd
  0
BLOCK
  5
64
330
63
100
AcDbEntity
  8
0
100
AcDbBlockBegin
  2
*D1
 70
    1
 10
0
 20
0
  3
*D1
  1

  0
LINE
  5
AD
100
AcDbEntity
  8
baseplate_30mm
  6
ByBlock
 62
    0
370
   -2
100
AcDbLine
 10
-90
 20
-16.5166604983954
 11
-90
 21
167.0807251039053
  0
SOLID
  5
AE
100
AcDbEntity
  8
baseplate_30mm
  6
ByBlock
 62
    0
370
   -2
100
AcDbTrace
 10
-90
 20
-16.5166604983954
 30
0
 11
-91.04071164443209
 21
-10.2666604983954
 31
0
 12
-88.95928835556789
 22
-10.2666604983954
 32
0
 13
-88.95928835556789
 23
-10.2666604983954
 33
0
  0
SOLID
  5
AF
100
AcDbEntity
  8
baseplate_30mm
  6
ByBlock
 62
    0
370
   -2
100
AcDbTrace
 10
-90
 20
167.0807251039053
 30
0
 11
-88.95928835556789
 21
160.8307251039053
 31
0
 12
-91.04071164443211
 22
160.8307251039053
 32
0
 13
-91.04071164443211
 23
160.8307251039053
 33
0
  0
MTEXT
  5
B0
100
AcDbEntity
  8
baseplate_30mm
  6
CONTINUOUS
 62
    0
370
   -2
100
AcDbMText
 10
-85.3125
 20
75.28203230275493
 30
0
 40
6.25
 41
23.26388888888966
 71
    5
 72
    1
  1
183,60
  7
STANDARD
210
0
220
0
230
1
 50
270
 73
    2
 44
1
  0
LINE
  5
B1
100
AcDbEntity
  8
baseplate_30mm
  6
ByBlock
 62
    0
370
   -2
100
AcDbLine
 10
-22.56250000000001
 20
-16.5166604983954
 11
-93.125
 21
-16.5166604983954
  0
LINE
  5
B2
100
AcDbEntity
  8
baseplate_30mm
  6
ByBlock
 62
    0
370
   -2
100
AcDbLine
 10
-6.562500000000199
 20
167.0807251039053
 11
-93.125
 21
167.0807251039053
  0
ENDBLK
  5
65
330
63
100
AcDbEntity
  8
0
100
AcDbBlockEnd
  0
BLOCK
  5
67
330
66
100
AcDbEntity
  8
0
100
AcDbBlockBegin
  2
*D7
 70
    1
 10
0
 20
0
  3
*D7
  1

  0
LINE
  5
B3
100
AcDbEntity
  8
baseplate_30mm
  6
ByBlock
 62
    0
370
   -2
100
AcDbLine
 10
80.72649730810429
 20
157.0807251039049
 11
109.7264973081043
 21
157.0807251039049
  0
SOLID
  5
B4
100
AcDbEntity
  8
baseplate_30mm
  6
ByBlock
 62
    0
370
   -2
100
AcDbTrace
 10
93.22649730810429
 20
157.0807251039049
 30
0
 11
86.97649730810429
 21
156.0400134594728
 31
0
 12
86.97649730810429
 22
158.121436748337
 32
0
 13
86.97649730810429
 23
158.121436748337
 33
0
  0
SOLID
  5
B5
100
AcDbEntity
  8
baseplate_30mm
  6
ByBlock
 62
    0
370
   -2
100
AcDbTrace
 10
97.22649730810429
 20
157.0807251039049
 30
0
 11
103.4764973081043
 21
158.121436748337
 31
0
 12
103.4764973081043
 22
156.0400134594728
 32
0
 13
103.4764973081043
 23
156.0400134594728
 33
0
  0
MTEXT
  5
B6
100
AcDbEntity
  8
baseplate_30mm
  6
CONTINUOUS
 62
    0
370
   -2
100
AcDbMText
 10
106.6014973081043
 20
161.7682251039049
 30
0
 40
6.25
 41
15.625
 71
    5
 72
    1
  1
4,00
  7
STANDARD
210
0
220
0
230
1
 50
0
 73
    2
 44
1
  0
ENDBLK
  5
68
330
66
100
AcDbEntity
  8
0
100
AcDbBlockEnd
  0
BLOCK
  5
6A
330
69
100
AcDbEntity
  8
0
100
AcDbBlockBegin
  2
*D20
 70
    1
 10
0
 20
0
  3
*D20
  1

  0
LINE
  5
B7
100
AcDbEntity
  8
baseplate_40mm
  6
ByBlock
 62
    0
370
   -2
100
AcDbLine
 10
112.8264451545867
 20
-4.281367923688682
 11
105.5810935394489
 21
-16.83068503980847
  0
LINE
  5
B8
100
AcDbEntity
  8
baseplate_40mm
  6
ByBlock
 62
    0
370
   -2
100
AcDbLine
 10
105.8982419243112
 20
-0.2813679236886979
 11
98.65289030917343
 21
-12.83068503980849
  0
LINE
  5
B9
100
AcDbEntity
  8
baseplate_40mm
  6
ByBlock
 62
    0
370
   -2
100
AcDbLine
 10
117.9689110867544
 20
-20.37435565298212
 11
89.39007276186796
 21
-3.874355652982106
  0
SOLID
  5
BA
100
AcDbEntity
  8
baseplate_40mm
  6
ByBlock
 62
    0
370
   -2
100
AcDbTrace
 10
107.1435935394489
 20
-14.12435565298211
 30
0
 11
113.0766081353177
 21
-16.34807293088963
 31
0
 12
112.0358964908856
 22
-18.15063837507459
 32
0
 13
112.0358964908856
 23
-18.15063837507459
 33
0
  0
SOLID
  5
BB
100
AcDbEntity
  8
baseplate_40mm
  6
ByBlock
 62
    0
370
   -2
100
AcDbTrace
 10
100.2153903091734
 20
-10.12435565298212
 30
0
 11
94.28237571330465
 21
-7.900638375074591
 31
0
 12
95.32308735773674
 22
-6.098072930889637
 32
0
 13
95.32308735773674
 23
-6.098072930889637
 33
0
  0
MTEXT
  5
BC
100
AcDbEntity
  8
baseplate_40mm
  6
CONTINUOUS
 62
    0
370
   -2
100
AcDbMText
 10
117.3056284347251
 20
-14.57875046163146
 30
0
 40
6.25
 41
14.93055555555556
 71
    5
 72
    1
  1
8,00
  7
STANDARD
210
0
220
0
230
1
 50
329.9999999999999
 73
    2
 44
1
  0
ENDBLK
  5
6B
330
69
100
AcDbEntity
  8
0
100
AcDbBlockEnd
  0
BLOCK
  5
6D
330
6C
100
AcDbEntity
  8
0
100
AcDbBlockBegin
  2
*D13
 70
    1
 10
0
 20
0
  3
*D13
  1

  0
LINE
  5
BD
100
AcDbEntity
  8
baseplate_40mm
  6
ByBlock
 62
    0
370
   -2
100
AcDbLine
 10
-100
 20
179.2050807568874
 11
-100
 21
-28.64101615137753
  0
SOLID
  5
BE
100
AcDbEntity
  8
baseplate_40mm
  6
ByBlock
 62
    0
370
   -2
100
AcDbTrace
 10
-100
 20
179.2050807568874
 30
0
 11
-98.95928835556789
 21
172.9550807568874
 31
0
 12
-101.0407116444321
 22
172.9550807568874
 32
0
 13
-101.0407116444321
 23
172.9550807568874
 33
0
  0
SOLID
  5
BF
100
AcDbEntity
  8
baseplate_40mm
  6
ByBlock
 62
    0
370
   -2
100
AcDbTrace
 10
-100
 20
-28.64101615137753
 30
0
 11
-101.0407116444321
 21
-22.39101615137753
 31
0
 12
-98.95928835556789
 22
-22.39101615137753
 32
0
 13
-98.95928835556789
 23
-22.39101615137753
 33
0
  0
MTEXT
  5
C0
100
AcDbEntity
  8
baseplate_40mm
  6
CONTINUOUS
 62
    0
370
   -2
100
AcDbMText
 10
-104.6875
 20
75.28203230275496
 30
0
 40
6.25
 41
24.65277777777816
 71
    5
 72
    1
  1
207,85
  7
STANDARD
210
0
220
0
230
1
 50
90
 73
    2
 44
1
  0
LINE
  5
C1
100
AcDbEntity
  8
baseplate_40mm
  6
ByBlock
 62
    0
370
   -2
100
AcDbLine
 10
-13.56250000000024
 20
179.2050807568874
 11
-103.125
 21
179.2050807568874
  0
LINE
  5
C2
100
AcDbEntity
  8
baseplate_40mm
  6
ByBlock
 62
    0
370
   -2
100
AcDbLine
 10
-29.5625
 20
-28.64101615137753
 11
-103.125
 21
-28.64101615137753
  0
ENDBLK
  5
6E
330
6C
100
AcDbEntity
  8
0
100
AcDbBlockEnd
  0
BLOCK
  5
70
330
6F
100
AcDbEntity
  8
0
100
AcDbBlockBegin
  2
*D6
 70
    1
 10
0
 20
0
  3
*D6
  1

  0
LINE
  5
C3
100
AcDbEntity
  8
baseplate_30mm
  6
ByBlock
 62
    0
370
   -2
100
AcDbLine
 10
-13.72649730810396
 20
157.0807251039052
 11
15.27350269189604
 21
157.0807251039052
  0
SOLID
  5
C4
100
AcDbEntity
  8
baseplate_30mm
  6
ByBlock
 62
    0
370
   -2
100
AcDbTrace
 10
-1.226497308103959
 20
157.0807251039052
 30
0
 11
-7.476497308103959
 21
156.0400134594731
 31
0
 12
-7.476497308103959
 22
158.1214367483373
 32
0
 13
-7.476497308103959
 23
158.1214367483373
 33
0
  0
SOLID
  5
C5
100
AcDbEntity
  8
baseplate_30mm
  6
ByBlock
 62
    0
370
   -2
100
AcDbTrace
 10
2.773502691896041
 20
157.0807251039052
 30
0
 11
9.023502691896041
 21
158.1214367483373
 31
0
 12
9.023502691896041
 22
156.0400134594731
 32
0
 13
9.023502691896041
 23
156.0400134594731
 33
0
  0
MTEXT
  5
C6
100
AcDbEntity
  8
baseplate_30mm
  6
CONTINUOUS
 62
    0
370
   -2
100
AcDbMText
 10
12.14850269189604
 20
161.7682251039052
 30
0
 40
6.25
 41
15.625
 71
    5
 72
    1
  1
4,00
  7
STANDARD
210
0
220
0
230
1
 50
0
 73
    2
 44
1
  0
ENDBLK
  5
71
330
6F
100
AcDbEntity
  8
0
100
AcDbBlockEnd
  0
BLOCK
  5
73
330
72
100
AcDbEntity
  8
0
100
AcDbBlockBegin
  2
*D15
 70
    1
 10
0
 20
0
  3
*D15
  1

  0
LINE
  5
C7
100
AcDbEntity
  8
baseplate_40mm
  6
ByBlock
 62
    0
370
   -2
100
AcDbLine
 10
131.4249614631376
 20
24.80720726811989
 11
154.4742785792575
 21
11.49967782649103
  0
LINE
  5
C8
100
AcDbEntity
  8
baseplate_40mm
  6
ByBlock
 62
    0
370
   -2
100
AcDbLine
 10
141.4249614631376
 20
42.12771534380867
 11
164.4742785792575
 21
28.82018590217981
  0
LINE
  5
C9
100
AcDbEntity
  8
baseplate_40mm
  6
ByBlock
 62
    0
370
   -2
100
AcDbLine
 10
151.7679491924311
 20
13.06217782649103
 11
161.7679491924311
 21
30.38268590217981
  0
SOLID
  5
CA
100
AcDbEntity
  8
baseplate_40mm
  6
ByBlock
 62
    0
370
   -2
100
AcDbTrace
 10
151.7679491924311
 20
13.06217782649103
 30
0
 11
153.9916664703386
 21
18.99519242235982
 31
0
 12
155.7942319145236
 22
17.95448077792772
 32
0
 13
155.7942319145236
 23
17.95448077792772
 33
0
  0
SOLID
  5
CB
100
AcDbEntity
  8
baseplate_40mm
  6
ByBlock
 62
    0
370
   -2
100
AcDbTrace
 10
161.7679491924311
 20
30.38268590217981
 30
0
 11
159.5442319145236
 21
24.44967130631102
 31
0
 12
157.7416664703386
 22
25.49038295074312
 32
0
 13
157.7416664703386
 23
25.49038295074312
 33
0
  0
MTEXT
  5
CC
100
AcDbEntity
  8
baseplate_40mm
  6
CONTINUOUS
 62
    0
370
   -2
100
AcDbMText
 10
152.7084551121916
 20
24.06618186433542
 30
0
 40
6.25
 41
19.79166666666666
 71
    5
 72
    1
  1
20,00
  7
STANDARD
210
0
220
0
230
1
 50
60.00000000000003
 73
    2
 44
1
  0
ENDBLK
  5
74
330
72
100
AcDbEntity
  8
0
100
AcDbBlockEnd
  0
BLOCK
  5
76
330
75
100
AcDbEntity
  8
0
100
AcDbBlockBegin
  2
*D10
 70
    1
 10
0
 20
0
  3
*D10
  1

  0
LINE
  5
CD
100
AcDbEntity
  8
baseplate_30mm
  6
ByBlock
 62
    0
370
   -2
100
AcDbLine
 10
0.3360026918915511
 20
-6.516660498395161
 11
1.898502691891551
 21
-6.516660498395161
  0
LINE
  5
CE
100
AcDbEntity
  8
baseplate_30mm
  6
ByBlock
 62
    0
370
   -2
100
AcDbLine
 10
2.336002691896041
 20
-6.516660498395161
 11
3.898502691896041
 21
-6.516660498395161
  0
LINE
  5
CF
100
AcDbEntity
  8
baseplate_30mm
  6
ByBlock
 62
    0
370
   -2
100
AcDbLine
 10
-13.72649730810845
 20
-6.516660498395159
 11
13.27350269189604
 21
-6.516660498395162
  0
SOLID
  5
D0
100
AcDbEntity
  8
baseplate_30mm
  6
ByBlock
 62
    0
370
   -2
100
AcDbTrace
 10
-1.226497308108449
 20
-6.516660498395161
 30
0
 11
-7.476497308108449
 21
-7.557372142827262
 31
0
 12
-7.476497308108449
 22
-5.475948853963059
 32
0
 13
-7.476497308108449
 23
-5.475948853963059
 33
0
  0
SOLID
  5
D1
100
AcDbEntity
  8
baseplate_30mm
  6
ByBlock
 62
    0
370
   -2
100
AcDbTrace
 10
0.7735026918960415
 20
-6.516660498395161
 30
0
 11
7.023502691896041
 21
-5.47594885396306
 31
0
 12
7.023502691896041
 22
-7.557372142827263
 32
0
 13
7.023502691896041
 23
-7.557372142827263
 33
0
  0
MTEXT
  5
D2
100
AcDbEntity
  8
baseplate_30mm
  6
CONTINUOUS
 62
    0
370
   -2
100
AcDbMText
 10
9.80128046967382
 20
-1.829160498395161
 30
0
 40
6.25
 41
14.93055555555556
 71
    5
 72
    1
  1
2,00
  7
STANDARD
210
0
220
0
230
1
 50
0
 73
    2
 44
1
  0
ENDBLK
  5
77
330
75
100
AcDbEntity
  8
0
100
AcDbBlockEnd
  0
BLOCK
  5
79
330
78
100
AcDbEntity
  8
0
100
AcDbBlockBegin
  2
*D14
 70
    1
 10
0
 20
0
  3
*D14
  1

  0
LINE
  5
D3
100
AcDbEntity
  8
baseplate_40mm
  6
ByBlock
 62
    0
370
   -2
100
AcDbLine
 10
-80
 20
200
 11
167.9999999999992
 21
200
  0
SOLID
  5
D4
100
AcDbEntity
  8
baseplate_40mm
  6
ByBlock
 62
    0
370
   -2
100
AcDbTrace
 10
-80
 20
200
 30
0
 11
-73.75
 21
201.0407116444321
 31
0
 12
-73.75
 22
198.9592883555679
 32
0
 13
-73.75
 23
198.9592883555679
 33
0
  0
SOLID
  5
D5
100
AcDbEntity
  8
baseplate_40mm
  6
ByBlock
 62
    0
370
   -2
100
AcDbTrace
 10
167.9999999999992
 20
200
 30
0
 11
161.7499999999992
 21
198.9592883555679
 31
0
 12
161.7499999999992
 22
201.0407116444321
 32
0
 13
161.7499999999992
 23
201.0407116444321
 33
0
  0
MTEXT
  5
D6
100
AcDbEntity
  8
baseplate_40mm
  6
CONTINUOUS
 62
    0
370
   -2
100
AcDbMText
 10
43.9999999999996
 20
204.6875
 30
0
 40
6.25
 41
25.34722222222222
 71
    5
 72
    1
  1
248,00
  7
STANDARD
210
0
220
0
230
1
 50
0
 73
    2
 44
1
  0
LINE
  5
D7
100
AcDbEntity
  8
baseplate_40mm
  6
ByBlock
 62
    0
370
   -2
100
AcDbLine
 10
-80
 20
61.5625
 11
-80
 21
203.125
  0
LINE
  5
D8
100
AcDbEntity
  8
baseplate_40mm
  6
ByBlock
 62
    0
370
   -2
100
AcDbLine
 10
167.9999999999992
 20
76.84453230275388
 11
167.9999999999992
 21
203.125
  0
ENDBLK
  5
7A
330
78
100
AcDbEntity
  8
0
100
AcDbBlockEnd
  0
BLOCK
  5
7C
330
7B
100
AcDbEntity
  8
0
100
AcDbBlockBegin
  2
*D9
 70
    1
 10
0
 20
0
  3
*D9
  1

  0
LINE
  5
D9
100
AcDbEntity
  8
baseplate_30mm
  6
ByBlock
 62
    0
370
   -2
100
AcDbLine
 10
80.72649730810363
 20
-6.516660498395159
 11
109.7264973081036
 21
-6.516660498395162
  0
SOLID
  5
DA
100
AcDbEntity
  8
baseplate_30mm
  6
ByBlock
 62
    0
370
   -2
100
AcDbTrace
 10
93.22649730810363
 20
-6.516660498395161
 30
0
 11
86.97649730810363
 21
-7.557372142827262
 31
0
 12
86.97649730810363
 22
-5.475948853963059
 32
0
 13
86.97649730810363
 23
-5.475948853963059
 33
0
  0
SOLID
  5
DB
100
AcDbEntity
  8
baseplate_30mm
  6
ByBlock
 62
    0
370
   -2
100
AcDbTrace
 10
97.22649730810363
 20
-6.516660498395161
 30
0
 11
103.4764973081036
 21
-5.47594885396306
 31
0
 12
103.4764973081036
 22
-7.557372142827263
 32
0
 13
103.4764973081036
 23
-7.557372142827263
 33
0
  0
MTEXT
  5
DC
100
AcDbEntity
  8
baseplate_30mm
  6
CONTINUOUS
 62
    0
370
   -2
100
AcDbMText
 10
106.6014973081036
 20
-1.829160498395161
 30
0
 40
6.25
 41
15.625
 71
    5
 72
    1
  1
4,00
  7
STANDARD
210
0
220
0
230
1
 50
0
 73
    2
 44
1
  0
ENDBLK
  5
7D
330
7B
100
AcDbEntity
  8
0
100
AcDbBlockEnd
  0
BLOCK
  5
7F
330
7E
100
AcDbEntity
  8
0
100
AcDbBlockBegin
  2
*D18
 70
    1
 10
0
 20
0
  3
*D18
  1

  0
LINE
  5
DD
100
AcDbEntity
  8
baseplate_40mm
  6
ByBlock
 62
    0
370
   -2
100
AcDbLine
 10
128.19279273188
 20
108.2301377985627
 11
136.2708487540104
 21
94.23853434184413
  0
LINE
  5
DE
100
AcDbEntity
  8
baseplate_40mm
  6
ByBlock
 62
    0
370
   -2
100
AcDbLine
 10
136.8530467697245
 20
113.2301377985625
 11
144.931102791855
 21
99.23853434184392
  0
LINE
  5
DF
100
AcDbEntity
  8
baseplate_40mm
  6
ByBlock
 62
    0
370
   -2
100
AcDbLine
 10
123.8830312067049
 20
90.69486372867082
 11
154.1939203391607
 21
108.19486372867
  0
SOLID
  5
E0
100
AcDbEntity
  8
baseplate_40mm
  6
ByBlock
 62
    0
370
   -2
100
AcDbTrace
 10
134.7083487540105
 20
96.94486372867054
 30
0
 11
129.8160458025737
 21
92.91858100657819
 31
0
 12
128.7753341581416
 22
94.72114645076317
 32
0
 13
128.7753341581416
 23
94.72114645076317
 33
0
  0
SOLID
  5
E1
100
AcDbEntity
  8
baseplate_40mm
  6
ByBlock
 62
    0
370
   -2
100
AcDbTrace
 10
143.368602791855
 20
101.9448637286703
 30
0
 11
148.2609057432918
 21
105.9711464507627
 31
0
 12
149.3016173877239
 22
104.1685810065777
 32
0
 13
149.3016173877239
 23
104.1685810065777
 33
0
  0
MTEXT
  5
E2
100
AcDbEntity
  8
baseplate_40mm
  6
CONTINUOUS
 62
    0
370
   -2
100
AcDbMText
 10
150.3466540131461
 20
111.3863022533541
 30
0
 40
6.25
 41
18.40277777777778
 71
    5
 72
    1
  1
10,00
  7
STANDARD
210
0
220
0
230
1
 50
29.99999999999849
 73
    2
 44
1
  0
ENDBLK
  5
80
330
7E
100
AcDbEntity
  8
0
100
AcDbBlockEnd
  0
BLOCK
  5
82
330
81
100
AcDbEntity
  8
0
100
AcDbBlockBegin
  2
*D4
 70
    1
 10
0
 20
0
  3
*D4
  1

  0
LINE
  5
E3
100
AcDbEntity
  8
baseplate_30mm
  6
ByBlock
 62
    0
370
   -2
100
AcDbLine
 10
170
 20
75.28203230275388
 11
170
 21
167.080725103905
  0
SOLID
  5
E4
100
AcDbEntity
  8
baseplate_30mm
  6
ByBlock
 62
    0
370
   -2
100
AcDbTrace
 10
170
 20
75.28203230275388
 30
0
 11
168.9592883555679
 21
81.53203230275388
 31
0
 12
171.0407116444321
 22
81.53203230275388
 32
0
 13
171.0407116444321
 23
81.53203230275388
 33
0
  0
SOLID
  5
E5
100
AcDbEntity
  8
baseplate_30mm
  6
ByBlock
 62
    0
370
   -2
100
AcDbTrace
 10
170
 20
167.080725103905
 30
0
 11
171.0407116444321
 21
160.830725103905
 31
0
 12
168.9592883555679
 22
160.830725103905
 32
0
 13
168.9592883555679
 23
160.830725103905
 33
0
  0
MTEXT
  5
E6
100
AcDbEntity
  8
baseplate_30mm
  6
CONTINUOUS
 62
    0
370
   -2
100
AcDbMText
 10
174.6875
 20
121.1813787033294
 30
0
 40
6.25
 41
18.40277777777816
 71
    5
 72
    1
  1
91,80
  7
STANDARD
210
0
220
0
230
1
 50
270
 73
    2
 44
1
  0
LINE
  5
E7
100
AcDbEntity
  8
baseplate_30mm
  6
ByBlock
 62
    0
370
   -2
100
AcDbLine
 10
155.5624999999991
 20
75.28203230275388
 11
173.125
 21
75.28203230275388
  0
LINE
  5
E8
100
AcDbEntity
  8
baseplate_30mm
  6
ByBlock
 62
    0
370
   -2
100
AcDbLine
 10
102.5625000000006
 20
167.080725103905
 11
173.125
 21
167.080725103905
  0
ENDBLK
  5
83
330
81
100
AcDbEntity
  8
0
100
AcDbBlockEnd
  0
BLOCK
  5
85
330
84
100
AcDbEntity
  8
0
100
AcDbBlockBegin
  2
*D3
 70
    1
 10
0
 20
0
  3
*D3
  1

  0
LINE
  5
E9
100
AcDbEntity
  8
baseplate_30mm
  6
ByBlock
 62
    0
370
   -2
100
AcDbLine
 10
170
 20
-16.51666049839515
 11
170
 21
75.28203230275388
  0
SOLID
  5
EA
100
AcDbEntity
  8
baseplate_30mm
  6
ByBlock
 62
    0
370
   -2
100
AcDbTrace
 10
170
 20
-16.51666049839515
 30
0
 11
168.9592883555679
 21
-10.26666049839515
 31
0
 12
171.0407116444321
 22
-10.26666049839515
 32
0
 13
171.0407116444321
 23
-10.26666049839515
 33
0
  0
SOLID
  5
EB
100
AcDbEntity
  8
baseplate_30mm
  6
ByBlock
 62
    0
370
   -2
100
AcDbTrace
 10
170
 20
75.28203230275388
 30
0
 11
171.0407116444321
 21
69.03203230275388
 31
0
 12
168.9592883555679
 22
69.03203230275388
 32
0
 13
168.9592883555679
 23
69.03203230275388
 33
0
  0
MTEXT
  5
EC
100
AcDbEntity
  8
baseplate_30mm
  6
CONTINUOUS
 62
    0
370
   -2
100
AcDbMText
 10
174.6875
 20
29.38268590217936
 30
0
 40
6.25
 41
18.40277777777816
 71
    5
 72
    1
  1
91,80
  7
STANDARD
210
0
220
0
230
1
 50
270
 73
    2
 44
1
  0
LINE
  5
ED
100
AcDbEntity
  8
baseplate_30mm
  6
ByBlock
 62
    0
370
   -2
100
AcDbLine
 10
102.5624999999999
 20
-16.51666049839515
 11
173.125
 21
-16.51666049839515
  0
LINE
  5
EE
100
AcDbEntity
  8
baseplate_30mm
  6
ByBlock
 62
    0
370
   -2
100
AcDbLine
 10
155.5624999999991
 20
75.28203230275388
 11
173.125
 21
75.28203230275388
  0
ENDBLK
  5
86
330
84
100
AcDbEntity
  8
0
100
AcDbBlockEnd
  0
BLOCK
  5
88
330
87
100
AcDbEntity
  8
0
100
AcDbBlockBegin
  2
*D8
 70
    1
 10
0
 20
0
  3
*D8
  1

  0
LINE
  5
EF
100
AcDbEntity
  8
baseplate_30mm
  6
ByBlock
 62
    0
370
   -2
100
AcDbLine
 10
-29.72649730810376
 20
-6.516660498395386
 11
-0.7264973081037596
 21
-6.51666049839539
  0
SOLID
  5
F0
100
AcDbEntity
  8
baseplate_30mm
  6
ByBlock
 62
    0
370
   -2
100
AcDbTrace
 10
-17.22649730810376
 20
-6.516660498395388
 30
0
 11
-23.47649730810376
 21
-7.557372142827489
 31
0
 12
-23.47649730810376
 22
-5.475948853963287
 32
0
 13
-23.47649730810376
 23
-5.475948853963287
 33
0
  0
SOLID
  5
F1
100
AcDbEntity
  8
baseplate_30mm
  6
ByBlock
 62
    0
370
   -2
100
AcDbTrace
 10
-13.22649730810376
 20
-6.516660498395388
 30
0
 11
-6.97649730810376
 21
-5.475948853963287
 31
0
 12
-6.97649730810376
 22
-7.55737214282749
 32
0
 13
-6.97649730810376
 23
-7.55737214282749
 33
0
  0
MTEXT
  5
F2
100
AcDbEntity
  8
baseplate_30mm
  6
CONTINUOUS
 62
    0
370
   -2
100
AcDbMText
 10
-3.85149730810376
 20
-1.829160498395388
 30
0
 40
6.25
 41
15.625
 71
    5
 72
    1
  1
4,00
  7
STANDARD
210
0
220
0
230
1
 50
0
 73
    2
 44
1
  0
ENDBLK
  5
89
330
87
100
AcDbEntity
  8
0
100
AcDbBlockEnd
  0
BLOCK
  5
8B
330
8A
100
AcDbEntity
  8
0
100
AcDbBlockBegin
  2
*D17
 70
    1
 10
0
 20
0
  3
*D17
  1

  0
LINE
  5
F3
100
AcDbEntity
  8
baseplate_40mm
  6
ByBlock
 62
    0
370
   -2
100
AcDbLine
 10
137.4249614631377
 20
115.3645524919757
 11
160.2300314403843
 21
128.5310657822269
  0
LINE
  5
F4
100
AcDbEntity
  8
baseplate_40mm
  6
ByBlock
 62
    0
370
   -2
100
AcDbLine
 10
127.4249614631379
 20
132.6850605676647
 11
150.2300314403845
 21
145.8515738579159
  0
LINE
  5
F5
100
AcDbEntity
  8
baseplate_40mm
  6
ByBlock
 62
    0
370
   -2
100
AcDbLine
 10
157.5237020535579
 20
126.9685657822269
 11
147.5237020535581
 21
144.2890738579159
  0
SOLID
  5
F6
100
AcDbEntity
  8
baseplate_40mm
  6
ByBlock
 62
    0
370
   -2
100
AcDbTrace
 10
157.5237020535579
 20
126.9685657822269
 30
0
 11
153.4974193314655
 21
131.8608687336637
 31
0
 12
155.2999847756505
 22
132.9015803780957
 32
0
 13
155.2999847756505
 23
132.9015803780957
 33
0
  0
SOLID
  5
F7
100
AcDbEntity
  8
baseplate_40mm
  6
ByBlock
 62
    0
370
   -2
100
AcDbTrace
 10
147.5237020535581
 20
144.2890738579159
 30
0
 11
151.5499847756506
 21
139.3967709064792
 31
0
 12
149.7474193314656
 22
138.3560592620471
 32
0
 13
149.7474193314656
 23
138.3560592620471
 33
0
  0
MTEXT
  5
F8
100
AcDbEntity
  8
baseplate_40mm
  6
CONTINUOUS
 62
    0
370
   -2
100
AcDbMText
 10
156.5831961337977
 20
137.9725698200713
 30
0
 40
6.25
 41
19.79166666666666
 71
    5
 72
    1
  1
20,00
  7
STANDARD
210
0
220
0
230
1
 50
299.9999999999992
 73
    2
 44
1
  0
ENDBLK
  5
8C
330
8A
100
AcDbEntity
  8
0
100
AcDbBlockEnd
  0
ENDSEC
  0
SECTION
  2
ENTITIES
  0
LINE
  5
F9
100
AcDbEntity
  8
0
  6
ByLayer
 62
  256
370
   -1
100
AcDbLine
 10
16
 20
0
 11
88.00000000000001
 21
124.7076581449592
  0
LINE
  5
FA
100
AcDbEntity
  8
0
  6
ByLayer
 62
  256
370
   -1
100
AcDbLine
 10
0
 20
0
 11
72.00000000000001
 21
124.7076581449592
  0
LINE
  5
FB
100
AcDbEntity
  8
0
  6
ByLayer
 62
  256
370
   -1
100
AcDbLine
 10
-32.00000000000006
 20
55.42562584220404
 11
15.99999999999974
 21
138.5640646055098
  0
LINE
  5
FC
100
AcDbEntity
  8
0
  6
ByLayer
 62
  256
370
   -1
100
AcDbLine
 10
0
 20
0
 11
-32.00000000000001
 21
55.42562584220411
  0
LINE
  5
FD
100
AcDbEntity
  8
0
  6
ByLayer
 62
  256
370
   -1
100
AcDbLine
 10
-23.99999999999998
 20
41.56921938165303
 11
31.99999999999983
 21
138.5640646055098
  0
LINE
  5
FE
100
AcDbEntity
  8
0
  6
ByLayer
 62
  256
370
   -1
100
AcDbLine
 10
-15.99999999999999
 20
27.71281292110203
 11
47.99999999999981
 21
138.5640646055098
  0
LINE
  5
FF
100
AcDbEntity
  8
0
  6
ByLayer
 62
  256
370
   -1
100
AcDbLine
 10
-7.999984740352773
 20
13.85641527071245
 11
64.00001017309796
 21
138.5640646055098
  0
LINE
  5
100
100
AcDbEntity
  8
0
  6
ByLayer
 62
  256
370
   -1
100
AcDbLine
 10
32
 20
0
 11
95.99999999999986
 21
110.8512516844078
  0
LINE
  5
101
100
AcDbEntity
  8
0
  6
ByLayer
 62
  256
370
   -1
100
AcDbLine
 10
48
 20
-7.837739514543061e-15
 11
103.9999999999997
 21
96.99484522385652
  0
LINE
  5
102
100
AcDbEntity
  8
0
  6
ByLayer
 62
  256
370
   -1
100
AcDbLine
 10
64
 20
1.959434878635765e-15
 11
111.9999999999995
 21
83.13843876330522
  0
LINE
  5
103
100
AcDbEntity
  8
0
  6
ByLayer
 62
  256
370
   -1
100
AcDbLine
 10
80
 20
0
 11
119.9999999999993
 21
69.28203230275389
  0
LINE
  5
104
100
AcDbEntity
  8
0
  6
ByLayer
 62
  256
370
   -1
100
AcDbLine
 10
119.9999999999993
 20
69.28203230275389
 11
80.0000000000006
 21
138.5640646055098
  0
CIRCLE
  5
105
100
AcDbEntity
  8
0
  6
ByLayer
 62
  256
370
   -1
100
AcDbCircle
 10
15.99999999999974
 20
138.5640646055098
 40
8
  0
CIRCLE
  5
106
100
AcDbEntity
  8
0
  6
ByLayer
 62
  256
370
   -1
100
AcDbCircle
 10
-32.00000000000001
 20
55.42562584220411
 40
8
  0
CIRCLE
  5
107
100
AcDbEntity
  8
0
  6
ByLayer
 62
  256
370
   -1
100
AcDbCircle
 10
0
 20
0
 40
8
  0
LINE
  5
108
100
AcDbEntity
  8
0
  6
ByLayer
 62
  256
370
   -1
100
AcDbLine
 10
7.999999999999773
 20
138.5640646055098
 11
80.0000000000006
 21
138.5640646055098
  0
CIRCLE
  5
109
100
AcDbEntity
  8
0
  6
ByLayer
 62
  256
370
   -1
100
AcDbCircle
 10
80
 20
0
 40
8
  0
CIRCLE
  5
10A
100
AcDbEntity
  8
0
  6
ByLayer
 62
  256
370
   -1
100
AcDbCircle
 10
119.9999999999993
 20
69.28203230275389
 40
8
  0
CIRCLE
  5
10B
100
AcDbEntity
  8
0
  6
ByLayer
 62
  256
370
   -1
100
AcDbCircle
 10
88.0000000000002
 20
124.7076581449589
 40
8
  0
CIRCLE
  5
10C
100
AcDbEntity
  8
0
  6
ByLayer
 62
  256
370
   -1
100
AcDbCircle
 10
64.00001017309796
 20
138.5640646055098
 40
8
  0
LINE
  5
10D
100
AcDbEntity
  8
0
  6
ByLayer
 62
  256
370
   -1
100
AcDbLine
 10
-8
 20
0
 11
87.99999999999986
 21
7.105427357601002e-15
  0
LINE
  5
10E
100
AcDbEntity
  8
0
  6
ByLayer
 62
  256
370
   -1
100
AcDbLine
 10
-40.00000000000001
 20
55.42562584220411
 11
7.999999999999741
 21
138.5640646055098
  0
LINE
  5
10F
100
AcDbEntity
  8
0
  6
ByLayer
 62
  256
370
   -1
100
AcDbLine
 10
96.00000000000021
 20
124.7076581449589
 11
127.9999999999988
 21
69.28203230275389
  0
LINE
  5
110
100
AcDbEntity
  8
0
  6
ByLayer
 62
  256
370
   -1
100
AcDbLine
 10
127.9999999999993
 20
69.28203230275389
 11
88
 21
-1.959434878635765e-15
  0
LINE
  5
111
100
AcDbEntity
  8
0
  6
ByLayer
 62
  256
370
   -1
100
AcDbLine
 10
-8
 20
0
 11
-40.00000000000001
 21
55.42562584220411
  0
LINE
  5
112
100
AcDbEntity
  8
0
  6
ByLayer
 62
  256
370
   -1
100
AcDbLine
 10
-39.99999999999991
 20
55.42562584220405
 11
120
 21
55.42562584220406
  0
LINE
  5
113
100
AcDbEntity
  8
0
  6
ByLayer
 62
  256
370
   -1
100
AcDbLine
 10
-16.00000508654907
 20
13.85641527071245
 11
96.00000508654907
 21
13.85641527071245
  0
LINE
  5
114
100
AcDbEntity
  8
0
  6
ByLayer
 62
  256
370
   -1
100
AcDbLine
 10
-23.99999999999999
 20
27.71281292110203
 11
104
 21
27.71281292110203
  0
LINE
  5
115
100
AcDbEntity
  8
0
  6
ByLayer
 62
  256
370
   -1
100
AcDbLine
 10
-31.99999999999998
 20
41.56921938165303
 11
112
 21
41.56921938165303
  0
LINE
  5
116
100
AcDbEntity
  8
0
  6
ByLayer
 62
  256
370
   -1
100
AcDbLine
 10
-32.00000000000072
 20
69.28203230275389
 11
127.9999999999988
 21
69.28203230275389
  0
LINE
  5
117
100
AcDbEntity
  8
0
  6
ByLayer
 62
  256
370
   -1
100
AcDbLine
 10
-24.00000000000003
 20
83.13843876330611
 11
119.9999999999986
 21
83.13843876330611
  0
LINE
  5
118
100
AcDbEntity
  8
0
  6
ByLayer
 62
  256
370
   -1
100
AcDbLine
 10
-15.99999489870135
 20
96.99485405956563
 11
111.9999948987004
 21
96.99485405956563
  0
LINE
  5
119
100
AcDbEntity
  8
0
  6
ByLayer
 62
  256
370
   -1
100
AcDbLine
 10
-8.000000000000171
 20
110.8512516844079
 11
103.9999999999997
 21
110.8512516844079
  0
LINE
  5
11A
100
AcDbEntity
  8
0
  6
ByLayer
 62
  256
370
   -1
100
AcDbLine
 10
-1.84741111297626e-13
 20
124.7076581449589
 11
96.00000000000021
 21
124.7076581449589
  0
LINE
  5
11B
100
AcDbEntity
  8
0
  6
ByLayer
 62
  256
370
   -1
100
AcDbLine
 10
7.999999999999773
 20
138.5640646055098
 11
7.999999999999774
 21
150.5640646055098
  0
LINE
  5
11C
100
AcDbEntity
  8
0
  6
ByLayer
 62
  256
370
   -1
100
AcDbLine
 10
-1.84741111297626e-13
 20
124.7076581449589
 11
-1.840063232181376e-13
 21
136.7076581449589
  0
LINE
  5
11D
100
AcDbEntity
  8
0
  6
ByLayer
 62
  256
370
   -1
100
AcDbLine
 10
-8.000000000000171
 20
110.8512516844079
 11
-8.000000000000171
 21
122.8512516844079
  0
LINE
  5
11E
100
AcDbEntity
  8
0
  6
ByLayer
 62
  256
370
   -1
100
AcDbLine
 10
-15.99999489870135
 20
96.99485405956563
 11
-15.99999489870135
 21
108.9948540595656
  0
LINE
  5
11F
100
AcDbEntity
  8
0
  6
ByLayer
 62
  256
370
   -1
100
AcDbLine
 10
-24.00000000000003
 20
83.13843876330611
 11
-24.00000000000003
 21
95.13843876330611
  0
LINE
  5
120
100
AcDbEntity
  8
0
  6
ByLayer
 62
  256
370
   -1
100
AcDbLine
 10
-32.00000000000072
 20
69.28203230275389
 11
-32.00000000000072
 21
81.28203230275389
  0
LINE
  5
121
100
AcDbEntity
  8
0
  6
ByLayer
 62
  256
370
   -1
100
AcDbLine
 10
-39.99999999999991
 20
55.42562584220405
 11
-39.99999999999991
 21
67.42562584220406
  0
LINE
  5
122
100
AcDbEntity
  8
0
  6
ByLayer
 62
  256
370
   -1
100
AcDbLine
 10
-31.99999999999998
 20
41.56921938165303
 11
-31.99999999999998
 21
53.56921938165303
  0
LINE
  5
123
100
AcDbEntity
  8
0
  6
ByLayer
 62
  256
370
   -1
100
AcDbLine
 10
-23.99999999999999
 20
27.71281292110203
 11
-23.99999999999999
 21
39.71281292110203
  0
LINE
  5
124
100
AcDbEntity
  8
0
  6
ByLayer
 62
  256
370
   -1
100
AcDbLine
 10
-16.00000508654907
 20
13.85641527071245
 11
-16.00000508654907
 21
25.85641527071245
  0
LINE
  5
125
100
AcDbEntity
  8
0
  6
ByLayer
 62
  256
370
   -1
100
AcDbLine
 10
-8
 20
9.797174393178826e-16
 11
-7.999999999999999
 21
12
  0
LINE
  5
126
100
AcDbEntity
  8
0
  6
ByLayer
 62
  256
370
   -1
100
AcDbLine
 10
88
 20
0
 11
88
 21
12
  0
LINE
  5
127
100
AcDbEntity
  8
0
  6
ByLayer
 62
  256
370
   -1
100
AcDbLine
 10
96.00000508654907
 20
13.85641527071245
 11
96.00000508654907
 21
25.85641527071245
  0
LINE
  5
128
100
AcDbEntity
  8
0
  6
ByLayer
 62
  256
370
   -1
100
AcDbLine
 10
104
 20
27.71281292110203
 11
104
 21
39.71281292110203
  0
LINE
  5
129
100
AcDbEntity
  8
0
  6
ByLayer
 62
  256
370
   -1
100
AcDbLine
 10
112
 20
41.56921938165303
 11
112
 21
53.56921938165303
  0
LINE
  5
12A
100
AcDbEntity
  8
0
  6
ByLayer
 62
  256
370
   -1
100
AcDbLine
 10
120
 20
55.42562584220406
 11
120
 21
67.42562584220406
  0
LINE
  5
12B
100
AcDbEntity
  8
0
  6
ByLayer
 62
  256
370
   -1
100
AcDbLine
 10
127.9999999999993
 20
69.28203230275389
 11
127.9999999999993
 21
81.28203230275389
  0
LINE
  5
12C
100
AcDbEntity
  8
0
  6
ByLayer
 62
  256
370
   -1
100
AcDbLine
 10
119.9999999999986
 20
83.13843876330611
 11
119.9999999999986
 21
95.13843876330611
  0
LINE
  5
12D
100
AcDbEntity
  8
0
  6
ByLayer
 62
  256
370
   -1
100
AcDbLine
 10
111.9999948987004
 20
96.99485405956563
 11
111.9999948987004
 21
108.9948540595656
  0
LINE
  5
12E
100
AcDbEntity
  8
0
  6
ByLayer
 62
  256
370
   -1
100
AcDbLine
 10
103.9999999999997
 20
110.8512516844079
 11
103.9999999999997
 21
122.8512516844079
  0
LINE
  5
12F
100
AcDbEntity
  8
0
  6
ByLayer
 62
  256
370
   -1
100
AcDbLine
 10
96.00000000000021
 20
124.7076581449589
 11
96.00000000000021
 21
136.7076581449589
  0
LINE
  5
130
100
AcDbEntity
  8
0
  6
ByLayer
 62
  256
370
   -1
100
AcDbLine
 10
72.00001017309796
 20
138.5640646055098
 11
72.00001017309796
 21
150.5640646055098
  0
LINE
  5
131
100
AcDbEntity
  8
strips
  6
ByLayer
 62
  256
370
   -1
100
AcDbLine
 10
7.999999999999773
 20
138.5640646055098
 11
72.00001017309796
 21
138.5640646055098
  0
LINE
  5
132
100
AcDbEntity
  8
strips
  6
ByLayer
 62
  256
370
   -1
100
AcDbLine
 10
72.00001017309796
 20
138.5640646055098
 11
72.00001017309796
 21
150.5640646055098
  0
LINE
  5
133
100
AcDbEntity
  8
strips
  6
ByLayer
 62
  256
370
   -1
100
AcDbLine
 10
72.00001017309796
 20
150.5640646055098
 11
7.999999999999773
 21
150.5640646055098
  0
LINE
  5
134
100
AcDbEntity
  8
strips
  6
ByLayer
 62
  256
370
   -1
100
AcDbLine
 10
7.999999999999773
 20
150.5640646055098
 11
7.999999999999773
 21
138.5640646055098
  0
LINE
  5
135
100
AcDbEntity
  8
strips
  6
ByLayer
 62
  256
370
   -1
100
AcDbLine
 10
96.00000000000021
 20
136.7076581449589
 11
-1.84741111297626e-13
 21
136.7076581449589
  0
LINE
  5
136
100
AcDbEntity
  8
strips
  6
ByLayer
 62
  256
370
   -1
100
AcDbLine
 10
-1.84741111297626e-13
 20
136.7076581449589
 11
-1.84741111297626e-13
 21
124.7076581449589
  0
LINE
  5
137
100
AcDbEntity
  8
strips
  6
ByLayer
 62
  256
370
   -1
100
AcDbLine
 10
-1.84741111297626e-13
 20
124.7076581449589
 11
96.00000000000021
 21
124.7076581449589
  0
LINE
  5
138
100
AcDbEntity
  8
strips
  6
ByLayer
 62
  256
370
   -1
100
AcDbLine
 10
96.00000000000021
 20
124.7076581449589
 11
96.00000000000021
 21
136.7076581449589
  0
LINE
  5
139
100
AcDbEntity
  8
strips
  6
ByLayer
 62
  256
370
   -1
100
AcDbLine
 10
-8.000000000000171
 20
110.8512516844079
 11
103.9999999999997
 21
110.8512516844079
  0
LINE
  5
13A
100
AcDbEntity
  8
strips
  6
ByLayer
 62
  256
370
   -1
100
AcDbLine
 10
103.9999999999997
 20
110.8512516844079
 11
103.9999999999997
 21
122.8512516844079
  0
LINE
  5
13B
100
AcDbEntity
  8
strips
  6
ByLayer
 62
  256
370
   -1
100
AcDbLine
 10
103.9999999999997
 20
122.8512516844079
 11
-8.000000000000171
 21
122.8512516844079
  0
LINE
  5
13C
100
AcDbEntity
  8
strips
  6
ByLayer
 62
  256
370
   -1
100
AcDbLine
 10
-8.000000000000171
 20
122.8512516844079
 11
-8.000000000000171
 21
110.8512516844079
  0
LINE
  5
13D
100
AcDbEntity
  8
strips
  6
ByLayer
 62
  256
370
   -1
100
AcDbLine
 10
111.9999948987004
 20
108.9948540595656
 11
-15.99999489870135
 21
108.9948540595656
  0
LINE
  5
13E
100
AcDbEntity
  8
strips
  6
ByLayer
 62
  256
370
   -1
100
AcDbLine
 10
-15.99999489870135
 20
108.9948540595656
 11
-15.99999489870135
 21
96.99485405956563
  0
LINE
  5
13F
100
AcDbEntity
  8
strips
  6
ByLayer
 62
  256
370
   -1
100
AcDbLine
 10
-15.99999489870135
 20
96.99485405956563
 11
111.9999948987004
 21
96.99485405956563
  0
LINE
  5
140
100
AcDbEntity
  8
strips
  6
ByLayer
 62
  256
370
   -1
100
AcDbLine
 10
111.9999948987004
 20
96.99485405956563
 11
111.9999948987004
 21
108.9948540595656
  0
LINE
  5
141
100
AcDbEntity
  8
strips
  6
ByLayer
 62
  256
370
   -1
100
AcDbLine
 10
-24.00000000000003
 20
95.13843876330611
 11
119.9999999999986
 21
95.13843876330611
  0
LINE
  5
142
100
AcDbEntity
  8
strips
  6
ByLayer
 62
  256
370
   -1
100
AcDbLine
 10
119.9999999999986
 20
95.13843876330611
 11
119.9999999999986
 21
83.13843876330611
  0
LINE
  5
143
100
AcDbEntity
  8
strips
  6
ByLayer
 62
  256
370
   -1
100
AcDbLine
 10
119.9999999999986
 20
83.13843876330611
 11
-24.00000000000003
 21
83.13843876330611
  0
LINE
  5
144
100
AcDbEntity
  8
strips
  6
ByLayer
 62
  256
370
   -1
100
AcDbLine
 10
-24.00000000000003
 20
83.13843876330611
 11
-24.00000000000003
 21
95.13843876330611
  0
LINE
  5
145
100
AcDbEntity
  8
strips
  6
ByLayer
 62
  256
370
   -1
100
AcDbLine
 10
127.9999999999993
 20
81.28203230275389
 11
-32.00000000000072
 21
81.28203230275389
  0
LINE
  5
146
100
AcDbEntity
  8
strips
  6
ByLayer
 62
  256
370
   -1
100
AcDbLine
 10
-32.00000000000072
 20
81.28203230275389
 11
-32.00000000000072
 21
69.28203230275389
  0
LINE
  5
147
100
AcDbEntity
  8
strips
  6
ByLayer
 62
  256
370
   -1
100
AcDbLine
 10
-32.00000000000072
 20
69.28203230275389
 11
127.9999999999993
 21
69.28203230275389
  0
LINE
  5
148
100
AcDbEntity
  8
strips
  6
ByLayer
 62
  256
370
   -1
100
AcDbLine
 10
127.9999999999993
 20
69.28203230275389
 11
127.9999999999993
 21
81.28203230275389
  0
LINE
  5
149
100
AcDbEntity
  8
strips
  6
ByLayer
 62
  256
370
   -1
100
AcDbLine
 10
-39.99999999999991
 20
67.42562584220406
 11
120
 21
67.42562584220406
  0
LINE
  5
14A
100
AcDbEntity
  8
strips
  6
ByLayer
 62
  256
370
   -1
100
AcDbLine
 10
120
 20
67.42562584220406
 11
120
 21
55.42562584220406
  0
LINE
  5
14B
100
AcDbEntity
  8
strips
  6
ByLayer
 62
  256
370
   -1
100
AcDbLine
 10
120
 20
55.42562584220406
 11
-39.99999999999991
 21
55.42562584220406
  0
LINE
  5
14C
100
AcDbEntity
  8
strips
  6
ByLayer
 62
  256
370
   -1
100
AcDbLine
 10
-39.99999999999991
 20
55.42562584220406
 11
-39.99999999999991
 21
67.42562584220406
  0
LINE
  5
14D
100
AcDbEntity
  8
strips
  6
ByLayer
 62
  256
370
   -1
100
AcDbLine
 10
112
 20
53.56921938165303
 11
-31.99999999999998
 21
53.56921938165303
  0
LINE
  5
14E
100
AcDbEntity
  8
strips
  6
ByLayer
 62
  256
370
   -1
100
AcDbLine
 10
-31.99999999999998
 20
53.56921938165303
 11
-31.99999999999998
 21
41.56921938165303
  0
LINE
  5
14F
100
AcDbEntity
  8
strips
  6
ByLayer
 62
  256
370
   -1
100
AcDbLine
 10
-31.99999999999998
 20
41.56921938165303
 11
112
 21
41.56921938165303
  0
LINE
  5
150
100
AcDbEntity
  8
strips
  6
ByLayer
 62
  256
370
   -1
100
AcDbLine
 10
112
 20
41.56921938165303
 11
112
 21
53.56921938165303
  0
LINE
  5
151
100
AcDbEntity
  8
strips
  6
ByLayer
 62
  256
370
   -1
100
AcDbLine
 10
-23.99999999999999
 20
39.71281292110203
 11
104
 21
39.71281292110203
  0
LINE
  5
152
100
AcDbEntity
  8
strips
  6
ByLayer
 62
  256
370
   -1
100
AcDbLine
 10
104
 20
39.71281292110203
 11
104
 21
27.71281292110203
  0
LINE
  5
153
100
AcDbEntity
  8
strips
  6
ByLayer
 62
  256
370
   -1
100
AcDbLine
 10
104
 20
27.71281292110203
 11
-23.99999999999999
 21
27.71281292110203
  0
LINE
  5
154
100
AcDbEntity
  8
strips
  6
ByLayer
 62
  256
370
   -1
100
AcDbLine
 10
-23.99999999999999
 20
27.71281292110203
 11
-23.99999999999999
 21
39.71281292110203
  0
LINE
  5
155
100
AcDbEntity
  8
strips
  6
ByLayer
 62
  256
370
   -1
100
AcDbLine
 10
96.00000508654907
 20
25.85641527071245
 11
-16.00000508654907
 21
25.85641527071245
  0
LINE
  5
156
100
AcDbEntity
  8
strips
  6
ByLayer
 62
  256
370
   -1
100
AcDbLine
 10
-16.00000508654907
 20
25.85641527071245
 11
-16.00000508654907
 21
13.85641527071245
  0
LINE
  5
157
100
AcDbEntity
  8
strips
  6
ByLayer
 62
  256
370
   -1
100
AcDbLine
 10
-16.00000508654907
 20
13.85641527071245
 11
96.00000508654907
 21
13.85641527071245
  0
LINE
  5
158
100
AcDbEntity
  8
strips
  6
ByLayer
 62
  256
370
   -1
100
AcDbLine
 10
96.00000508654907
 20
13.85641527071245
 11
96.00000508654907
 21
25.85641527071245
  0
LINE
  5
159
100
AcDbEntity
  8
strips
  6
ByLayer
 62
  256
370
   -1
100
AcDbLine
 10
-7.999999999999999
 20
12
 11
87.99999999999986
 21
12
  0
LINE
  5
15A
100
AcDbEntity
  8
strips
  6
ByLayer
 62
  256
370
   -1
100
AcDbLine
 10
87.99999999999986
 20
12
 11
87.99999999999986
 21
7.105427357601002e-15
  0
LINE
  5
15B
100
AcDbEntity
  8
strips
  6
ByLayer
 62
  256
370
   -1
100
AcDbLine
 10
87.99999999999986
 20
7.105427357601002e-15
 11
-7.999999999999999
 21
7.105427357601002e-15
  0
LINE
  5
15C
100
AcDbEntity
  8
strips
  6
ByLayer
 62
  256
370
   -1
100
AcDbLine
 10
-7.999999999999999
 20
7.105427357601002e-15
 11
-7.999999999999999
 21
12
  0
LINE
  5
15D
100
AcDbEntity
  8
strips
  6
ByLayer
 62
  256
370
   -1
100
AcDbLine
 10
8
 20
3.186557600329472e-15
 11
8
 21
12
  0
LINE
  5
15E
100
AcDbEntity
  8
strips
  6
ByLayer
 62
  256
370
   -1
100
AcDbLine
 10
24
 20
-7.323121569420587e-16
 11
24
 21
11.99999999999999
  0
LINE
  5
15F
100
AcDbEntity
  8
strips
  6
ByLayer
 62
  256
370
   -1
100
AcDbLine
 10
40
 20
-4.651181914213588e-15
 11
40
 21
11.99999999999999
  0
LINE
  5
160
100
AcDbEntity
  8
strips
  6
ByLayer
 62
  256
370
   -1
100
AcDbLine
 10
56
 20
-8.570051671485119e-15
 11
56
 21
11.99999999999998
  0
LINE
  5
161
100
AcDbEntity
  8
strips
  6
ByLayer
 62
  256
370
   -1
100
AcDbLine
 10
72
 20
-1.248892142875665e-14
 11
72
 21
11.99999999999998
  0
LINE
  5
162
100
AcDbEntity
  8
strips
  6
ByLayer
 62
  256
370
   -1
100
AcDbLine
 10
-5.086549069943658e-06
 20
25.85641527071245
 11
-5.086549069943658e-06
 21
13.85641527071245
  0
LINE
  5
163
100
AcDbEntity
  8
strips
  6
ByLayer
 62
  256
370
   -1
100
AcDbLine
 10
15.99999491345093
 20
25.85641527071244
 11
15.99999491345093
 21
13.85641527071244
  0
LINE
  5
164
100
AcDbEntity
  8
strips
  6
ByLayer
 62
  256
370
   -1
100
AcDbLine
 10
31.99999491345093
 20
25.85641527071244
 11
31.99999491345093
 21
13.85641527071244
  0
LINE
  5
165
100
AcDbEntity
  8
strips
  6
ByLayer
 62
  256
370
   -1
100
AcDbLine
 10
47.99999491345093
 20
25.85641527071244
 11
47.99999491345093
 21
13.85641527071243
  0
LINE
  5
166
100
AcDbEntity
  8
strips
  6
ByLayer
 62
  256
370
   -1
100
AcDbLine
 10
63.99999491345093
 20
25.85641527071243
 11
63.99999491345093
 21
13.85641527071243
  0
LINE
  5
167
100
AcDbEntity
  8
strips
  6
ByLayer
 62
  256
370
   -1
100
AcDbLine
 10
79.99999491345093
 20
25.85641527071243
 11
79.99999491345093
 21
13.85641527071243
  0
LINE
  5
168
100
AcDbEntity
  8
strips
  6
ByLayer
 62
  256
370
   -1
100
AcDbLine
 10
-7.999999999999989
 20
27.71281292110203
 11
-7.999999999999989
 21
39.71281292110202
  0
LINE
  5
169
100
AcDbEntity
  8
strips
  6
ByLayer
 62
  256
370
   -1
100
AcDbLine
 10
8.000000000000011
 20
27.71281292110202
 11
8.000000000000011
 21
39.71281292110202
  0
LINE
  5
16A
100
AcDbEntity
  8
strips
  6
ByLayer
 62
  256
370
   -1
100
AcDbLine
 10
24.00000000000001
 20
27.71281292110202
 11
24.00000000000001
 21
39.71281292110201
  0
LINE
  5
16B
100
AcDbEntity
  8
strips
  6
ByLayer
 62
  256
370
   -1
100
AcDbLine
 10
40.00000000000001
 20
27.71281292110202
 11
40.00000000000001
 21
39.71281292110201
  0
LINE
  5
16C
100
AcDbEntity
  8
strips
  6
ByLayer
 62
  256
370
   -1
100
AcDbLine
 10
56.00000000000001
 20
27.71281292110201
 11
56.00000000000001
 21
39.71281292110201
  0
LINE
  5
16D
100
AcDbEntity
  8
strips
  6
ByLayer
 62
  256
370
   -1
100
AcDbLine
 10
72.00000000000001
 20
27.71281292110201
 11
72.00000000000001
 21
39.71281292110201
  0
LINE
  5
16E
100
AcDbEntity
  8
strips
  6
ByLayer
 62
  256
370
   -1
100
AcDbLine
 10
88.00000000000001
 20
27.712812921102
 11
88.00000000000001
 21
39.712812921102
  0
LINE
  5
16F
100
AcDbEntity
  8
strips
  6
ByLayer
 62
  256
370
   -1
100
AcDbLine
 10
-15.99999999999998
 20
53.56921938165302
 11
-15.99999999999998
 21
41.56921938165302
  0
LINE
  5
170
100
AcDbEntity
  8
strips
  6
ByLayer
 62
  256
370
   -1
100
AcDbLine
 10
2.131628207280301e-14
 20
53.56921938165302
 11
2.131628207280301e-14
 21
41.56921938165302
  0
LINE
  5
171
100
AcDbEntity
  8
strips
  6
ByLayer
 62
  256
370
   -1
100
AcDbLine
 10
16.00000000000002
 20
53.56921938165301
 11
16.00000000000002
 21
41.56921938165301
  0
LINE
  5
172
100
AcDbEntity
  8
strips
  6
ByLayer
 62
  256
370
   -1
100
AcDbLine
 10
32.00000000000002
 20
53.56921938165301
 11
32.00000000000002
 21
41.56921938165301
  0
LINE
  5
173
100
AcDbEntity
  8
strips
  6
ByLayer
 62
  256
370
   -1
100
AcDbLine
 10
48.00000000000002
 20
53.56921938165301
 11
48.00000000000002
 21
41.56921938165301
  0
LINE
  5
174
100
AcDbEntity
  8
strips
  6
ByLayer
 62
  256
370
   -1
100
AcDbLine
 10
64.00000000000003
 20
53.56921938165301
 11
64.00000000000003
 21
41.56921938165301
  0
LINE
  5
175
100
AcDbEntity
  8
strips
  6
ByLayer
 62
  256
370
   -1
100
AcDbLine
 10
80.00000000000003
 20
53.569219381653
 11
80.00000000000003
 21
41.569219381653
  0
LINE
  5
176
100
AcDbEntity
  8
strips
  6
ByLayer
 62
  256
370
   -1
100
AcDbLine
 10
96.00000000000003
 20
53.569219381653
 11
96.00000000000003
 21
41.569219381653
  0
LINE
  5
177
100
AcDbEntity
  8
strips
  6
ByLayer
 62
  256
370
   -1
100
AcDbLine
 10
-23.99999999999991
 20
55.42562584220406
 11
-23.99999999999991
 21
67.42562584220406
  0
LINE
  5
178
100
AcDbEntity
  8
strips
  6
ByLayer
 62
  256
370
   -1
100
AcDbLine
 10
-7.999999999999908
 20
55.42562584220406
 11
-7.999999999999908
 21
67.42562584220404
  0
LINE
  5
179
100
AcDbEntity
  8
strips
  6
ByLayer
 62
  256
370
   -1
100
AcDbLine
 10
8.000000000000092
 20
55.42562584220405
 11
8.000000000000092
 21
67.42562584220404
  0
LINE
  5
17A
100
AcDbEntity
  8
strips
  6
ByLayer
 62
  256
370
   -1
100
AcDbLine
 10
24.00000000000009
 20
55.42562584220405
 11
24.00000000000009
 21
67.42562584220404
  0
LINE
  5
17B
100
AcDbEntity
  8
strips
  6
ByLayer
 62
  256
370
   -1
100
AcDbLine
 10
40.00000000000009
 20
55.42562584220404
 11
40.00000000000009
 21
67.42562584220404
  0
LINE
  5
17C
100
AcDbEntity
  8
strips
  6
ByLayer
 62
  256
370
   -1
100
AcDbLine
 10
56.00000000000009
 20
55.42562584220404
 11
56.00000000000009
 21
67.42562584220403
  0
LINE
  5
17D
100
AcDbEntity
  8
strips
  6
ByLayer
 62
  256
370
   -1
100
AcDbLine
 10
72.00000000000009
 20
55.42562584220403
 11
72.00000000000009
 21
67.42562584220403
  0
LINE
  5
17E
100
AcDbEntity
  8
strips
  6
ByLayer
 62
  256
370
   -1
100
AcDbLine
 10
88.00000000000009
 20
55.42562584220403
 11
88.00000000000009
 21
67.42562584220403
  0
LINE
  5
17F
100
AcDbEntity
  8
strips
  6
ByLayer
 62
  256
370
   -1
100
AcDbLine
 10
104.0000000000001
 20
55.42562584220403
 11
104.0000000000001
 21
67.42562584220403
  0
LINE
  5
180
100
AcDbEntity
  8
strips
  6
ByLayer
 62
  256
370
   -1
100
AcDbLine
 10
-16.00000000000072
 20
81.28203230275389
 11
-16.00000000000072
 21
69.28203230275389
  0
LINE
  5
181
100
AcDbEntity
  8
strips
  6
ByLayer
 62
  256
370
   -1
100
AcDbLine
 10
-7.176481631177012e-13
 20
81.28203230275388
 11
-7.176481631177012e-13
 21
69.28203230275388
  0
LINE
  5
182
100
AcDbEntity
  8
strips
  6
ByLayer
 62
  256
370
   -1
100
AcDbLine
 10
15.99999999999928
 20
81.28203230275388
 11
15.99999999999928
 21
69.28203230275388
  0
LINE
  5
183
100
AcDbEntity
  8
strips
  6
ByLayer
 62
  256
370
   -1
100
AcDbLine
 10
31.99999999999928
 20
81.28203230275388
 11
31.99999999999928
 21
69.28203230275388
  0
LINE
  5
184
100
AcDbEntity
  8
strips
  6
ByLayer
 62
  256
370
   -1
100
AcDbLine
 10
47.99999999999928
 20
81.28203230275388
 11
47.99999999999928
 21
69.28203230275388
  0
LINE
  5
185
100
AcDbEntity
  8
strips
  6
ByLayer
 62
  256
370
   -1
100
AcDbLine
 10
63.99999999999928
 20
81.28203230275386
 11
63.99999999999928
 21
69.28203230275386
  0
LINE
  5
186
100
AcDbEntity
  8
strips
  6
ByLayer
 62
  256
370
   -1
100
AcDbLine
 10
79.99999999999929
 20
81.28203230275386
 11
79.99999999999929
 21
69.28203230275386
  0
LINE
  5
187
100
AcDbEntity
  8
strips
  6
ByLayer
 62
  256
370
   -1
100
AcDbLine
 10
95.99999999999929
 20
81.28203230275386
 11
95.99999999999929
 21
69.28203230275386
  0
LINE
  5
188
100
AcDbEntity
  8
strips
  6
ByLayer
 62
  256
370
   -1
100
AcDbLine
 10
111.9999999999993
 20
81.28203230275386
 11
111.9999999999993
 21
69.28203230275386
  0
LINE
  5
189
100
AcDbEntity
  8
strips
  6
ByLayer
 62
  256
370
   -1
100
AcDbLine
 10
-8.000000000000028
 20
83.13843876330611
 11
-8.000000000000028
 21
95.13843876330611
  0
LINE
  5
18A
100
AcDbEntity
  8
strips
  6
ByLayer
 62
  256
370
   -1
100
AcDbLine
 10
7.999999999999972
 20
83.1384387633061
 11
7.999999999999972
 21
95.1384387633061
  0
LINE
  5
18B
100
AcDbEntity
  8
strips
  6
ByLayer
 62
  256
370
   -1
100
AcDbLine
 10
23.99999999999997
 20
83.1384387633061
 11
23.99999999999997
 21
95.1384387633061
  0
LINE
  5
18C
100
AcDbEntity
  8
strips
  6
ByLayer
 62
  256
370
   -1
100
AcDbLine
 10
39.99999999999997
 20
83.1384387633061
 11
39.99999999999997
 21
95.1384387633061
  0
LINE
  5
18D
100
AcDbEntity
  8
strips
  6
ByLayer
 62
  256
370
   -1
100
AcDbLine
 10
55.99999999999997
 20
83.1384387633061
 11
55.99999999999997
 21
95.1384387633061
  0
LINE
  5
18E
100
AcDbEntity
  8
strips
  6
ByLayer
 62
  256
370
   -1
100
AcDbLine
 10
71.99999999999997
 20
83.13843876330608
 11
71.99999999999997
 21
95.13843876330608
  0
LINE
  5
18F
100
AcDbEntity
  8
strips
  6
ByLayer
 62
  256
370
   -1
100
AcDbLine
 10
87.99999999999997
 20
83.13843876330608
 11
87.99999999999997
 21
95.13843876330608
  0
LINE
  5
190
100
AcDbEntity
  8
strips
  6
ByLayer
 62
  256
370
   -1
100
AcDbLine
 10
104
 20
83.13843876330608
 11
104
 21
95.13843876330608
  0
LINE
  5
191
100
AcDbEntity
  8
strips
  6
ByLayer
 62
  256
370
   -1
100
AcDbLine
 10
7.999999999999829
 20
122.8512516844079
 11
7.999999999999829
 21
110.8512516844079
  0
LINE
  5
192
100
AcDbEntity
  8
strips
  6
ByLayer
 62
  256
370
   -1
100
AcDbLine
 10
23.99999999999983
 20
122.8512516844079
 11
23.99999999999983
 21
110.8512516844079
  0
LINE
  5
193
100
AcDbEntity
  8
strips
  6
ByLayer
 62
  256
370
   -1
100
AcDbLine
 10
39.99999999999983
 20
122.8512516844079
 11
39.99999999999983
 21
110.8512516844079
  0
LINE
  5
194
100
AcDbEntity
  8
strips
  6
ByLayer
 62
  256
370
   -1
100
AcDbLine
 10
55.99999999999983
 20
122.8512516844079
 11
55.99999999999983
 21
110.8512516844079
  0
LINE
  5
195
100
AcDbEntity
  8
strips
  6
ByLayer
 62
  256
370
   -1
100
AcDbLine
 10
71.99999999999983
 20
122.8512516844079
 11
71.99999999999983
 21
110.8512516844079
  0
LINE
  5
196
100
AcDbEntity
  8
strips
  6
ByLayer
 62
  256
370
   -1
100
AcDbLine
 10
87.99999999999983
 20
122.8512516844079
 11
87.99999999999983
 21
110.8512516844079
  0
LINE
  5
197
100
AcDbEntity
  8
strips
  6
ByLayer
 62
  256
370
   -1
100
AcDbLine
 10
103.9999999999998
 20
122.8512516844079
 11
103.9999999999998
 21
110.8512516844079
  0
LINE
  5
198
100
AcDbEntity
  8
strips
  6
ByLayer
 62
  256
370
   -1
100
AcDbLine
 10
15.99999999999982
 20
136.7076581449589
 11
15.99999999999982
 21
124.7076581449589
  0
LINE
  5
199
100
AcDbEntity
  8
strips
  6
ByLayer
 62
  256
370
   -1
100
AcDbLine
 10
31.99999999999982
 20
136.7076581449589
 11
31.99999999999982
 21
124.7076581449589
  0
LINE
  5
19A
100
AcDbEntity
  8
strips
  6
ByLayer
 62
  256
370
   -1
100
AcDbLine
 10
47.99999999999982
 20
136.7076581449589
 11
47.99999999999982
 21
124.7076581449589
  0
LINE
  5
19B
100
AcDbEntity
  8
strips
  6
ByLayer
 62
  256
370
   -1
100
AcDbLine
 10
63.99999999999982
 20
136.7076581449589
 11
63.99999999999982
 21
124.7076581449589
  0
LINE
  5
19C
100
AcDbEntity
  8
strips
  6
ByLayer
 62
  256
370
   -1
100
AcDbLine
 10
79.99999999999982
 20
136.7076581449589
 11
79.99999999999982
 21
124.7076581449589
  0
LINE
  5
19D
100
AcDbEntity
  8
strips
  6
ByLayer
 62
  256
370
   -1
100
AcDbLine
 10
95.99999999999982
 20
136.7076581449589
 11
95.99999999999982
 21
124.7076581449589
  0
LINE
  5
19E
100
AcDbEntity
  8
strips
  6
ByLayer
 62
  256
370
   -1
100
AcDbLine
 10
23.99999999999977
 20
150.5640646055098
 11
23.99999999999977
 21
138.5640646055098
  0
LINE
  5
19F
100
AcDbEntity
  8
strips
  6
ByLayer
 62
  256
370
   -1
100
AcDbLine
 10
39.99999999999977
 20
150.5640646055098
 11
39.99999999999977
 21
138.5640646055098
  0
LINE
  5
1A0
100
AcDbEntity
  8
strips
  6
ByLayer
 62
  256
370
   -1
100
AcDbLine
 10
55.99999999999977
 20
150.5640646055098
 11
55.99999999999977
 21
138.5640646055098
  0
LINE
  5
1A1
100
AcDbEntity
  8
strips
  6
ByLayer
 62
  256
370
   -1
100
AcDbLine
 10
5.101298649279329e-06
 20
108.9948540595656
 11
5.101298649279329e-06
 21
96.99485405956563
  0
LINE
  5
1A2
100
AcDbEntity
  8
strips
  6
ByLayer
 62
  256
370
   -1
100
AcDbLine
 10
16.00000510129865
 20
108.9948540595656
 11
16.00000510129865
 21
96.99485405956561
  0
LINE
  5
1A3
100
AcDbEntity
  8
strips
  6
ByLayer
 62
  256
370
   -1
100
AcDbLine
 10
32.00000510129865
 20
108.9948540595656
 11
32.00000510129865
 21
96.99485405956561
  0
LINE
  5
1A4
100
AcDbEntity
  8
strips
  6
ByLayer
 62
  256
370
   -1
100
AcDbLine
 10
48.00000510129865
 20
108.9948540595656
 11
48.00000510129865
 21
96.99485405956561
  0
LINE
  5
1A5
100
AcDbEntity
  8
strips
  6
ByLayer
 62
  256
370
   -1
100
AcDbLine
 10
64.00000510129865
 20
108.9948540595656
 11
64.00000510129865
 21
96.99485405956561
  0
LINE
  5
1A6
100
AcDbEntity
  8
strips
  6
ByLayer
 62
  256
370
   -1
100
AcDbLine
 10
80.00000510129865
 20
108.9948540595656
 11
80.00000510129865
 21
96.9948540595656
  0
LINE
  5
1A7
100
AcDbEntity
  8
strips
  6
ByLayer
 62
  256
370
   -1
100
AcDbLine
 10
96.00000510129865
 20
108.9948540595656
 11
96.00000510129865
 21
96.9948540595656
  0
LINE
  5
1A8
100
AcDbEntity
  8
plate_construction
  6
ByLayer
 62
  256
370
   -1
100
AcDbLine
 10
-39.99999999999991
 20
61.42562584220406
 11
7.999999999999774
 21
144.5640646055098
  0
LINE
  5
1A9
100
AcDbEntity
  8
plate_construction
  6
ByLayer
 62
  256
370
   -1
100
AcDbLine
 10
7.999999999999773
 20
144.5640646055098
 11
7.999999999999774
 21
164.5640646055098
  0
LINE
  5
1AA
100
AcDbEntity
  8
plate_construction
  6
ByLayer
 62
  256
370
   -1
100
AcDbLine
 10
7.999999999999773
 20
144.5640646055098
 11
88.00000000000063
 21
144.5640646055098
  0
LINE
  5
1AB
100
AcDbEntity
  8
plate_construction
  6
ByLayer
 62
  256
370
   -1
100
AcDbLine
 10
127.9999999999993
 20
75.28203230275389
 11
88.00000000000063
 21
144.5640646055098
  0
CIRCLE
  5
1AC
100
AcDbEntity
  8
plate_construction
  6
ByLayer
 62
  256
370
   -1
100
AcDbCircle
 10
88.00000000000065
 20
144.5640646055098
 40
26
  0
CIRCLE
  5
1AD
100
AcDbEntity
  8
plate_construction
  6
ByLayer
 62
  256
370
   -1
100
AcDbCircle
 10
7.999999999999773
 20
144.5640646055098
 40
26
  0
CIRCLE
  5
1AE
100
AcDbEntity
  8
plate_construction
  6
ByLayer
 62
  256
370
   -1
100
AcDbCircle
 10
-39.99999999999991
 20
61.42562584220406
 40
26
  0
CIRCLE
  5
1AF
100
AcDbEntity
  8
plate_construction
  6
ByLayer
 62
  256
370
   -1
100
AcDbCircle
 10
127.9999999999993
 20
75.28203230275389
 40
26
  0
CIRCLE
  5
1B0
100
AcDbEntity
  8
plate_construction
  6
ByLayer
 62
  256
370
   -1
100
AcDbCircle
 10
87.99999999999986
 20
6.000000000000234
 40
26
  0
CIRCLE
  5
1B1
100
AcDbEntity
  8
plate_construction
  6
ByLayer
 62
  256
370
   -1
100
AcDbCircle
 10
-8
 20
6
 40
26
  0
LINE
  5
1B2
100
AcDbEntity
  8
baseplate_30mm
  6
ByLayer
 62
  256
370
   -1
100
AcDbLine
 10
-65.99999999999994
 20
61.42562584220407
 11
-5.000000000000226
 21
167.0807251039052
  0
LINE
  5
1B3
100
AcDbEntity
  8
baseplate_30mm
  6
ByLayer
 62
  256
370
   -1
100
AcDbLine
 10
-5.000000000000226
 20
167.0807251039052
 11
101.0000000000006
 21
167.080725103905
  0
LINE
  5
1B4
100
AcDbEntity
  8
baseplate_30mm
  6
ByLayer
 62
  256
370
   -1
100
AcDbLine
 10
101.0000000000006
 20
167.080725103905
 11
153.9999999999991
 21
75.28203230275389
  0
LINE
  5
1B5
100
AcDbEntity
  8
baseplate_30mm
  6
ByLayer
 62
  256
370
   -1
100
AcDbLine
 10
153.9999999999991
 20
75.28203230275389
 11
100.9999999999999
 21
-16.51666049839515
  0
LINE
  5
1B6
100
AcDbEntity
  8
baseplate_30mm
  6
ByLayer
 62
  256
370
   -1
100
AcDbLine
 10
100.9999999999999
 20
-16.51666049839515
 11
-21.00000000000001
 21
-16.5166604983954
  0
LINE
  5
1B7
100
AcDbEntity
  8
baseplate_30mm
  6
ByLayer
 62
  256
370
   -1
100
AcDbLine
 10
-21.00000000000001
 20
-16.5166604983954
 11
-65.99999999999994
 21
61.42562584220407
  0
LINE
  5
1B8
100
AcDbEntity
  8
plate_construction
  6
ByLayer
 62
  256
370
   -1
100
AcDbLine
 10
-5.000000000000244
 20
157.0807251039052
 11
101.0000000000006
 21
157.080725103905
  0
LINE
  5
1B9
100
AcDbEntity
  8
plate_construction
  6
ByLayer
 62
  256
370
   -1
100
AcDbLine
 10
92.33974596215613
 20
162.0807251039051
 11
145.3397459621546
 21
70.28203230275402
  0
CIRCLE
  5
1BA
100
AcDbEntity
  8
plate_construction
  6
ByLayer
 62
  256
370
   -1
100
AcDbCircle
 10
95.22649730810429
 20
157.0807251039049
 40
7
  0
LINE
  5
1BB
100
AcDbEntity
  8
plate_construction
  6
ByLayer
 62
  256
370
   -1
100
AcDbLine
 10
-57.33974596215555
 20
56.42562584220407
 11
3.660254037844163
 21
162.0807251039052
  0
LINE
  5
1BC
100
AcDbEntity
  8
plate_construction
  6
ByLayer
 62
  256
370
   -1
100
AcDbLine
 10
145.3397459621547
 20
80.28203230275389
 11
92.33974596215552
 21
-11.51666049839515
  0
LINE
  5
1BD
100
AcDbEntity
  8
plate_construction
  6
ByLayer
 62
  256
370
   -1
100
AcDbLine
 10
100.9999999999999
 20
-6.516660498395151
 11
-21.00000000000003
 21
-6.5166604983954
  0
LINE
  5
1BE
100
AcDbEntity
  8
plate_construction
  6
ByLayer
 62
  256
370
   -1
100
AcDbLine
 10
-12.33974596215562
 20
-11.5166604983954
 11
-57.33974596215555
 21
66.42562584220407
  0
CIRCLE
  5
1BF
100
AcDbEntity
  8
baseplate_30mm
  6
ByLayer
 62
  256
370
   -1
100
AcDbCircle
 10
95.22649730810429
 20
157.0807251039049
 40
2
  0
CIRCLE
  5
1C0
100
AcDbEntity
  8
baseplate_30mm
  6
ByLayer
 62
  256
370
   -1
100
AcDbCircle
 10
142.4529946162067
 20
75.28203230275389
 40
2
  0
CIRCLE
  5
1C1
100
AcDbEntity
  8
baseplate_30mm
  6
ByLayer
 62
  256
370
   -1
100
AcDbCircle
 10
95.22649730810363
 20
-6.516660498395161
 40
2
  0
CIRCLE
  5
1C2
100
AcDbEntity
  8
baseplate_30mm
  6
ByLayer
 62
  256
370
   -1
100
AcDbCircle
 10
-15.22649730810376
 20
-6.516660498395388
 40
2
  0
CIRCLE
  5
1C3
100
AcDbEntity
  8
baseplate_30mm
  6
ByLayer
 62
  256
370
   -1
100
AcDbCircle
 10
-54.45299461620743
 20
61.42562584220407
 40
2
  0
CIRCLE
  5
1C4
100
AcDbEntity
  8
baseplate_30mm
  6
ByLayer
 62
  256
370
   -1
100
AcDbCircle
 10
0.7735026918960415
 20
157.0807251039052
 40
2
  0
DIMENSION
  5
1C5
100
AcDbEntity
  8
baseplate_30mm
  6
ByLayer
 62
  256
370
   -1
100
AcDbDimension
  2
*D1
 10
-90
 20
167.0807251039053
 30
0
 11
-85.3125
 21
75.28203230275493
 31
0
 70
   32
 71
    5
  3
Standard
 53
0
210
0
220
0
230
1
100
AcDbAlignedDimension
 13
-21.00000000000001
 23
-16.5166604983954
 33
0
 14
-5.000000000000199
 24
167.0807251039053
 34
0
 50
90
100
AcDbRotatedDimension
  0
DIMENSION
  5
1C6
100
AcDbEntity
  8
baseplate_30mm
  6
ByLayer
 62
  256
370
   -1
100
AcDbDimension
  2
*D2
 10
-70
 20
61.42562584220407
 30
0
 11
-65.3125
 21
22.45448267190433
 31
0
 70
   32
 71
    5
  3
Standard
 53
0
210
0
220
0
230
1
100
AcDbAlignedDimension
 13
-21.00000000000001
 23
-16.5166604983954
 33
0
 14
-65.99999999999994
 24
61.42562584220407
 34
0
 50
90
100
AcDbRotatedDimension
  0
DIMENSION
  5
1C7
100
AcDbEntity
  8
baseplate_30mm
  6
ByLayer
 62
  256
370
   -1
100
AcDbDimension
  2
*D3
 10
170
 20
75.28203230275388
 30
0
 11
174.6875
 21
29.38268590217936
 31
0
 70
   32
 71
    5
  3
Standard
 53
0
210
0
220
0
230
1
100
AcDbAlignedDimension
 13
100.9999999999999
 23
-16.51666049839515
 33
0
 14
153.9999999999991
 24
75.28203230275388
 34
0
 50
90
100
AcDbRotatedDimension
  0
DIMENSION
  5
1C8
100
AcDbEntity
  8
baseplate_30mm
  6
ByLayer
 62
  256
370
   -1
100
AcDbDimension
  2
*D4
 10
170
 20
167.080725103905
 30
0
 11
174.6875
 21
121.1813787033294
 31
0
 70
   32
 71
    5
  3
Standard
 53
0
210
0
220
0
230
1
100
AcDbAlignedDimension
 13
153.9999999999991
 23
75.28203230275388
 33
0
 14
101.0000000000006
 24
167.080725103905
 34
0
 50
90
100
AcDbRotatedDimension
  0
DIMENSION
  5
1C9
100
AcDbEntity
  8
baseplate_30mm
  6
ByLayer
 62
  256
370
   -1
100
AcDbDimension
  2
*D5
 10
-70
 20
167.0807251039053
 30
0
 11
-65.3125
 21
114.2531754730547
 31
0
 70
   32
 71
    5
  3
Standard
 53
0
210
0
220
0
230
1
100
AcDbAlignedDimension
 13
-65.99999999999994
 23
61.42562584220407
 33
0
 14
-5.000000000000199
 24
167.0807251039053
 34
0
 50
90
100
AcDbRotatedDimension
  0
DIMENSION
  5
1CA
100
AcDbEntity
  8
baseplate_30mm
  6
ByLayer
 62
  256
370
   -1
100
AcDbDimension
  2
*D6
 10
-1.226497308103959
 20
157.0807251039052
 30
0
 11
0.7735026918960418
 21
161.7682251039052
 31
0
 70
   35
 71
    5
  3
Standard
 53
0
210
0
220
0
230
1
100
AcDbDiametricDimension
 15
2.773502691896041
 25
157.0807251039052
 35
0
 40
0
  0
DIMENSION
  5
1CB
100
AcDbEntity
  8
baseplate_30mm
  6
ByLayer
 62
  256
370
   -1
100
AcDbDimension
  2
*D7
 10
93.22649730810429
 20
157.0807251039049
 30
0
 11
95.22649730810429
 21
161.7682251039049
 31
0
 70
   35
 71
    5
  3
Standard
 53
0
210
0
220
0
230
1
100
AcDbDiametricDimension
 15
97.22649730810429
 25
157.0807251039049
 35
0
 40
0
  0
DIMENSION
  5
1CC
100
AcDbEntity
  8
baseplate_30mm
  6
ByLayer
 62
  256
370
   -1
100
AcDbDimension
  2
*D8
 10
-17.22649730810376
 20
-6.516660498395388
 30
0
 11
-15.22649730810376
 21
-1.829160498395388
 31
0
 70
   35
 71
    5
  3
Standard
 53
0
210
0
220
0
230
1
100
AcDbDiametricDimension
 15
-13.22649730810376
 25
-6.516660498395388
 35
0
 40
0
  0
DIMENSION
  5
1CD
100
AcDbEntity
  8
baseplate_30mm
  6
ByLayer
 62
  256
370
   -1
100
AcDbDimension
  2
*D9
 10
93.22649730810363
 20
-6.516660498395161
 30
0
 11
95.22649730810363
 21
-1.829160498395161
 31
0
 70
   35
 71
    5
  3
Standard
 53
0
210
0
220
0
230
1
100
AcDbDiametricDimension
 15
97.22649730810363
 25
-6.516660498395161
 35
0
 40
0
  0
DIMENSION
  5
1CE
100
AcDbEntity
  8
baseplate_30mm
  6
ByLayer
 62
  256
370
   -1
100
AcDbDimension
  2
*D10
 10
0.7735026918960415
 20
-6.516660498395161
 30
0
 11
-0.2264973081062036
 21
-1.829160498395161
 31
0
 70
   33
 71
    5
  3
Standard
 53
0
210
0
220
0
230
1
100
AcDbAlignedDimension
 13
-1.226497308108449
 23
-6.516660498395161
 33
0
 14
0.7735026918960415
 24
-6.516660498395161
 34
0
  0
DIMENSION
  5
1CF
100
AcDbEntity
  8
baseplate_30mm
  6
ByLayer
 62
  256
370
   -1
100
AcDbDimension
  2
*D11
 10
-54.45299461620743
 20
59.42562584220407
 30
0
 11
-49.76549461620743
 21
61.42562584220407
 31
0
 70
   35
 71
    5
  3
Standard
 53
0
210
0
220
0
230
1
100
AcDbDiametricDimension
 15
-54.45299461620743
 25
63.42562584220407
 35
0
 40
0
  0
DIMENSION
  5
1D0
100
AcDbEntity
  8
baseplate_30mm
  6
ByLayer
 62
  256
370
   -1
100
AcDbDimension
  2
*D12
 10
142.4529946162067
 20
77.28203230275389
 30
0
 11
137.7654946162067
 21
75.28203230275389
 31
0
 70
   35
 71
    5
  3
Standard
 53
0
210
0
220
0
230
1
100
AcDbDiametricDimension
 15
142.4529946162067
 25
73.28203230275389
 35
0
 40
0
  0
CIRCLE
  5
1D1
100
AcDbEntity
  8
plate_construction
  6
ByLayer
 62
  256
370
   -1
100
AcDbCircle
 10
88.00000000000063
 20
144.5640646055098
 40
40
  0
CIRCLE
  5
1D2
100
AcDbEntity
  8
plate_construction
  6
ByLayer
 62
  256
370
   -1
100
AcDbCircle
 10
127.9999999999993
 20
75.28203230275389
 40
40
  0
CIRCLE
  5
1D3
100
AcDbEntity
  8
plate_construction
  6
ByLayer
 62
  256
370
   -1
100
AcDbCircle
 10
87.99999999999986
 20
6.000000000000004
 40
40
  0
CIRCLE
  5
1D4
100
AcDbEntity
  8
plate_construction
  6
ByLayer
 62
  256
370
   -1
100
AcDbCircle
 10
-7.999999999999999
 20
6.000000000000004
 40
40
  0
CIRCLE
  5
1D5
100
AcDbEntity
  8
plate_construction
  6
ByLayer
 62
  256
370
   -1
100
AcDbCircle
 10
-39.99999999999991
 20
61.42562584220406
 40
40
  0
CIRCLE
  5
1D6
100
AcDbEntity
  8
plate_construction
  6
ByLayer
 62
  256
370
   -1
100
AcDbCircle
 10
7.999999999999774
 20
144.5640646055098
 40
40
  0
LINE
  5
1D7
100
AcDbEntity
  8
plate_construction
  6
ByLayer
 62
  256
370
   -1
100
AcDbLine
 10
88.00000000000065
 20
144.5640646055098
 11
108.0000000000007
 21
179.2050807568874
  0
LINE
  5
1D8
100
AcDbEntity
  8
plate_construction
  6
ByLayer
 62
  256
370
   -1
100
AcDbLine
 10
7.999999999999773
 20
144.5640646055098
 11
-12.00000000000025
 21
179.2050807568874
  0
LINE
  5
1D9
100
AcDbEntity
  8
plate_construction
  6
ByLayer
 62
  256
370
   -1
100
AcDbLine
 10
-39.99999999999991
 20
61.42562584220406
 11
-79.99999999999986
 21
61.42562584220406
  0
LINE
  5
1DA
100
AcDbEntity
  8
plate_construction
  6
ByLayer
 62
  256
370
   -1
100
AcDbLine
 10
-28
 20
-28.64101615137754
 11
2.000000000000004
 21
23.32050807568877
  0
LINE
  5
1DB
100
AcDbEntity
  8
plate_construction
  6
ByLayer
 62
  256
370
   -1
100
AcDbLine
 10
108
 20
-28.64101615137746
 11
78
 21
23.32050807568877
  0
LINE
  5
1DC
100
AcDbEntity
  8
plate_construction
  6
ByLayer
 62
  256
370
   -1
100
AcDbLine
 10
127.9999999999993
 20
75.28203230275389
 11
167.9999999999992
 21
75.28203230275388
  0
LINE
  5
1DD
100
AcDbEntity
  8
baseplate_40mm
  6
ByLayer
 62
  256
370
   -1
100
AcDbLine
 10
-12.00000000000025
 20
179.2050807568874
 11
108.0000000000007
 21
179.2050807568874
  0
LINE
  5
1DE
100
AcDbEntity
  8
baseplate_40mm
  6
ByLayer
 62
  256
370
   -1
100
AcDbLine
 10
108.0000000000007
 20
179.2050807568874
 11
167.9999999999992
 21
75.28203230275388
  0
LINE
  5
1DF
100
AcDbEntity
  8
baseplate_40mm
  6
ByLayer
 62
  256
370
   -1
100
AcDbLine
 10
167.9999999999992
 20
75.28203230275388
 11
108
 21
-28.64101615137746
  0
LINE
  5
1E0
100
AcDbEntity
  8
baseplate_40mm
  6
ByLayer
 62
  256
370
   -1
100
AcDbLine
 10
108
 20
-28.64101615137746
 11
-28
 21
-28.64101615137754
  0
LINE
  5
1E1
100
AcDbEntity
  8
baseplate_40mm
  6
ByLayer
 62
  256
370
   -1
100
AcDbLine
 10
-28
 20
-28.64101615137754
 11
-79.99999999999986
 21
61.42562584220406
  0
LINE
  5
1E2
100
AcDbEntity
  8
baseplate_40mm
  6
ByLayer
 62
  256
370
   -1
100
AcDbLine
 10
-79.99999999999986
 20
61.42562584220406
 11
-12.00000000000025
 21
179.2050807568874
  0
CIRCLE
  5
1E3
100
AcDbEntity
  8
baseplate_40mm
  6
ByLayer
 62
  256
370
   -1
100
AcDbCircle
 10
102.2264973081043
 20
169.2050807568874
 40
2
  0
CIRCLE
  5
1E4
100
AcDbEntity
  8
baseplate_40mm
  6
ByLayer
 62
  256
370
   -1
100
AcDbCircle
 10
156.4529946162067
 20
75.28203230275395
 40
2
  0
CIRCLE
  5
1E5
100
AcDbEntity
  8
baseplate_40mm
  6
ByLayer
 62
  256
370
   -1
100
AcDbCircle
 10
102.2264973081037
 20
-18.64101615137747
 40
2
  0
CIRCLE
  5
1E6
100
AcDbEntity
  8
baseplate_40mm
  6
ByLayer
 62
  256
370
   -1
100
AcDbCircle
 10
-22.22649730810375
 20
-18.64101615137753
 40
2
  0
CIRCLE
  5
1E7
100
AcDbEntity
  8
baseplate_40mm
  6
ByLayer
 62
  256
370
   -1
100
AcDbCircle
 10
-68.45299461620735
 20
61.42562584220406
 40
2
  0
CIRCLE
  5
1E8
100
AcDbEntity
  8
baseplate_40mm
  6
ByLayer
 62
  256
370
   -1
100
AcDbCircle
 10
-6.226497308103973
 20
169.2050807568874
 40
2
  0
DIMENSION
  5
1E9
100
AcDbEntity
  8
baseplate_40mm
  6
ByLayer
 62
  256
370
   -1
100
AcDbDimension
  2
*D13
 10
-100
 20
-28.64101615137753
 30
0
 11
-104.6875
 21
75.28203230275496
 31
0
 70
   32
 71
    5
  3
Standard
 53
0
210
0
220
0
230
1
100
AcDbAlignedDimension
 13
-12.00000000000024
 23
179.2050807568874
 33
0
 14
-28
 24
-28.64101615137753
 34
0
 50
90
100
AcDbRotatedDimension
  0
DIMENSION
  5
1EA
100
AcDbEntity
  8
baseplate_40mm
  6
ByLayer
 62
  256
370
   -1
100
AcDbDimension
  2
*D14
 10
167.9999999999992
 20
200
 30
0
 11
43.9999999999996
 21
204.6875
 31
0
 70
   32
 71
    5
  3
Standard
 53
0
210
0
220
0
230
1
100
AcDbAlignedDimension
 13
-80
 23
60
 33
0
 14
167.9999999999992
 24
75.28203230275388
 34
0
100
AcDbRotatedDimension
  0
LINE
  5
1EB
100
AcDbEntity
  8
plate_construction
  6
ByLayer
 62
  256
370
   -1
100
AcDbLine
 10
-68.45299461620735
 20
61.42562584220406
 11
-70.45299461620723
 21
61.42562584220406
  0
LINE
  5
1EC
100
AcDbEntity
  8
plate_construction
  6
ByLayer
 62
  256
370
   -1
100
AcDbLine
 10
-70.45299461620723
 20
61.42562584220406
 11
-68.45299461620735
 21
61.42562584220406
  0
LINE
  5
1ED
100
AcDbEntity
  8
plate_construction
  6
ByLayer
 62
  256
370
   -1
100
AcDbLine
 10
-68.45299461620735
 20
61.42562584220406
 11
-6.226497308103973
 21
169.2050807568874
  0
LINE
  5
1EE
100
AcDbEntity
  8
plate_construction
  6
ByLayer
 62
  256
370
   -1
100
AcDbLine
 10
131.0717967697246
 20
123.2435565298202
 11
99.33974596215546
 21
104.9230484541321
  0
LINE
  5
1EF
100
AcDbEntity
  8
plate_construction
  6
ByLayer
 62
  256
370
   -1
100
AcDbLine
 10
92.41154273188063
 20
170.2050807568876
 11
152.4115427318791
 21
66.2820323027541
  0
LINE
  5
1F0
100
AcDbEntity
  8
plate_construction
  6
ByLayer
 62
  256
370
   -1
100
AcDbLine
 10
126.0717967697248
 20
131.9038105676647
 11
94.33974596215563
 21
113.5833024919766
  0
LINE
  5
1F1
100
AcDbEntity
  8
plate_construction
  6
ByLayer
 62
  256
370
   -1
100
AcDbLine
 10
136.0717967697244
 20
114.5833024919757
 11
104.3397459621553
 21
96.26279441628762
  0
LINE
  5
1F2
100
AcDbEntity
  8
baseplate_40mm
  6
ByLayer
 62
  256
370
   -1
100
AcDbLine
 10
127.41154273188
 20
109.5833024919759
 11
117.4115427318803
 21
126.9038105676648
  0
LINE
  5
1F3
100
AcDbEntity
  8
baseplate_40mm
  6
ByLayer
 62
  256
370
   -1
100
AcDbLine
 10
117.4115427318803
 20
126.9038105676648
 11
126.0717967697247
 21
131.9038105676647
  0
LINE
  5
1F4
100
AcDbEntity
  8
plate_construction
  6
ByLayer
 62
  256
370
   -1
100
AcDbLine
 10
101.0717967697251
 20
175.2050807568875
 11
161.0717967697236
 21
71.28203230275398
  0
LINE
  5
1F5
100
AcDbEntity
  8
baseplate_40mm
  6
ByLayer
 62
  256
370
   -1
100
AcDbLine
 10
136.0717967697245
 20
114.5833024919757
 11
127.41154273188
 21
109.5833024919759
  0
LINE
  5
1F6
100
AcDbEntity
  8
baseplate_40mm
  6
ByLayer
 62
  256
370
   -1
100
AcDbLine
 10
126.0717967697247
 20
131.9038105676647
 11
136.0717967697245
 21
114.5833024919757
  0
LINE
  5
1F7
100
AcDbEntity
  8
plate_construction
  6
ByLayer
 62
  256
370
   -1
100
AcDbLine
 10
101.0717967697251
 20
175.2050807568875
 11
161.0717967697236
 21
71.28203230275398
  0
LINE
  5
1F8
100
AcDbEntity
  8
plate_construction
  6
ByLayer
 62
  256
370
   -1
100
AcDbLine
 10
96.00000508654907
 20
19.85641527071245
 11
127.9999999999993
 21
75.28203230275389
  0
LINE
  5
1F9
100
AcDbEntity
  8
plate_construction
  6
ByLayer
 62
  256
370
   -1
100
AcDbLine
 10
161.0717967697237
 20
79.28203230275388
 11
101.0717967697245
 21
-24.64101615137746
  0
LINE
  5
1FA
100
AcDbEntity
  8
plate_construction
  6
ByLayer
 62
  256
370
   -1
100
AcDbLine
 10
152.4115427318793
 20
84.28203230275388
 11
92.4115427318801
 21
-19.64101615137746
  0
LINE
  5
1FB
100
AcDbEntity
  8
plate_construction
  6
ByLayer
 62
  256
370
   -1
100
AcDbLine
 10
135.0717967697244
 20
34.24871130596429
 11
103.3397459621556
 21
52.56921938165303
  0
LINE
  5
1FC
100
AcDbEntity
  8
plate_construction
  6
ByLayer
 62
  256
370
   -1
100
AcDbLine
 10
140.0717967697244
 20
42.90896534380867
 11
108.3397459621556
 21
61.22947341949741
  0
LINE
  5
1FD
100
AcDbEntity
  8
plate_construction
  6
ByLayer
 62
  256
370
   -1
100
AcDbLine
 10
130.0717967697244
 20
25.5884572681199
 11
98.33974596215562
 21
43.90896534380865
  0
LINE
  5
1FE
100
AcDbEntity
  8
baseplate_40mm
  6
ByLayer
 62
  256
370
   -1
100
AcDbLine
 10
130.0717967697244
 20
25.5884572681199
 11
121.41154273188
 21
30.58845726811989
  0
LINE
  5
1FF
100
AcDbEntity
  8
baseplate_40mm
  6
ByLayer
 62
  256
370
   -1
100
AcDbLine
 10
121.41154273188
 20
30.58845726811989
 11
131.41154273188
 21
47.90896534380867
  0
LINE
  5
200
100
AcDbEntity
  8
baseplate_40mm
  6
ByLayer
 62
  256
370
   -1
100
AcDbLine
 10
131.41154273188
 20
47.90896534380867
 11
140.0717967697244
 21
42.90896534380868
  0
LINE
  5
201
100
AcDbEntity
  8
baseplate_40mm
  6
ByLayer
 62
  256
370
   -1
100
AcDbLine
 10
140.0717967697244
 20
42.90896534380868
 11
130.0717967697244
 21
25.58845726811989
  0
LINE
  5
202
100
AcDbEntity
  8
plate_construction
  6
ByLayer
 62
  256
370
   -1
100
AcDbLine
 10
87.99999999999986
 20
6.000000000000004
 11
118.7623956929659
 21
5.999999999999996
  0
LINE
  5
203
100
AcDbEntity
  8
plate_construction
  6
ByLayer
 62
  256
370
   -1
100
AcDbLine
 10
157.6076951545859
 20
81.28203230275388
 11
97.60769515458675
 21
-22.64101615137746
  0
LINE
  5
204
100
AcDbEntity
  8
plate_construction
  6
ByLayer
 62
  256
370
   -1
100
AcDbLine
 10
154.1435935394482
 20
83.28203230275388
 11
94.14359353944899
 21
-20.64101615137746
  0
LINE
  5
205
100
AcDbEntity
  8
plate_construction
  6
ByLayer
 62
  256
370
   -1
100
AcDbLine
 10
105.4833395016045
 20
10.99999999999999
 11
122.8038475772933
 21
1
  0
LINE
  5
206
100
AcDbEntity
  8
plate_construction
  6
ByLayer
 62
  256
370
   -1
100
AcDbLine
 10
109.4833395016045
 20
17.9282032302755
 11
126.8038475772933
 21
7.928203230275511
  0
LINE
  5
207
100
AcDbEntity
  8
plate_construction
  6
ByLayer
 62
  256
370
   -1
100
AcDbLine
 10
101.4833395016045
 20
4.071796769724483
 11
118.8038475772933
 21
-5.92820323027551
  0
LINE
  5
208
100
AcDbEntity
  8
baseplate_40mm
  6
ByLayer
 62
  256
370
   -1
100
AcDbLine
 10
113.6076951545867
 20
-2.928203230275503
 11
106.6794919243112
 21
1.071796769724487
  0
LINE
  5
209
100
AcDbEntity
  8
baseplate_40mm
  6
ByLayer
 62
  256
370
   -1
100
AcDbLine
 10
106.6794919243112
 20
1.071796769724487
 11
114.6794919243112
 21
14.92820323027551
  0
LINE
  5
20A
100
AcDbEntity
  8
baseplate_40mm
  6
ByLayer
 62
  256
370
   -1
100
AcDbLine
 10
114.6794919243112
 20
14.92820323027551
 11
121.6076951545867
 21
10.92820323027551
  0
LINE
  5
20B
100
AcDbEntity
  8
baseplate_40mm
  6
ByLayer
 62
  256
370
   -1
100
AcDbLine
 10
121.6076951545867
 20
10.92820323027551
 11
113.6076951545867
 21
-2.928203230275503
  0
DIMENSION
  5
20C
100
AcDbEntity
  8
baseplate_40mm
  6
ByLayer
 62
  256
370
   -1
100
AcDbDimension
  2
*D15
 10
161.7679491924311
 20
30.38268590217982
 30
0
 11
152.7084551121916
 21
24.06618186433542
 31
0
 70
   33
 71
    5
  3
Standard
 53
0
210
0
220
0
230
1
100
AcDbAlignedDimension
 13
130.0717967697244
 23
25.58845726811989
 33
0
 14
140.0717967697244
 24
42.90896534380867
 34
0
  0
DIMENSION
  5
20D
100
AcDbEntity
  8
baseplate_40mm
  6
ByLayer
 62
  256
370
   -1
100
AcDbDimension
  2
*D16
 10
159.4641016151377
 20
-10.92820323027558
 30
0
 11
151.4046075348982
 21
-15.5126564605511
 31
0
 70
   33
 71
    5
  3
Standard
 53
0
210
0
220
0
230
1
100
AcDbAlignedDimension
 13
113.6076951545867
 23
-2.928203230275499
 33
0
 14
121.6076951545867
 24
10.92820323027552
 34
0
  0
DIMENSION
  5
20E
100
AcDbEntity
  8
baseplate_40mm
  6
ByLayer
 62
  256
370
   -1
100
AcDbDimension
  2
*D17
 10
147.5237020535581
 20
144.2890738579159
 30
0
 11
156.5831961337977
 21
137.9725698200713
 31
0
 70
   33
 71
    5
  3
Standard
 53
0
210
0
220
0
230
1
100
AcDbAlignedDimension
 13
136.0717967697245
 23
114.5833024919757
 33
0
 14
126.0717967697247
 24
131.9038105676647
 34
0
  0
DIMENSION
  5
20F
100
AcDbEntity
  8
baseplate_40mm
  6
ByLayer
 62
  256
370
   -1
100
AcDbDimension
  2
*D18
 10
143.368602791855
 20
101.9448637286703
 30
0
 11
136.6947257729329
 21
103.5043578089101
 31
0
 70
   33
 71
    5
  3
Standard
 53
0
210
0
220
0
230
1
100
AcDbAlignedDimension
 13
127.41154273188
 23
109.5833024919759
 33
0
 14
136.0717967697245
 24
114.5833024919757
 34
0
  0
DIMENSION
  5
210
100
AcDbEntity
  8
baseplate_40mm
  6
ByLayer
 62
  256
370
   -1
100
AcDbDimension
  2
*D19
 10
138.7942286340599
 20
60.69615242270667
 30
0
 11
145.4681056529821
 21
62.25564650294623
 31
0
 70
   33
 71
    5
  3
Standard
 53
0
210
0
220
0
230
1
100
AcDbAlignedDimension
 13
140.0717967697244
 23
42.90896534380867
 33
0
 14
131.41154273188
 24
47.90896534380865
 34
0
  0
DIMENSION
  5
211
100
AcDbEntity
  8
baseplate_40mm
  6
ByLayer
 62
  256
370
   -1
100
AcDbDimension
  2
*D20
 10
100.2153903091734
 20
-10.12435565298212
 30
0
 11
106.0232419243112
 21
-8.064861572742561
 31
0
 70
   33
 71
    5
  3
Standard
 53
0
210
0
220
0
230
1
100
AcDbAlignedDimension
 13
113.6076951545867
 23
-2.928203230275499
 33
0
 14
106.6794919243112
 24
1.071796769724486
 34
0
  0
ENDSEC
  0
SECTION
  2
OBJECTS
  0
DICTIONARY
  5
C
330
0
100
AcDbDictionary
281
    1
  3
ACAD_GROUP
350
D
  0
DICTIONARY
  5
D
330
C
100
AcDbDictionary
281
    1
  0
ENDSEC
  0
EOF
