999
dxfrw 0.6.1
  0
SECTION
  2
HEADER
  9
$ACADVER
  1
AC1021
  9
$DWGCODEPAGE
  3
ANSI_1252
  9
$INSBASE
 10
0
 20
0
 30
0
  9
$EXTMIN
 10
-93.125
 20
-16.51666049839541
 30
0
  9
$EXTMAX
 10
177.8125
 20
167.0807251039053
 30
0
  9
$LIMMIN
 10
0
 20
0
  9
$LIMMAX
 10
420
 20
297
  9
$ORTHOMODE
 70
    0
  9
$REGENMODE
 70
    1
  9
$FILLMODE
 70
    1
  9
$QTEXTMODE
 70
    0
  9
$MIRRTEXT
 70
    0
  9
$LTSCALE
 40
1
  9
$ATTMODE
 70
    0
  9
$TEXTSIZE
 40
2.5
  9
$TRACEWID
 40
15.68
  9
$TEXTSTYLE
  7
STANDARD
  9
$CLAYER
  8
baseplate
  9
$CELTYPE
  6
BYLAYER
  9
$CECOLOR
 62
  256
  9
$CELTSCALE
 40
1
  9
$DISPSILH
 70
    0
  9
$DIMSCALE
 40
2.5
  9
$DIMASZ
 40
2.5
  9
$DIMEXO
 40
0.625
  9
$DIMDLI
 40
3.75
  9
$DIMRND
 40
0
  9
$DIMDLE
 40
0
  9
$DIMEXE
 40
1.25
  9
$DIMTP
 40
0
  9
$DIMTM
 40
0
  9
$DIMTXT
 40
2.5
  9
$DIMCEN
 40
2.5
  9
$DIMTSZ
 40
0
  9
$DIMTOL
 70
    0
  9
$DIMLIM
 70
    0
  9
$DIMTIH
 70
    0
  9
$DIMTOH
 70
    0
  9
$DIMSE1
 70
    0
  9
$DIMSE2
 70
    0
  9
$DIMTAD
 70
    1
  9
$DIMZIN
 70
    8
  9
$DIMBLK
  1

  9
$DIMASO
 70
    1
  9
$DIMSHO
 70
    1
  9
$DIMPOST
  1

  9
$DIMAPOST
  1

  9
$DIMALT
 70
    0
  9
$DIMALTD
 70
    3
  9
$DIMALTF
 40
0.03937
  9
$DIMLFAC
 40
1
  9
$DIMTOFL
 70
    1
  9
$DIMTVP
 40
0
  9
$DIMTIX
 70
    0
  9
$DIMSOXD
 70
    0
  9
$DIMSAH
 70
    0
  9
$DIMBLK1
  1

  9
$DIMBLK2
  1

  9
$DIMSTYLE
  2
STANDARD
  9
$DIMCLRD
 70
    0
  9
$DIMCLRE
 70
    0
  9
$DIMCLRT
 70
    0
  9
$DIMTFAC
 40
1
  9
$DIMGAP
 40
0.625
  9
$DIMJUST
 70
    0
  9
$DIMSD1
 70
    0
  9
$DIMSD2
 70
    0
  9
$DIMTOLJ
 70
    0
  9
$DIMTZIN
 70
    8
  9
$DIMALTZ
 70
    0
  9
$DIMALTTZ
 70
    0
  9
$DIMUPT
 70
    0
  9
$DIMDEC
 70
    2
  9
$DIMTDEC
 70
    2
  9
$DIMALTU
 70
    2
  9
$DIMALTTD
 70
    3
  9
$DIMTXSTY
  7
STANDARD
  9
$DIMAUNIT
 70
    0
  9
$DIMADEC
 70
    0
  9
$DIMALTRND
 40
0
  9
$DIMAZIN
 70
    0
  9
$DIMDSEP
 70
   44
  9
$DIMATFIT
 70
    3
  9
$DIMFRAC
 70
    0
  9
$DIMLDRBLK
  1
STANDARD
  9
$DIMLUNIT
 70
    2
  9
$DIMLWD
 70
   -2
  9
$DIMLWE
 70
   -2
  9
$DIMTMOVE
 70
    0
  9
$DIMFXL
 40
1
  9
$DIMFXLON
 70
    0
  9
$DIMJOGANG
 40
0.7854
  9
$DIMTFILL
 70
    0
  9
$DIMTFILLCLR
 70
    0
  9
$DIMARCSYM
 70
    0
  9
$DIMLTYPE
  6

  9
$DIMLTEX1
  6

  9
$DIMLTEX2
  6

  9
$LUNITS
 70
    2
  9
$LUPREC
 70
    4
  9
$SKETCHINC
 40
1
  9
$FILLETRAD
 40
0
  9
$AUNITS
 70
    0
  9
$AUPREC
 70
    2
  9
$MENU
  1
.
  9
$ELEVATION
 40
0
  9
$PELEVATION
 40
0
  9
$THICKNESS
 40
0
  9
$LIMCHECK
 70
    0
  9
$CHAMFERA
 40
0
  9
$CHAMFERB
 40
0
  9
$CHAMFERC
 40
0
  9
$CHAMFERD
 40
0
  9
$SKPOLY
 70
    0
  9
$USRTIMER
 70
    1
  9
$ANGBASE
 50
0
  9
$ANGDIR
 70
    0
  9
$PDMODE
 70
   34
  9
$PDSIZE
 40
0
  9
$PLINEWID
 40
0
  9
$SPLFRAME
 70
    0
  9
$SPLINETYPE
 70
    2
  9
$SPLINESEGS
 70
    8
  9
$HANDSEED
  5
20000
  9
$SURFTAB1
 70
    6
  9
$SURFTAB2
 70
    6
  9
$SURFTYPE
 70
    6
  9
$SURFU
 70
    6
  9
$SURFV
 70
    6
  9
$UCSBASE
  2

  9
$UCSNAME
  2

  9
$UCSORG
 10
0
 20
0
 30
0
  9
$UCSXDIR
 10
1
 20
0
 30
0
  9
$UCSYDIR
 10
0
 20
1
 30
0
  9
$UCSORTHOREF
  2

  9
$UCSORTHOVIEW
 70
    0
  9
$UCSORGTOP
 10
0
 20
0
 30
0
  9
$UCSORGBOTTOM
 10
0
 20
0
 30
0
  9
$UCSORGLEFT
 10
0
 20
0
 30
0
  9
$UCSORGRIGHT
 10
0
 20
0
 30
0
  9
$UCSORGFRONT
 10
0
 20
0
 30
0
  9
$UCSORGBACK
 10
0
 20
0
 30
0
  9
$PUCSBASE
  2

  9
$PUCSNAME
  2

  9
$PUCSORG
 10
0
 20
0
 30
0
  9
$PUCSXDIR
 10
1
 20
0
 30
0
  9
$PUCSYDIR
 10
0
 20
1
 30
0
  9
$PUCSORTHOREF
  2

  9
$PUCSORTHOVIEW
 70
    0
  9
$PUCSORGTOP
 10
0
 20
0
 30
0
  9
$PUCSORGBOTTOM
 10
0
 20
0
 30
0
  9
$PUCSORGLEFT
 10
0
 20
0
 30
0
  9
$PUCSORGRIGHT
 10
0
 20
0
 30
0
  9
$PUCSORGFRONT
 10
0
 20
0
 30
0
  9
$PUCSORGBACK
 10
0
 20
0
 30
0
  9
$USERI1
 70
    0
  9
$USERI2
 70
    0
  9
$USERI3
 70
    0
  9
$USERI4
 70
    0
  9
$USERI5
 70
    0
  9
$USERR1
 40
0
  9
$USERR2
 40
0
  9
$USERR3
 40
0
  9
$USERR4
 40
0
  9
$USERR5
 40
0
  9
$WORLDVIEW
 70
    1
  9
$SHADEDGE
 70
    3
  9
$SHADEDIF
 70
   70
  9
$TILEMODE
 70
    1
  9
$MAXACTVP
 70
   64
  9
$PINSBASE
 10
65.86538461538461
 20
81.54242319226107
 30
0
  9
$PLIMCHECK
 70
    0
  9
$PEXTMIN
 10
0
 20
0
 30
0
  9
$PEXTMAX
 10
0
 20
0
 30
0
  9
$GRIDMODE
 70
    1
  9
$SNAPSTYLE
 70
    0
  9
$PLIMMIN
 10
0
 20
0
  9
$PLIMMAX
 10
210
 20
297
  9
$UNITMODE
 70
    0
  9
$VISRETAIN
 70
    1
  9
$PLINEGEN
 70
    0
  9
$PSLTSCALE
 70
    1
  9
$TREEDEPTH
 70
 3020
  9
$CMLSTYLE
  2
Standard
  9
$CMLJUST
 70
    0
  9
$CMLSCALE
 40
20
  9
$PROXYGRAPHICS
 70
    1
  9
$MEASUREMENT
 70
    1
  9
$CELWEIGHT
370
   -1
  9
$ENDCAPS
280
    0
  9
$JOINSTYLE
280
    0
  9
$LWDISPLAY
290
    0
  9
$INSUNITS
 70
    4
  9
$HYPERLINKBASE
  1

  9
$STYLESHEET
  1

  9
$XEDIT
290
    1
  9
$CEPSNTYPE
380
    0
  9
$PSTYLEMODE
290
    1
  9
$EXTNAMES
290
    1
  9
$PSVPSCALE
 40
0.8894264977942223
  9
$OLESTARTUP
290
    0
  9
$SORTENTS
280
  127
  9
$INDEXCTL
280
    0
  9
$HIDETEXT
280
    1
  9
$XCLIPFRAME
290
    0
  9
$HALOGAP
280
    0
  9
$OBSCOLOR
 70
  257
  9
$OBSLTYPE
280
    0
  9
$INTERSECTIONDISPLAY
280
    0
  9
$INTERSECTIONCOLOR
 70
  257
  9
$DIMASSOC
280
    0
  9
$PROJECTNAME
  1

  9
$CAMERADISPLAY
290
    0
  9
$LENSLENGTH
 40
50
  9
$CAMERAHEIGHT
 40
0
  9
$STEPSPERSEC
 40
2
  9
$STEPSIZE
 40
50
  9
$3DDWFPREC
 40
2
  9
$PSOLWIDTH
 40
5
  9
$PSOLHEIGHT
 40
80
  9
$LOFTANG1
 40
1.570796326794897
  9
$LOFTANG2
 40
1.570796326794897
  9
$LOFTMAG1
 40
0
  9
$LOFTMAG2
 40
0
  9
$LOFTPARAM
 70
    7
  9
$LOFTNORMALS
280
    1
  9
$LATITUDE
 40
1
  9
$LONGITUDE
 40
1
  9
$NORTHDIRECTION
 40
0
  9
$TIMEZONE
 70
-8000
  9
$LIGHTGLYPHDISPLAY
280
    1
  9
$TILEMODELIGHTSYNCH
280
    1
  9
$SOLIDHIST
280
    1
  9
$SHOWHIST
280
    1
  9
$DWFFRAME
280
    2
  9
$DGNFRAME
280
    0
  9
$REALWORLDSCALE
290
    1
  9
$INTERFERECOLOR
 62
    1
  9
$CSHADOW
280
    0
  9
$SHADOWPLANELOCATION
 40
0
  0
ENDSEC
  0
SECTION
  2
CLASSES
  0
ENDSEC
  0
SECTION
  2
TABLES
  0
TABLE
  2
VPORT
  5
8
330
0
100
AcDbSymbolTable
 70
    1
  0
VPORT
  5
31
330
2
100
AcDbSymbolTableRecord
100
AcDbViewportTableRecord
  2
*ACTIVE
 70
    0
 10
0
 20
0
 11
1
 21
1
 12
175.8659509164478
 22
95.40905839191906
 13
0
 23
0
 14
10
 24
10
 15
10
 25
10
 16
0
 26
0
 36
1
 17
0
 27
0
 37
0
 40
229.7412152322827
 41
1.913223140495868
 42
50
 43
0
 44
0
 50
0
 51
0
 71
    0
 72
  100
 73
    1
 74
    3
 75
    0
 76
    1
 77
    0
 78
    0
281
    0
 65
    1
110
0
120
0
130
0
111
1
121
0
131
0
112
0
122
1
132
0
 79
    0
146
0
348
10020
 60
    7
 61
    5
292
1
282
    1
141
0
142
0
 63
  250
421
3358443
  0
ENDTAB
  0
TABLE
  2
LTYPE
  5
5
330
0
100
AcDbSymbolTable
 70
    4
  0
LTYPE
  5
14
330
5
100
AcDbSymbolTableRecord
100
AcDbLinetypeTableRecord
  2
ByBlock
 70
    0
  3

 72
   65
 73
    0
 40
0
  0
LTYPE
  5
15
330
5
100
AcDbSymbolTableRecord
100
AcDbLinetypeTableRecord
  2
ByLayer
 70
    0
  3

 72
   65
 73
    0
 40
0
  0
LTYPE
  5
16
330
5
100
AcDbSymbolTableRecord
100
AcDbLinetypeTableRecord
  2
Continuous
 70
    0
  3
Solid line
 72
   65
 73
    0
 40
0
  0
LTYPE
  5
32
330
5
100
AcDbSymbolTableRecord
100
AcDbLinetypeTableRecord
  2
DOT
 70
    0
  3
Dot . . . . . . . . . . . . . . . . . . . . . .
 72
   65
 73
    2
 40
6.35
 49
0
 74
    0
 49
-6.35
 74
    0
  0
LTYPE
  5
33
330
5
100
AcDbSymbolTableRecord
100
AcDbLinetypeTableRecord
  2
DOTTINY
 70
    0
  3
Dot (.15x) .....................................
 72
   65
 73
    2
 40
0.9525
 49
0
 74
    0
 49
-0.9525
 74
    0
  0
LTYPE
  5
34
330
5
100
AcDbSymbolTableRecord
100
AcDbLinetypeTableRecord
  2
DOT2
 70
    0
  3
Dot (.5x) .....................................
 72
   65
 73
    2
 40
3.175
 49
0
 74
    0
 49
-3.175
 74
    0
  0
LTYPE
  5
35
330
5
100
AcDbSymbolTableRecord
100
AcDbLinetypeTableRecord
  2
DOTX2
 70
    0
  3
Dot (2x) .  .  .  .  .  .  .  .  .  .  .  .  .
 72
   65
 73
    2
 40
12.7
 49
0
 74
    0
 49
-12.7
 74
    0
  0
LTYPE
  5
36
330
5
100
AcDbSymbolTableRecord
100
AcDbLinetypeTableRecord
  2
DASHED
 70
    0
  3
Dashed _ _ _ _ _ _ _ _ _ _ _ _ _ _ _ _ _
 72
   65
 73
    2
 40
19.05
 49
12.7
 74
    0
 49
-6.35
 74
    0
  0
LTYPE
  5
37
330
5
100
AcDbSymbolTableRecord
100
AcDbLinetypeTableRecord
  2
DASHEDTINY
 70
    0
  3
Dashed (.15x) _ _ _ _ _ _ _ _ _ _ _ _ _ _ _ _ _
 72
   65
 73
    2
 40
2.8575
 49
1.905
 74
    0
 49
-0.9525
 74
    0
  0
LTYPE
  5
38
330
5
100
AcDbSymbolTableRecord
100
AcDbLinetypeTableRecord
  2
DASHED2
 70
    0
  3
Dashed (.5x) _ _ _ _ _ _ _ _ _ _ _ _ _ _ _ _ _
 72
   65
 73
    2
 40
9.524999999999999
 49
6.35
 74
    0
 49
-3.175
 74
    0
  0
LTYPE
  5
39
330
5
100
AcDbSymbolTableRecord
100
AcDbLinetypeTableRecord
  2
DASHEDX2
 70
    0
  3
Dashed (2x) ____  ____  ____  ____  ____  ___
 72
   65
 73
    2
 40
38.09999999999999
 49
25.4
 74
    0
 49
-12.7
 74
    0
  0
LTYPE
  5
3A
330
5
100
AcDbSymbolTableRecord
100
AcDbLinetypeTableRecord
  2
DASHDOT
 70
    0
  3
Dash dot __ . __ . __ . __ . __ . __ . __ . __
 72
   65
 73
    4
 40
25.4
 49
12.7
 74
    0
 49
-6.35
 74
    0
 49
0
 74
    0
 49
-6.35
 74
    0
  0
LTYPE
  5
3B
330
5
100
AcDbSymbolTableRecord
100
AcDbLinetypeTableRecord
  2
DASHDOTTINY
 70
    0
  3
Dash dot (.15x) _._._._._._._._._._._._._._._.
 72
   65
 73
    4
 40
3.81
 49
1.905
 74
    0
 49
-0.9525
 74
    0
 49
0
 74
    0
 49
-0.9525
 74
    0
  0
LTYPE
  5
3C
330
5
100
AcDbSymbolTableRecord
100
AcDbLinetypeTableRecord
  2
DASHDOT2
 70
    0
  3
Dash dot (.5x) _._._._._._._._._._._._._._._.
 72
   65
 73
    4
 40
12.7
 49
6.35
 74
    0
 49
-3.175
 74
    0
 49
0
 74
    0
 49
-3.175
 74
    0
  0
LTYPE
  5
3D
330
5
100
AcDbSymbolTableRecord
100
AcDbLinetypeTableRecord
  2
DASHDOTX2
 70
    0
  3
Dash dot (2x) ____  .  ____  .  ____  .  ___
 72
   65
 73
    4
 40
50.8
 49
25.4
 74
    0
 49
-12.7
 74
    0
 49
0
 74
    0
 49
-12.7
 74
    0
  0
LTYPE
  5
3E
330
5
100
AcDbSymbolTableRecord
100
AcDbLinetypeTableRecord
  2
DIVIDE
 70
    0
  3
Divide ____ . . ____ . . ____ . . ____ . . ____
 72
   65
 73
    6
 40
31.75
 49
12.7
 74
    0
 49
-6.35
 74
    0
 49
0
 74
    0
 49
-6.35
 74
    0
 49
0
 74
    0
 49
-6.35
 74
    0
  0
LTYPE
  5
3F
330
5
100
AcDbSymbolTableRecord
100
AcDbLinetypeTableRecord
  2
DIVIDETINY
 70
    0
  3
Divide (.15x) __..__..__..__..__..__..__..__.._
 72
   65
 73
    6
 40
4.7625
 49
1.905
 74
    0
 49
-0.9525
 74
    0
 49
0
 74
    0
 49
-0.9525
 74
    0
 49
0
 74
    0
 49
-0.9525
 74
    0
  0
LTYPE
  5
40
330
5
100
AcDbSymbolTableRecord
100
AcDbLinetypeTableRecord
  2
DIVIDE2
 70
    0
  3
Divide (.5x) __..__..__..__..__..__..__..__.._
 72
   65
 73
    6
 40
15.875
 49
6.35
 74
    0
 49
-3.175
 74
    0
 49
0
 74
    0
 49
-3.175
 74
    0
 49
0
 74
    0
 49
-3.175
 74
    0
  0
LTYPE
  5
41
330
5
100
AcDbSymbolTableRecord
100
AcDbLinetypeTableRecord
  2
DIVIDEX2
 70
    0
  3
Divide (2x) ________  .  .  ________  .  .  _
 72
   65
 73
    6
 40
63.5
 49
25.4
 74
    0
 49
-12.7
 74
    0
 49
0
 74
    0
 49
-12.7
 74
    0
 49
0
 74
    0
 49
-12.7
 74
    0
  0
LTYPE
  5
42
330
5
100
AcDbSymbolTableRecord
100
AcDbLinetypeTableRecord
  2
BORDER
 70
    0
  3
Border __ __ . __ __ . __ __ . __ __ . __ __ .
 72
   65
 73
    6
 40
44.45
 49
12.7
 74
    0
 49
-6.35
 74
    0
 49
12.7
 74
    0
 49
-6.35
 74
    0
 49
0
 74
    0
 49
-6.35
 74
    0
  0
LTYPE
  5
43
330
5
100
AcDbSymbolTableRecord
100
AcDbLinetypeTableRecord
  2
BORDERTINY
 70
    0
  3
Border (.15x) __.__.__.__.__.__.__.__.__.__.__.
 72
   65
 73
    6
 40
6.6675
 49
1.905
 74
    0
 49
-0.9525
 74
    0
 49
1.905
 74
    0
 49
-0.9525
 74
    0
 49
0
 74
    0
 49
-0.9525
 74
    0
  0
LTYPE
  5
44
330
5
100
AcDbSymbolTableRecord
100
AcDbLinetypeTableRecord
  2
BORDER2
 70
    0
  3
Border (.5x) __.__.__.__.__.__.__.__.__.__.__.
 72
   65
 73
    6
 40
22.225
 49
6.35
 74
    0
 49
-3.175
 74
    0
 49
6.35
 74
    0
 49
-3.175
 74
    0
 49
0
 74
    0
 49
-3.175
 74
    0
  0
LTYPE
  5
45
330
5
100
AcDbSymbolTableRecord
100
AcDbLinetypeTableRecord
  2
BORDERX2
 70
    0
  3
Border (2x) ____  ____  .  ____  ____  .  ___
 72
   65
 73
    6
 40
88.89999999999999
 49
25.4
 74
    0
 49
-12.7
 74
    0
 49
25.4
 74
    0
 49
-12.7
 74
    0
 49
0
 74
    0
 49
-12.7
 74
    0
  0
LTYPE
  5
46
330
5
100
AcDbSymbolTableRecord
100
AcDbLinetypeTableRecord
  2
CENTER
 70
    0
  3
Center ____ _ ____ _ ____ _ ____ _ ____ _ ____
 72
   65
 73
    4
 40
50.8
 49
31.75
 74
    0
 49
-6.35
 74
    0
 49
6.35
 74
    0
 49
-6.35
 74
    0
  0
LTYPE
  5
47
330
5
100
AcDbSymbolTableRecord
100
AcDbLinetypeTableRecord
  2
CENTERTINY
 70
    0
  3
Center (.15x) ___ _ ___ _ ___ _ ___ _ ___ _ ___
 72
   65
 73
    4
 40
7.619999999999999
 49
4.7625
 74
    0
 49
-0.9525
 74
    0
 49
0.9525
 74
    0
 49
-0.9525
 74
    0
  0
LTYPE
  5
48
330
5
100
AcDbSymbolTableRecord
100
AcDbLinetypeTableRecord
  2
CENTER2
 70
    0
  3
Center (.5x) ___ _ ___ _ ___ _ ___ _ ___ _ ___
 72
   65
 73
    4
 40
28.575
 49
19.05
 74
    0
 49
-3.175
 74
    0
 49
3.175
 74
    0
 49
-3.175
 74
    0
  0
LTYPE
  5
49
330
5
100
AcDbSymbolTableRecord
100
AcDbLinetypeTableRecord
  2
CENTERX2
 70
    0
  3
Center (2x) ________  __  ________  __  _____
 72
   65
 73
    4
 40
101.6
 49
63.5
 74
    0
 49
-12.7
 74
    0
 49
12.7
 74
    0
 49
-12.7
 74
    0
  0
ENDTAB
  0
TABLE
  2
LAYER
  5
2
330
0
100
AcDbSymbolTable
 70
    1
  0
LAYER
  5
10
330
2
100
AcDbSymbolTableRecord
100
AcDbLayerTableRecord
  2
0
 70
    1
 62
    7
  6
CONTINUOUS
370
    0
390
F
  0
LAYER
  5
4A
330
2
100
AcDbSymbolTableRecord
100
AcDbLayerTableRecord
  2
baseplate
 70
    0
 62
    4
  6
CONTINUOUS
370
    0
390
F
  0
LAYER
  5
4B
330
2
100
AcDbSymbolTableRecord
100
AcDbLayerTableRecord
  2
plate_construction
 70
    1
 62
  216
420
8388736
  6
CONTINUOUS
370
    0
390
F
  0
LAYER
  5
4C
330
2
100
AcDbSymbolTableRecord
100
AcDbLayerTableRecord
  2
strips
 70
    1
 62
   96
420
32768
  6
CONTINUOUS
370
    0
390
F
  0
ENDTAB
  0
TABLE
  2
STYLE
  5
3
330
0
100
AcDbSymbolTable
 70
    3
  0
STYLE
  5
4D
330
2
100
AcDbSymbolTableRecord
100
AcDbTextStyleTableRecord
  2
Standard
 70
    0
 40
0
 41
1
 50
0
 71
    0
 42
1
  3
txt
  4

  0
ENDTAB
  0
TABLE
  2
VIEW
  5
6
330
0
100
AcDbSymbolTable
 70
    0
  0
ENDTAB
  0
TABLE
  2
UCS
  5
7
330
0
100
AcDbSymbolTable
 70
    0
  0
ENDTAB
  0
TABLE
  2
APPID
  5
9
330
0
100
AcDbSymbolTable
 70
    1
  0
APPID
  5
12
330
9
100
AcDbSymbolTableRecord
100
AcDbRegAppTableRecord
  2
ACAD
 70
    0
  0
APPID
  5
4E
330
9
100
AcDbSymbolTableRecord
100
AcDbRegAppTableRecord
  2
LibreCad
 70
    0
  0
ENDTAB
  0
TABLE
  2
DIMSTYLE
  5
A
330
0
100
AcDbSymbolTable
 70
    1
100
AcDbDimStyleTable
 71
    1
  0
DIMSTYLE
105
4F
330
A
100
AcDbSymbolTableRecord
100
AcDbDimStyleTableRecord
  2
Standard
 70
    0
 40
1
 41
2.5
 42
0.625
 43
0.38
 44
1.25
 45
0
 46
0
 47
0
 48
0
140
2.5
141
0.09
142
0
143
25.4
144
1
145
0
146
1
147
0.625
148
0
 71
    0
 72
    0
 73
    0
 74
    1
 75
    0
 76
    0
 77
    0
 78
    0
 79
    0
170
    0
171
    2
172
    0
173
    0
174
    0
175
    0
176
    0
177
    0
178
    0
179
    0
271
    4
272
    4
273
    2
274
    2
275
    0
276
    0
277
    2
278
   46
279
    0
280
    0
281
    0
282
    0
283
    1
284
    0
285
    0
286
    0
288
    0
289
    3
340
Standard
341

371
   -2
372
   -2
  0
ENDTAB
  0
TABLE
  2
BLOCK_RECORD
  5
1
330
0
100
AcDbSymbolTable
 70
    2
  0
BLOCK_RECORD
  5
1F
330
1
100
AcDbSymbolTableRecord
100
AcDbBlockTableRecord
  2
*Model_Space
 70
    0
280
    1
281
    0
  0
BLOCK_RECORD
  5
1E
330
1
100
AcDbSymbolTableRecord
100
AcDbBlockTableRecord
  2
*Paper_Space
 70
    0
280
    1
281
    0
  0
BLOCK_RECORD
  5
50
330
1
100
AcDbSymbolTableRecord
100
AcDbBlockTableRecord
  2
*D5
 70
    0
280
    1
281
    0
  0
BLOCK_RECORD
  5
53
330
1
100
AcDbSymbolTableRecord
100
AcDbBlockTableRecord
  2
*D6
 70
    0
280
    1
281
    0
  0
BLOCK_RECORD
  5
56
330
1
100
AcDbSymbolTableRecord
100
AcDbBlockTableRecord
  2
*D3
 70
    0
280
    1
281
    0
  0
BLOCK_RECORD
  5
59
330
1
100
AcDbSymbolTableRecord
100
AcDbBlockTableRecord
  2
*D7
 70
    0
280
    1
281
    0
  0
BLOCK_RECORD
  5
5C
330
1
100
AcDbSymbolTableRecord
100
AcDbBlockTableRecord
  2
*D11
 70
    0
280
    1
281
    0
  0
BLOCK_RECORD
  5
5F
330
1
100
AcDbSymbolTableRecord
100
AcDbBlockTableRecord
  2
*D9
 70
    0
280
    1
281
    0
  0
BLOCK_RECORD
  5
62
330
1
100
AcDbSymbolTableRecord
100
AcDbBlockTableRecord
  2
*D12
 70
    0
280
    1
281
    0
  0
BLOCK_RECORD
  5
65
330
1
100
AcDbSymbolTableRecord
100
AcDbBlockTableRecord
  2
*D10
 70
    0
280
    1
281
    0
  0
BLOCK_RECORD
  5
68
330
1
100
AcDbSymbolTableRecord
100
AcDbBlockTableRecord
  2
*D1
 70
    0
280
    1
281
    0
  0
BLOCK_RECORD
  5
6B
330
1
100
AcDbSymbolTableRecord
100
AcDbBlockTableRecord
  2
*D8
 70
    0
280
    1
281
    0
  0
BLOCK_RECORD
  5
6E
330
1
100
AcDbSymbolTableRecord
100
AcDbBlockTableRecord
  2
*D2
 70
    0
280
    1
281
    0
  0
BLOCK_RECORD
  5
71
330
1
100
AcDbSymbolTableRecord
100
AcDbBlockTableRecord
  2
*D4
 70
    0
280
    1
281
    0
  0
ENDTAB
  0
ENDSEC
  0
SECTION
  2
BLOCKS
  0
BLOCK
  5
20
330
1F
100
AcDbEntity
  8
0
100
AcDbBlockBegin
  2
*Model_Space
 70
    0
 10
0
 20
0
 30
0
  3
*Model_Space
  1

  0
ENDBLK
  5
21
330
1F
100
AcDbEntity
  8
0
100
AcDbBlockEnd
  0
BLOCK
  5
1C
330
1B
100
AcDbEntity
  8
0
100
AcDbBlockBegin
  2
*Paper_Space
 70
    0
 10
0
 20
0
 30
0
  3
*Paper_Space
  1

  0
ENDBLK
  5
1D
330
1F
100
AcDbEntity
  8
0
100
AcDbBlockEnd
  0
BLOCK
  5
51
330
50
100
AcDbEntity
  8
0
100
AcDbBlockBegin
  2
*D5
 70
    1
 10
0
 20
0
  3
*D5
  1

  0
LINE
  5
74
100
AcDbEntity
  8
baseplate
  6
ByBlock
 62
    0
370
   -2
100
AcDbLine
 10
-70
 20
61.42562584220407
 11
-70
 21
167.0807251039053
  0
SOLID
  5
75
100
AcDbEntity
  8
baseplate
  6
ByBlock
 62
    0
370
   -2
100
AcDbTrace
 10
-70
 20
61.42562584220407
 30
0
 11
-71.04071164443209
 21
67.67562584220407
 31
0
 12
-68.95928835556789
 22
67.67562584220407
 32
0
 13
-68.95928835556789
 23
67.67562584220407
 33
0
  0
SOLID
  5
76
100
AcDbEntity
  8
baseplate
  6
ByBlock
 62
    0
370
   -2
100
AcDbTrace
 10
-70
 20
167.0807251039053
 30
0
 11
-68.95928835556789
 21
160.8307251039053
 31
0
 12
-71.04071164443211
 22
160.8307251039053
 32
0
 13
-71.04071164443211
 23
160.8307251039053
 33
0
  0
MTEXT
  5
77
100
AcDbEntity
  8
baseplate
  6
CONTINUOUS
 62
    0
370
   -2
100
AcDbMText
 10
-65.3125
 20
114.2531754730547
 30
0
 40
6.25
 41
23.26388888889005
 71
    5
 72
    1
  1
105,66
  7
STANDARD
210
0
220
0
230
1
 50
270
 73
    2
 44
1
  0
LINE
  5
78
100
AcDbEntity
  8
baseplate
  6
ByBlock
 62
    0
370
   -2
100
AcDbLine
 10
-67.56249999999994
 20
61.42562584220407
 11
-73.125
 21
61.42562584220407
  0
LINE
  5
79
100
AcDbEntity
  8
baseplate
  6
ByBlock
 62
    0
370
   -2
100
AcDbLine
 10
-6.562500000000199
 20
167.0807251039053
 11
-73.125
 21
167.0807251039053
  0
ENDBLK
  5
52
330
50
100
AcDbEntity
  8
0
100
AcDbBlockEnd
  0
BLOCK
  5
54
330
53
100
AcDbEntity
  8
0
100
AcDbBlockBegin
  2
*D6
 70
    1
 10
0
 20
0
  3
*D6
  1

  0
LINE
  5
7A
100
AcDbEntity
  8
baseplate
  6
ByBlock
 62
    0
370
   -2
100
AcDbLine
 10
-13.72649730810396
 20
157.0807251039052
 11
15.27350269189604
 21
157.0807251039052
  0
SOLID
  5
7B
100
AcDbEntity
  8
baseplate
  6
ByBlock
 62
    0
370
   -2
100
AcDbTrace
 10
-1.226497308103959
 20
157.0807251039052
 30
0
 11
-7.476497308103959
 21
156.0400134594731
 31
0
 12
-7.476497308103959
 22
158.1214367483373
 32
0
 13
-7.476497308103959
 23
158.1214367483373
 33
0
  0
SOLID
  5
7C
100
AcDbEntity
  8
baseplate
  6
ByBlock
 62
    0
370
   -2
100
AcDbTrace
 10
2.773502691896041
 20
157.0807251039052
 30
0
 11
9.023502691896041
 21
158.1214367483373
 31
0
 12
9.023502691896041
 22
156.0400134594731
 32
0
 13
9.023502691896041
 23
156.0400134594731
 33
0
  0
MTEXT
  5
7D
100
AcDbEntity
  8
baseplate
  6
CONTINUOUS
 62
    0
370
   -2
100
AcDbMText
 10
12.14850269189604
 20
161.7682251039052
 30
0
 40
6.25
 41
15.625
 71
    5
 72
    1
  1
4,00
  7
STANDARD
210
0
220
0
230
1
 50
0
 73
    2
 44
1
  0
ENDBLK
  5
55
330
53
100
AcDbEntity
  8
0
100
AcDbBlockEnd
  0
BLOCK
  5
57
330
56
100
AcDbEntity
  8
0
100
AcDbBlockBegin
  2
*D3
 70
    1
 10
0
 20
0
  3
*D3
  1

  0
LINE
  5
7E
100
AcDbEntity
  8
baseplate
  6
ByBlock
 62
    0
370
   -2
100
AcDbLine
 10
170
 20
-16.51666049839515
 11
170
 21
75.28203230275388
  0
SOLID
  5
7F
100
AcDbEntity
  8
baseplate
  6
ByBlock
 62
    0
370
   -2
100
AcDbTrace
 10
170
 20
-16.51666049839515
 30
0
 11
168.9592883555679
 21
-10.26666049839515
 31
0
 12
171.0407116444321
 22
-10.26666049839515
 32
0
 13
171.0407116444321
 23
-10.26666049839515
 33
0
  0
SOLID
  5
80
100
AcDbEntity
  8
baseplate
  6
ByBlock
 62
    0
370
   -2
100
AcDbTrace
 10
170
 20
75.28203230275388
 30
0
 11
171.0407116444321
 21
69.03203230275388
 31
0
 12
168.9592883555679
 22
69.03203230275388
 32
0
 13
168.9592883555679
 23
69.03203230275388
 33
0
  0
MTEXT
  5
81
100
AcDbEntity
  8
baseplate
  6
CONTINUOUS
 62
    0
370
   -2
100
AcDbMText
 10
174.6875
 20
29.38268590217936
 30
0
 40
6.25
 41
18.40277777777816
 71
    5
 72
    1
  1
91,80
  7
STANDARD
210
0
220
0
230
1
 50
270
 73
    2
 44
1
  0
LINE
  5
82
100
AcDbEntity
  8
baseplate
  6
ByBlock
 62
    0
370
   -2
100
AcDbLine
 10
102.5624999999999
 20
-16.51666049839515
 11
173.125
 21
-16.51666049839515
  0
LINE
  5
83
100
AcDbEntity
  8
baseplate
  6
ByBlock
 62
    0
370
   -2
100
AcDbLine
 10
155.5624999999991
 20
75.28203230275388
 11
173.125
 21
75.28203230275388
  0
ENDBLK
  5
58
330
56
100
AcDbEntity
  8
0
100
AcDbBlockEnd
  0
BLOCK
  5
5A
330
59
100
AcDbEntity
  8
0
100
AcDbBlockBegin
  2
*D7
 70
    1
 10
0
 20
0
  3
*D7
  1

  0
LINE
  5
84
100
AcDbEntity
  8
baseplate
  6
ByBlock
 62
    0
370
   -2
100
AcDbLine
 10
80.72649730810429
 20
157.0807251039049
 11
109.7264973081043
 21
157.0807251039049
  0
SOLID
  5
85
100
AcDbEntity
  8
baseplate
  6
ByBlock
 62
    0
370
   -2
100
AcDbTrace
 10
93.22649730810429
 20
157.0807251039049
 30
0
 11
86.97649730810429
 21
156.0400134594728
 31
0
 12
86.97649730810429
 22
158.121436748337
 32
0
 13
86.97649730810429
 23
158.121436748337
 33
0
  0
SOLID
  5
86
100
AcDbEntity
  8
baseplate
  6
ByBlock
 62
    0
370
   -2
100
AcDbTrace
 10
97.22649730810429
 20
157.0807251039049
 30
0
 11
103.4764973081043
 21
158.121436748337
 31
0
 12
103.4764973081043
 22
156.0400134594728
 32
0
 13
103.4764973081043
 23
156.0400134594728
 33
0
  0
MTEXT
  5
87
100
AcDbEntity
  8
baseplate
  6
CONTINUOUS
 62
    0
370
   -2
100
AcDbMText
 10
106.6014973081043
 20
161.7682251039049
 30
0
 40
6.25
 41
15.625
 71
    5
 72
    1
  1
4,00
  7
STANDARD
210
0
220
0
230
1
 50
0
 73
    2
 44
1
  0
ENDBLK
  5
5B
330
59
100
AcDbEntity
  8
0
100
AcDbBlockEnd
  0
BLOCK
  5
5D
330
5C
100
AcDbEntity
  8
0
100
AcDbBlockBegin
  2
*D11
 70
    1
 10
0
 20
0
  3
*D11
  1

  0
LINE
  5
88
100
AcDbEntity
  8
baseplate
  6
ByBlock
 62
    0
370
   -2
100
AcDbLine
 10
-54.45299461620743
 20
46.92562584220407
 11
-54.45299461620743
 21
75.92562584220407
  0
SOLID
  5
89
100
AcDbEntity
  8
baseplate
  6
ByBlock
 62
    0
370
   -2
100
AcDbTrace
 10
-54.45299461620743
 20
59.42562584220407
 30
0
 11
-53.41228297177533
 21
53.17562584220407
 31
0
 12
-55.49370626063953
 22
53.17562584220407
 32
0
 13
-55.49370626063953
 23
53.17562584220407
 33
0
  0
SOLID
  5
8A
100
AcDbEntity
  8
baseplate
  6
ByBlock
 62
    0
370
   -2
100
AcDbTrace
 10
-54.45299461620743
 20
63.42562584220407
 30
0
 11
-55.49370626063953
 21
69.67562584220407
 31
0
 12
-53.41228297177533
 22
69.67562584220407
 32
0
 13
-53.41228297177533
 23
69.67562584220407
 33
0
  0
MTEXT
  5
8B
100
AcDbEntity
  8
baseplate
  6
CONTINUOUS
 62
    0
370
   -2
100
AcDbMText
 10
-49.76549461620743
 20
50.05062584220407
 30
0
 40
6.25
 41
15.625
 71
    5
 72
    1
  1
4,00
  7
STANDARD
210
0
220
0
230
1
 50
270
 73
    2
 44
1
  0
ENDBLK
  5
5E
330
5C
100
AcDbEntity
  8
0
100
AcDbBlockEnd
  0
BLOCK
  5
60
330
5F
100
AcDbEntity
  8
0
100
AcDbBlockBegin
  2
*D9
 70
    1
 10
0
 20
0
  3
*D9
  1

  0
LINE
  5
8C
100
AcDbEntity
  8
baseplate
  6
ByBlock
 62
    0
370
   -2
100
AcDbLine
 10
80.72649730810363
 20
-6.51666049839516
 11
109.7264973081036
 21
-6.516660498395163
  0
SOLID
  5
8D
100
AcDbEntity
  8
baseplate
  6
ByBlock
 62
    0
370
   -2
100
AcDbTrace
 10
93.22649730810363
 20
-6.516660498395161
 30
0
 11
86.97649730810363
 21
-7.557372142827263
 31
0
 12
86.97649730810363
 22
-5.47594885396306
 32
0
 13
86.97649730810363
 23
-5.47594885396306
 33
0
  0
SOLID
  5
8E
100
AcDbEntity
  8
baseplate
  6
ByBlock
 62
    0
370
   -2
100
AcDbTrace
 10
97.22649730810363
 20
-6.516660498395161
 30
0
 11
103.4764973081036
 21
-5.475948853963061
 31
0
 12
103.4764973081036
 22
-7.557372142827264
 32
0
 13
103.4764973081036
 23
-7.557372142827264
 33
0
  0
MTEXT
  5
8F
100
AcDbEntity
  8
baseplate
  6
CONTINUOUS
 62
    0
370
   -2
100
AcDbMText
 10
106.6014973081036
 20
-1.829160498395161
 30
0
 40
6.25
 41
15.625
 71
    5
 72
    1
  1
4,00
  7
STANDARD
210
0
220
0
230
1
 50
0
 73
    2
 44
1
  0
ENDBLK
  5
61
330
5F
100
AcDbEntity
  8
0
100
AcDbBlockEnd
  0
BLOCK
  5
63
330
62
100
AcDbEntity
  8
0
100
AcDbBlockBegin
  2
*D12
 70
    1
 10
0
 20
0
  3
*D12
  1

  0
LINE
  5
90
100
AcDbEntity
  8
baseplate
  6
ByBlock
 62
    0
370
   -2
100
AcDbLine
 10
142.4529946162067
 20
89.78203230275389
 11
142.4529946162067
 21
60.78203230275389
  0
SOLID
  5
91
100
AcDbEntity
  8
baseplate
  6
ByBlock
 62
    0
370
   -2
100
AcDbTrace
 10
142.4529946162067
 20
77.28203230275389
 30
0
 11
141.4122829717746
 21
83.53203230275389
 31
0
 12
143.4937062606388
 22
83.53203230275389
 32
0
 13
143.4937062606388
 23
83.53203230275389
 33
0
  0
SOLID
  5
92
100
AcDbEntity
  8
baseplate
  6
ByBlock
 62
    0
370
   -2
100
AcDbTrace
 10
142.4529946162067
 20
73.28203230275389
 30
0
 11
143.4937062606388
 21
67.03203230275389
 31
0
 12
141.4122829717746
 22
67.03203230275389
 32
0
 13
141.4122829717746
 23
67.03203230275389
 33
0
  0
MTEXT
  5
93
100
AcDbEntity
  8
baseplate
  6
CONTINUOUS
 62
    0
370
   -2
100
AcDbMText
 10
137.7654946162067
 20
86.65703230275389
 30
0
 40
6.25
 41
15.625
 71
    5
 72
    1
  1
4,00
  7
STANDARD
210
0
220
0
230
1
 50
90
 73
    2
 44
1
  0
ENDBLK
  5
64
330
62
100
AcDbEntity
  8
0
100
AcDbBlockEnd
  0
BLOCK
  5
66
330
65
100
AcDbEntity
  8
0
100
AcDbBlockBegin
  2
*D10
 70
    1
 10
0
 20
0
  3
*D10
  1

  0
LINE
  5
94
100
AcDbEntity
  8
baseplate
  6
ByBlock
 62
    0
370
   -2
100
AcDbLine
 10
0.3360026918915509
 20
-6.516660498395161
 11
1.898502691891551
 21
-6.516660498395161
  0
LINE
  5
95
100
AcDbEntity
  8
baseplate
  6
ByBlock
 62
    0
370
   -2
100
AcDbLine
 10
2.336002691896041
 20
-6.516660498395161
 11
3.898502691896041
 21
-6.516660498395161
  0
LINE
  5
96
100
AcDbEntity
  8
baseplate
  6
ByBlock
 62
    0
370
   -2
100
AcDbLine
 10
-13.72649730810845
 20
-6.51666049839516
 11
13.27350269189604
 21
-6.516660498395163
  0
SOLID
  5
97
100
AcDbEntity
  8
baseplate
  6
ByBlock
 62
    0
370
   -2
100
AcDbTrace
 10
-1.226497308108449
 20
-6.516660498395161
 30
0
 11
-7.476497308108449
 21
-7.557372142827263
 31
0
 12
-7.476497308108449
 22
-5.47594885396306
 32
0
 13
-7.476497308108449
 23
-5.47594885396306
 33
0
  0
SOLID
  5
98
100
AcDbEntity
  8
baseplate
  6
ByBlock
 62
    0
370
   -2
100
AcDbTrace
 10
0.7735026918960415
 20
-6.516660498395161
 30
0
 11
7.023502691896041
 21
-5.475948853963061
 31
0
 12
7.023502691896041
 22
-7.557372142827264
 32
0
 13
7.023502691896041
 23
-7.557372142827264
 33
0
  0
MTEXT
  5
99
100
AcDbEntity
  8
baseplate
  6
CONTINUOUS
 62
    0
370
   -2
100
AcDbMText
 10
9.80128046967382
 20
-1.829160498395161
 30
0
 40
6.25
 41
14.93055555555556
 71
    5
 72
    1
  1
2,00
  7
STANDARD
210
0
220
0
230
1
 50
0
 73
    2
 44
1
  0
ENDBLK
  5
67
330
65
100
AcDbEntity
  8
0
100
AcDbBlockEnd
  0
BLOCK
  5
69
330
68
100
AcDbEntity
  8
0
100
AcDbBlockBegin
  2
*D1
 70
    1
 10
0
 20
0
  3
*D1
  1

  0
LINE
  5
9A
100
AcDbEntity
  8
baseplate
  6
ByBlock
 62
    0
370
   -2
100
AcDbLine
 10
-90
 20
-16.5166604983954
 11
-90
 21
167.0807251039053
  0
SOLID
  5
9B
100
AcDbEntity
  8
baseplate
  6
ByBlock
 62
    0
370
   -2
100
AcDbTrace
 10
-90
 20
-16.5166604983954
 30
0
 11
-91.04071164443209
 21
-10.2666604983954
 31
0
 12
-88.95928835556789
 22
-10.2666604983954
 32
0
 13
-88.95928835556789
 23
-10.2666604983954
 33
0
  0
SOLID
  5
9C
100
AcDbEntity
  8
baseplate
  6
ByBlock
 62
    0
370
   -2
100
AcDbTrace
 10
-90
 20
167.0807251039053
 30
0
 11
-88.95928835556789
 21
160.8307251039053
 31
0
 12
-91.04071164443211
 22
160.8307251039053
 32
0
 13
-91.04071164443211
 23
160.8307251039053
 33
0
  0
MTEXT
  5
9D
100
AcDbEntity
  8
baseplate
  6
CONTINUOUS
 62
    0
370
   -2
100
AcDbMText
 10
-85.3125
 20
75.28203230275493
 30
0
 40
6.25
 41
23.26388888888966
 71
    5
 72
    1
  1
183,60
  7
STANDARD
210
0
220
0
230
1
 50
270
 73
    2
 44
1
  0
LINE
  5
9E
100
AcDbEntity
  8
baseplate
  6
ByBlock
 62
    0
370
   -2
100
AcDbLine
 10
-22.56250000000001
 20
-16.5166604983954
 11
-93.125
 21
-16.5166604983954
  0
LINE
  5
9F
100
AcDbEntity
  8
baseplate
  6
ByBlock
 62
    0
370
   -2
100
AcDbLine
 10
-6.562500000000199
 20
167.0807251039053
 11
-93.125
 21
167.0807251039053
  0
ENDBLK
  5
6A
330
68
100
AcDbEntity
  8
0
100
AcDbBlockEnd
  0
BLOCK
  5
6C
330
6B
100
AcDbEntity
  8
0
100
AcDbBlockBegin
  2
*D8
 70
    1
 10
0
 20
0
  3
*D8
  1

  0
LINE
  5
A0
100
AcDbEntity
  8
baseplate
  6
ByBlock
 62
    0
370
   -2
100
AcDbLine
 10
-29.72649730810376
 20
-6.516660498395386
 11
-0.7264973081037613
 21
-6.51666049839539
  0
SOLID
  5
A1
100
AcDbEntity
  8
baseplate
  6
ByBlock
 62
    0
370
   -2
100
AcDbTrace
 10
-17.22649730810376
 20
-6.516660498395388
 30
0
 11
-23.47649730810376
 21
-7.557372142827489
 31
0
 12
-23.47649730810376
 22
-5.475948853963287
 32
0
 13
-23.47649730810376
 23
-5.475948853963287
 33
0
  0
SOLID
  5
A2
100
AcDbEntity
  8
baseplate
  6
ByBlock
 62
    0
370
   -2
100
AcDbTrace
 10
-13.22649730810376
 20
-6.516660498395388
 30
0
 11
-6.976497308103761
 21
-5.475948853963287
 31
0
 12
-6.976497308103761
 22
-7.55737214282749
 32
0
 13
-6.976497308103761
 23
-7.55737214282749
 33
0
  0
MTEXT
  5
A3
100
AcDbEntity
  8
baseplate
  6
CONTINUOUS
 62
    0
370
   -2
100
AcDbMText
 10
-3.85149730810376
 20
-1.829160498395388
 30
0
 40
6.25
 41
15.625
 71
    5
 72
    1
  1
4,00
  7
STANDARD
210
0
220
0
230
1
 50
0
 73
    2
 44
1
  0
ENDBLK
  5
6D
330
6B
100
AcDbEntity
  8
0
100
AcDbBlockEnd
  0
BLOCK
  5
6F
330
6E
100
AcDbEntity
  8
0
100
AcDbBlockBegin
  2
*D2
 70
    1
 10
0
 20
0
  3
*D2
  1

  0
LINE
  5
A4
100
AcDbEntity
  8
baseplate
  6
ByBlock
 62
    0
370
   -2
100
AcDbLine
 10
-70
 20
-16.51666049839541
 11
-70
 21
61.42562584220407
  0
SOLID
  5
A5
100
AcDbEntity
  8
baseplate
  6
ByBlock
 62
    0
370
   -2
100
AcDbTrace
 10
-70
 20
-16.51666049839541
 30
0
 11
-71.04071164443209
 21
-10.26666049839541
 31
0
 12
-68.95928835556789
 22
-10.26666049839541
 32
0
 13
-68.95928835556789
 23
-10.26666049839541
 33
0
  0
SOLID
  5
A6
100
AcDbEntity
  8
baseplate
  6
ByBlock
 62
    0
370
   -2
100
AcDbTrace
 10
-70
 20
61.42562584220407
 30
0
 11
-68.95928835556789
 21
55.17562584220407
 31
0
 12
-71.04071164443211
 22
55.17562584220407
 32
0
 13
-71.04071164443211
 23
55.17562584220407
 33
0
  0
MTEXT
  5
A7
100
AcDbEntity
  8
baseplate
  6
CONTINUOUS
 62
    0
370
   -2
100
AcDbMText
 10
-65.3125
 20
22.45448267190433
 30
0
 40
6.25
 41
20.48611111111111
 71
    5
 72
    1
  1
77,94
  7
STANDARD
210
0
220
0
230
1
 50
270
 73
    2
 44
1
  0
LINE
  5
A8
100
AcDbEntity
  8
baseplate
  6
ByBlock
 62
    0
370
   -2
100
AcDbLine
 10
-22.56250000000001
 20
-16.5166604983954
 11
-73.125
 21
-16.51666049839541
  0
LINE
  5
A9
100
AcDbEntity
  8
baseplate
  6
ByBlock
 62
    0
370
   -2
100
AcDbLine
 10
-67.56249999999994
 20
61.42562584220407
 11
-73.125
 21
61.42562584220407
  0
ENDBLK
  5
70
330
6E
100
AcDbEntity
  8
0
100
AcDbBlockEnd
  0
BLOCK
  5
72
330
71
100
AcDbEntity
  8
0
100
AcDbBlockBegin
  2
*D4
 70
    1
 10
0
 20
0
  3
*D4
  1

  0
LINE
  5
AA
100
AcDbEntity
  8
baseplate
  6
ByBlock
 62
    0
370
   -2
100
AcDbLine
 10
170
 20
75.28203230275386
 11
170
 21
167.080725103905
  0
SOLID
  5
AB
100
AcDbEntity
  8
baseplate
  6
ByBlock
 62
    0
370
   -2
100
AcDbTrace
 10
170
 20
75.28203230275386
 30
0
 11
168.9592883555679
 21
81.53203230275386
 31
0
 12
171.0407116444321
 22
81.53203230275386
 32
0
 13
171.0407116444321
 23
81.53203230275386
 33
0
  0
SOLID
  5
AC
100
AcDbEntity
  8
baseplate
  6
ByBlock
 62
    0
370
   -2
100
AcDbTrace
 10
170
 20
167.080725103905
 30
0
 11
171.0407116444321
 21
160.830725103905
 31
0
 12
168.9592883555679
 22
160.830725103905
 32
0
 13
168.9592883555679
 23
160.830725103905
 33
0
  0
MTEXT
  5
AD
100
AcDbEntity
  8
baseplate
  6
CONTINUOUS
 62
    0
370
   -2
100
AcDbMText
 10
174.6875
 20
121.1813787033294
 30
0
 40
6.25
 41
18.40277777777816
 71
    5
 72
    1
  1
91,80
  7
STANDARD
210
0
220
0
230
1
 50
270
 73
    2
 44
1
  0
LINE
  5
AE
100
AcDbEntity
  8
baseplate
  6
ByBlock
 62
    0
370
   -2
100
AcDbLine
 10
155.5624999999991
 20
75.28203230275388
 11
173.125
 21
75.28203230275386
  0
LINE
  5
AF
100
AcDbEntity
  8
baseplate
  6
ByBlock
 62
    0
370
   -2
100
AcDbLine
 10
102.5625000000006
 20
167.080725103905
 11
173.125
 21
167.080725103905
  0
ENDBLK
  5
73
330
71
100
AcDbEntity
  8
0
100
AcDbBlockEnd
  0
ENDSEC
  0
SECTION
  2
ENTITIES
  0
LINE
  5
B0
100
AcDbEntity
  8
0
  6
ByLayer
 62
  256
370
   -1
100
AcDbLine
 10
16
 20
0
 11
88.00000000000001
 21
124.7076581449592
  0
LINE
  5
B1
100
AcDbEntity
  8
0
  6
ByLayer
 62
  256
370
   -1
100
AcDbLine
 10
0
 20
0
 11
72.00000000000001
 21
124.7076581449592
  0
LINE
  5
B2
100
AcDbEntity
  8
0
  6
ByLayer
 62
  256
370
   -1
100
AcDbLine
 10
-32.00000000000006
 20
55.42562584220404
 11
15.99999999999974
 21
138.5640646055098
  0
LINE
  5
B3
100
AcDbEntity
  8
0
  6
ByLayer
 62
  256
370
   -1
100
AcDbLine
 10
0
 20
0
 11
-32.00000000000001
 21
55.42562584220411
  0
LINE
  5
B4
100
AcDbEntity
  8
0
  6
ByLayer
 62
  256
370
   -1
100
AcDbLine
 10
-23.99999999999998
 20
41.56921938165303
 11
31.99999999999983
 21
138.5640646055098
  0
LINE
  5
B5
100
AcDbEntity
  8
0
  6
ByLayer
 62
  256
370
   -1
100
AcDbLine
 10
-15.99999999999999
 20
27.71281292110203
 11
47.99999999999981
 21
138.5640646055098
  0
LINE
  5
B6
100
AcDbEntity
  8
0
  6
ByLayer
 62
  256
370
   -1
100
AcDbLine
 10
-7.999984740352773
 20
13.85641527071245
 11
64.00001017309796
 21
138.5640646055098
  0
LINE
  5
B7
100
AcDbEntity
  8
0
  6
ByLayer
 62
  256
370
   -1
100
AcDbLine
 10
32
 20
0
 11
95.99999999999986
 21
110.8512516844078
  0
LINE
  5
B8
100
AcDbEntity
  8
0
  6
ByLayer
 62
  256
370
   -1
100
AcDbLine
 10
48
 20
-7.837739514543061e-15
 11
103.9999999999997
 21
96.99484522385652
  0
LINE
  5
B9
100
AcDbEntity
  8
0
  6
ByLayer
 62
  256
370
   -1
100
AcDbLine
 10
64
 20
1.959434878635765e-15
 11
111.9999999999995
 21
83.13843876330522
  0
LINE
  5
BA
100
AcDbEntity
  8
0
  6
ByLayer
 62
  256
370
   -1
100
AcDbLine
 10
80
 20
0
 11
119.9999999999993
 21
69.28203230275389
  0
LINE
  5
BB
100
AcDbEntity
  8
0
  6
ByLayer
 62
  256
370
   -1
100
AcDbLine
 10
119.9999999999993
 20
69.28203230275389
 11
80.0000000000006
 21
138.5640646055098
  0
CIRCLE
  5
BC
100
AcDbEntity
  8
0
  6
ByLayer
 62
  256
370
   -1
100
AcDbCircle
 10
15.99999999999974
 20
138.5640646055098
 40
8
  0
CIRCLE
  5
BD
100
AcDbEntity
  8
0
  6
ByLayer
 62
  256
370
   -1
100
AcDbCircle
 10
-32.00000000000001
 20
55.42562584220411
 40
8
  0
CIRCLE
  5
BE
100
AcDbEntity
  8
0
  6
ByLayer
 62
  256
370
   -1
100
AcDbCircle
 10
0
 20
0
 40
8
  0
LINE
  5
BF
100
AcDbEntity
  8
0
  6
ByLayer
 62
  256
370
   -1
100
AcDbLine
 10
7.999999999999773
 20
138.5640646055098
 11
80.0000000000006
 21
138.5640646055098
  0
CIRCLE
  5
C0
100
AcDbEntity
  8
0
  6
ByLayer
 62
  256
370
   -1
100
AcDbCircle
 10
80
 20
0
 40
8
  0
CIRCLE
  5
C1
100
AcDbEntity
  8
0
  6
ByLayer
 62
  256
370
   -1
100
AcDbCircle
 10
119.9999999999993
 20
69.28203230275389
 40
8
  0
CIRCLE
  5
C2
100
AcDbEntity
  8
0
  6
ByLayer
 62
  256
370
   -1
100
AcDbCircle
 10
88.0000000000002
 20
124.7076581449589
 40
8
  0
CIRCLE
  5
C3
100
AcDbEntity
  8
0
  6
ByLayer
 62
  256
370
   -1
100
AcDbCircle
 10
64.00001017309796
 20
138.5640646055098
 40
8
  0
LINE
  5
C4
100
AcDbEntity
  8
0
  6
ByLayer
 62
  256
370
   -1
100
AcDbLine
 10
-8
 20
0
 11
87.99999999999986
 21
7.105427357601002e-15
  0
LINE
  5
C5
100
AcDbEntity
  8
0
  6
ByLayer
 62
  256
370
   -1
100
AcDbLine
 10
-40.00000000000001
 20
55.42562584220411
 11
7.999999999999741
 21
138.5640646055098
  0
LINE
  5
C6
100
AcDbEntity
  8
0
  6
ByLayer
 62
  256
370
   -1
100
AcDbLine
 10
96.00000000000021
 20
124.7076581449589
 11
127.9999999999988
 21
69.28203230275389
  0
LINE
  5
C7
100
AcDbEntity
  8
0
  6
ByLayer
 62
  256
370
   -1
100
AcDbLine
 10
127.9999999999993
 20
69.28203230275389
 11
88
 21
-1.959434878635765e-15
  0
LINE
  5
C8
100
AcDbEntity
  8
0
  6
ByLayer
 62
  256
370
   -1
100
AcDbLine
 10
-8
 20
0
 11
-40.00000000000001
 21
55.42562584220411
  0
LINE
  5
C9
100
AcDbEntity
  8
0
  6
ByLayer
 62
  256
370
   -1
100
AcDbLine
 10
-39.99999999999991
 20
55.42562584220405
 11
120
 21
55.42562584220406
  0
LINE
  5
CA
100
AcDbEntity
  8
0
  6
ByLayer
 62
  256
370
   -1
100
AcDbLine
 10
-16.00000508654907
 20
13.85641527071245
 11
96.00000508654907
 21
13.85641527071245
  0
LINE
  5
CB
100
AcDbEntity
  8
0
  6
ByLayer
 62
  256
370
   -1
100
AcDbLine
 10
-23.99999999999999
 20
27.71281292110203
 11
104
 21
27.71281292110203
  0
LINE
  5
CC
100
AcDbEntity
  8
0
  6
ByLayer
 62
  256
370
   -1
100
AcDbLine
 10
-31.99999999999998
 20
41.56921938165303
 11
112
 21
41.56921938165303
  0
LINE
  5
CD
100
AcDbEntity
  8
0
  6
ByLayer
 62
  256
370
   -1
100
AcDbLine
 10
-32.00000000000072
 20
69.28203230275389
 11
127.9999999999988
 21
69.28203230275389
  0
LINE
  5
CE
100
AcDbEntity
  8
0
  6
ByLayer
 62
  256
370
   -1
100
AcDbLine
 10
-24.00000000000003
 20
83.13843876330611
 11
119.9999999999986
 21
83.13843876330611
  0
LINE
  5
CF
100
AcDbEntity
  8
0
  6
ByLayer
 62
  256
370
   -1
100
AcDbLine
 10
-15.99999489870135
 20
96.99485405956563
 11
111.9999948987004
 21
96.99485405956563
  0
LINE
  5
D0
100
AcDbEntity
  8
0
  6
ByLayer
 62
  256
370
   -1
100
AcDbLine
 10
-8.000000000000171
 20
110.8512516844079
 11
103.9999999999997
 21
110.8512516844079
  0
LINE
  5
D1
100
AcDbEntity
  8
0
  6
ByLayer
 62
  256
370
   -1
100
AcDbLine
 10
-1.84741111297626e-13
 20
124.7076581449589
 11
96.00000000000021
 21
124.7076581449589
  0
LINE
  5
D2
100
AcDbEntity
  8
0
  6
ByLayer
 62
  256
370
   -1
100
AcDbLine
 10
7.999999999999773
 20
138.5640646055098
 11
7.999999999999774
 21
150.5640646055098
  0
LINE
  5
D3
100
AcDbEntity
  8
0
  6
ByLayer
 62
  256
370
   -1
100
AcDbLine
 10
-1.84741111297626e-13
 20
124.7076581449589
 11
-1.840063232181376e-13
 21
136.7076581449589
  0
LINE
  5
D4
100
AcDbEntity
  8
0
  6
ByLayer
 62
  256
370
   -1
100
AcDbLine
 10
-8.000000000000171
 20
110.8512516844079
 11
-8.000000000000171
 21
122.8512516844079
  0
LINE
  5
D5
100
AcDbEntity
  8
0
  6
ByLayer
 62
  256
370
   -1
100
AcDbLine
 10
-15.99999489870135
 20
96.99485405956563
 11
-15.99999489870135
 21
108.9948540595656
  0
LINE
  5
D6
100
AcDbEntity
  8
0
  6
ByLayer
 62
  256
370
   -1
100
AcDbLine
 10
-24.00000000000003
 20
83.13843876330611
 11
-24.00000000000003
 21
95.13843876330611
  0
LINE
  5
D7
100
AcDbEntity
  8
0
  6
ByLayer
 62
  256
370
   -1
100
AcDbLine
 10
-32.00000000000072
 20
69.28203230275389
 11
-32.00000000000072
 21
81.28203230275389
  0
LINE
  5
D8
100
AcDbEntity
  8
0
  6
ByLayer
 62
  256
370
   -1
100
AcDbLine
 10
-39.99999999999991
 20
55.42562584220405
 11
-39.99999999999991
 21
67.42562584220406
  0
LINE
  5
D9
100
AcDbEntity
  8
0
  6
ByLayer
 62
  256
370
   -1
100
AcDbLine
 10
-31.99999999999998
 20
41.56921938165303
 11
-31.99999999999998
 21
53.56921938165303
  0
LINE
  5
DA
100
AcDbEntity
  8
0
  6
ByLayer
 62
  256
370
   -1
100
AcDbLine
 10
-23.99999999999999
 20
27.71281292110203
 11
-23.99999999999999
 21
39.71281292110203
  0
LINE
  5
DB
100
AcDbEntity
  8
0
  6
ByLayer
 62
  256
370
   -1
100
AcDbLine
 10
-16.00000508654907
 20
13.85641527071245
 11
-16.00000508654907
 21
25.85641527071245
  0
LINE
  5
DC
100
AcDbEntity
  8
0
  6
ByLayer
 62
  256
370
   -1
100
AcDbLine
 10
-8
 20
9.797174393178826e-16
 11
-7.999999999999999
 21
12
  0
LINE
  5
DD
100
AcDbEntity
  8
0
  6
ByLayer
 62
  256
370
   -1
100
AcDbLine
 10
88
 20
0
 11
88
 21
12
  0
LINE
  5
DE
100
AcDbEntity
  8
0
  6
ByLayer
 62
  256
370
   -1
100
AcDbLine
 10
96.00000508654907
 20
13.85641527071245
 11
96.00000508654907
 21
25.85641527071245
  0
LINE
  5
DF
100
AcDbEntity
  8
0
  6
ByLayer
 62
  256
370
   -1
100
AcDbLine
 10
104
 20
27.71281292110203
 11
104
 21
39.71281292110203
  0
LINE
  5
E0
100
AcDbEntity
  8
0
  6
ByLayer
 62
  256
370
   -1
100
AcDbLine
 10
112
 20
41.56921938165303
 11
112
 21
53.56921938165303
  0
LINE
  5
E1
100
AcDbEntity
  8
0
  6
ByLayer
 62
  256
370
   -1
100
AcDbLine
 10
120
 20
55.42562584220406
 11
120
 21
67.42562584220406
  0
LINE
  5
E2
100
AcDbEntity
  8
0
  6
ByLayer
 62
  256
370
   -1
100
AcDbLine
 10
127.9999999999993
 20
69.28203230275389
 11
127.9999999999993
 21
81.28203230275389
  0
LINE
  5
E3
100
AcDbEntity
  8
0
  6
ByLayer
 62
  256
370
   -1
100
AcDbLine
 10
119.9999999999986
 20
83.13843876330611
 11
119.9999999999986
 21
95.13843876330611
  0
LINE
  5
E4
100
AcDbEntity
  8
0
  6
ByLayer
 62
  256
370
   -1
100
AcDbLine
 10
111.9999948987004
 20
96.99485405956563
 11
111.9999948987004
 21
108.9948540595656
  0
LINE
  5
E5
100
AcDbEntity
  8
0
  6
ByLayer
 62
  256
370
   -1
100
AcDbLine
 10
103.9999999999997
 20
110.8512516844079
 11
103.9999999999997
 21
122.8512516844079
  0
LINE
  5
E6
100
AcDbEntity
  8
0
  6
ByLayer
 62
  256
370
   -1
100
AcDbLine
 10
96.00000000000021
 20
124.7076581449589
 11
96.00000000000021
 21
136.7076581449589
  0
LINE
  5
E7
100
AcDbEntity
  8
0
  6
ByLayer
 62
  256
370
   -1
100
AcDbLine
 10
72.00001017309796
 20
138.5640646055098
 11
72.00001017309796
 21
150.5640646055098
  0
LINE
  5
E8
100
AcDbEntity
  8
strips
  6
ByLayer
 62
  256
370
   -1
100
AcDbLine
 10
7.999999999999773
 20
138.5640646055098
 11
72.00001017309796
 21
138.5640646055098
  0
LINE
  5
E9
100
AcDbEntity
  8
strips
  6
ByLayer
 62
  256
370
   -1
100
AcDbLine
 10
72.00001017309796
 20
138.5640646055098
 11
72.00001017309796
 21
150.5640646055098
  0
LINE
  5
EA
100
AcDbEntity
  8
strips
  6
ByLayer
 62
  256
370
   -1
100
AcDbLine
 10
72.00001017309796
 20
150.5640646055098
 11
7.999999999999773
 21
150.5640646055098
  0
LINE
  5
EB
100
AcDbEntity
  8
strips
  6
ByLayer
 62
  256
370
   -1
100
AcDbLine
 10
7.999999999999773
 20
150.5640646055098
 11
7.999999999999773
 21
138.5640646055098
  0
LINE
  5
EC
100
AcDbEntity
  8
strips
  6
ByLayer
 62
  256
370
   -1
100
AcDbLine
 10
96.00000000000021
 20
136.7076581449589
 11
-1.84741111297626e-13
 21
136.7076581449589
  0
LINE
  5
ED
100
AcDbEntity
  8
strips
  6
ByLayer
 62
  256
370
   -1
100
AcDbLine
 10
-1.84741111297626e-13
 20
136.7076581449589
 11
-1.84741111297626e-13
 21
124.7076581449589
  0
LINE
  5
EE
100
AcDbEntity
  8
strips
  6
ByLayer
 62
  256
370
   -1
100
AcDbLine
 10
-1.84741111297626e-13
 20
124.7076581449589
 11
96.00000000000021
 21
124.7076581449589
  0
LINE
  5
EF
100
AcDbEntity
  8
strips
  6
ByLayer
 62
  256
370
   -1
100
AcDbLine
 10
96.00000000000021
 20
124.7076581449589
 11
96.00000000000021
 21
136.7076581449589
  0
LINE
  5
F0
100
AcDbEntity
  8
strips
  6
ByLayer
 62
  256
370
   -1
100
AcDbLine
 10
-8.000000000000171
 20
110.8512516844079
 11
103.9999999999997
 21
110.8512516844079
  0
LINE
  5
F1
100
AcDbEntity
  8
strips
  6
ByLayer
 62
  256
370
   -1
100
AcDbLine
 10
103.9999999999997
 20
110.8512516844079
 11
103.9999999999997
 21
122.8512516844079
  0
LINE
  5
F2
100
AcDbEntity
  8
strips
  6
ByLayer
 62
  256
370
   -1
100
AcDbLine
 10
103.9999999999997
 20
122.8512516844079
 11
-8.000000000000171
 21
122.8512516844079
  0
LINE
  5
F3
100
AcDbEntity
  8
strips
  6
ByLayer
 62
  256
370
   -1
100
AcDbLine
 10
-8.000000000000171
 20
122.8512516844079
 11
-8.000000000000171
 21
110.8512516844079
  0
LINE
  5
F4
100
AcDbEntity
  8
strips
  6
ByLayer
 62
  256
370
   -1
100
AcDbLine
 10
111.9999948987004
 20
108.9948540595656
 11
-15.99999489870135
 21
108.9948540595656
  0
LINE
  5
F5
100
AcDbEntity
  8
strips
  6
ByLayer
 62
  256
370
   -1
100
AcDbLine
 10
-15.99999489870135
 20
108.9948540595656
 11
-15.99999489870135
 21
96.99485405956563
  0
LINE
  5
F6
100
AcDbEntity
  8
strips
  6
ByLayer
 62
  256
370
   -1
100
AcDbLine
 10
-15.99999489870135
 20
96.99485405956563
 11
111.9999948987004
 21
96.99485405956563
  0
LINE
  5
F7
100
AcDbEntity
  8
strips
  6
ByLayer
 62
  256
370
   -1
100
AcDbLine
 10
111.9999948987004
 20
96.99485405956563
 11
111.9999948987004
 21
108.9948540595656
  0
LINE
  5
F8
100
AcDbEntity
  8
strips
  6
ByLayer
 62
  256
370
   -1
100
AcDbLine
 10
-24.00000000000003
 20
95.13843876330611
 11
119.9999999999986
 21
95.13843876330611
  0
LINE
  5
F9
100
AcDbEntity
  8
strips
  6
ByLayer
 62
  256
370
   -1
100
AcDbLine
 10
119.9999999999986
 20
95.13843876330611
 11
119.9999999999986
 21
83.13843876330611
  0
LINE
  5
FA
100
AcDbEntity
  8
strips
  6
ByLayer
 62
  256
370
   -1
100
AcDbLine
 10
119.9999999999986
 20
83.13843876330611
 11
-24.00000000000003
 21
83.13843876330611
  0
LINE
  5
FB
100
AcDbEntity
  8
strips
  6
ByLayer
 62
  256
370
   -1
100
AcDbLine
 10
-24.00000000000003
 20
83.13843876330611
 11
-24.00000000000003
 21
95.13843876330611
  0
LINE
  5
FC
100
AcDbEntity
  8
strips
  6
ByLayer
 62
  256
370
   -1
100
AcDbLine
 10
127.9999999999993
 20
81.28203230275389
 11
-32.00000000000072
 21
81.28203230275389
  0
LINE
  5
FD
100
AcDbEntity
  8
strips
  6
ByLayer
 62
  256
370
   -1
100
AcDbLine
 10
-32.00000000000072
 20
81.28203230275389
 11
-32.00000000000072
 21
69.28203230275389
  0
LINE
  5
FE
100
AcDbEntity
  8
strips
  6
ByLayer
 62
  256
370
   -1
100
AcDbLine
 10
-32.00000000000072
 20
69.28203230275389
 11
127.9999999999993
 21
69.28203230275389
  0
LINE
  5
FF
100
AcDbEntity
  8
strips
  6
ByLayer
 62
  256
370
   -1
100
AcDbLine
 10
127.9999999999993
 20
69.28203230275389
 11
127.9999999999993
 21
81.28203230275389
  0
LINE
  5
100
100
AcDbEntity
  8
strips
  6
ByLayer
 62
  256
370
   -1
100
AcDbLine
 10
-39.99999999999991
 20
67.42562584220406
 11
120
 21
67.42562584220406
  0
LINE
  5
101
100
AcDbEntity
  8
strips
  6
ByLayer
 62
  256
370
   -1
100
AcDbLine
 10
120
 20
67.42562584220406
 11
120
 21
55.42562584220406
  0
LINE
  5
102
100
AcDbEntity
  8
strips
  6
ByLayer
 62
  256
370
   -1
100
AcDbLine
 10
120
 20
55.42562584220406
 11
-39.99999999999991
 21
55.42562584220406
  0
LINE
  5
103
100
AcDbEntity
  8
strips
  6
ByLayer
 62
  256
370
   -1
100
AcDbLine
 10
-39.99999999999991
 20
55.42562584220406
 11
-39.99999999999991
 21
67.42562584220406
  0
LINE
  5
104
100
AcDbEntity
  8
strips
  6
ByLayer
 62
  256
370
   -1
100
AcDbLine
 10
112
 20
53.56921938165303
 11
-31.99999999999998
 21
53.56921938165303
  0
LINE
  5
105
100
AcDbEntity
  8
strips
  6
ByLayer
 62
  256
370
   -1
100
AcDbLine
 10
-31.99999999999998
 20
53.56921938165303
 11
-31.99999999999998
 21
41.56921938165303
  0
LINE
  5
106
100
AcDbEntity
  8
strips
  6
ByLayer
 62
  256
370
   -1
100
AcDbLine
 10
-31.99999999999998
 20
41.56921938165303
 11
112
 21
41.56921938165303
  0
LINE
  5
107
100
AcDbEntity
  8
strips
  6
ByLayer
 62
  256
370
   -1
100
AcDbLine
 10
112
 20
41.56921938165303
 11
112
 21
53.56921938165303
  0
LINE
  5
108
100
AcDbEntity
  8
strips
  6
ByLayer
 62
  256
370
   -1
100
AcDbLine
 10
-23.99999999999999
 20
39.71281292110203
 11
104
 21
39.71281292110203
  0
LINE
  5
109
100
AcDbEntity
  8
strips
  6
ByLayer
 62
  256
370
   -1
100
AcDbLine
 10
104
 20
39.71281292110203
 11
104
 21
27.71281292110203
  0
LINE
  5
10A
100
AcDbEntity
  8
strips
  6
ByLayer
 62
  256
370
   -1
100
AcDbLine
 10
104
 20
27.71281292110203
 11
-23.99999999999999
 21
27.71281292110203
  0
LINE
  5
10B
100
AcDbEntity
  8
strips
  6
ByLayer
 62
  256
370
   -1
100
AcDbLine
 10
-23.99999999999999
 20
27.71281292110203
 11
-23.99999999999999
 21
39.71281292110203
  0
LINE
  5
10C
100
AcDbEntity
  8
strips
  6
ByLayer
 62
  256
370
   -1
100
AcDbLine
 10
96.00000508654907
 20
25.85641527071245
 11
-16.00000508654907
 21
25.85641527071245
  0
LINE
  5
10D
100
AcDbEntity
  8
strips
  6
ByLayer
 62
  256
370
   -1
100
AcDbLine
 10
-16.00000508654907
 20
25.85641527071245
 11
-16.00000508654907
 21
13.85641527071245
  0
LINE
  5
10E
100
AcDbEntity
  8
strips
  6
ByLayer
 62
  256
370
   -1
100
AcDbLine
 10
-16.00000508654907
 20
13.85641527071245
 11
96.00000508654907
 21
13.85641527071245
  0
LINE
  5
10F
100
AcDbEntity
  8
strips
  6
ByLayer
 62
  256
370
   -1
100
AcDbLine
 10
96.00000508654907
 20
13.85641527071245
 11
96.00000508654907
 21
25.85641527071245
  0
LINE
  5
110
100
AcDbEntity
  8
strips
  6
ByLayer
 62
  256
370
   -1
100
AcDbLine
 10
-7.999999999999999
 20
12
 11
87.99999999999986
 21
12
  0
LINE
  5
111
100
AcDbEntity
  8
strips
  6
ByLayer
 62
  256
370
   -1
100
AcDbLine
 10
87.99999999999986
 20
12
 11
87.99999999999986
 21
7.105427357601002e-15
  0
LINE
  5
112
100
AcDbEntity
  8
strips
  6
ByLayer
 62
  256
370
   -1
100
AcDbLine
 10
87.99999999999986
 20
7.105427357601002e-15
 11
-7.999999999999999
 21
7.105427357601002e-15
  0
LINE
  5
113
100
AcDbEntity
  8
strips
  6
ByLayer
 62
  256
370
   -1
100
AcDbLine
 10
-7.999999999999999
 20
7.105427357601002e-15
 11
-7.999999999999999
 21
12
  0
LINE
  5
114
100
AcDbEntity
  8
strips
  6
ByLayer
 62
  256
370
   -1
100
AcDbLine
 10
8
 20
3.186557600329472e-15
 11
8
 21
12
  0
LINE
  5
115
100
AcDbEntity
  8
strips
  6
ByLayer
 62
  256
370
   -1
100
AcDbLine
 10
24
 20
-7.323121569420587e-16
 11
24
 21
11.99999999999999
  0
LINE
  5
116
100
AcDbEntity
  8
strips
  6
ByLayer
 62
  256
370
   -1
100
AcDbLine
 10
40
 20
-4.651181914213588e-15
 11
40
 21
11.99999999999999
  0
LINE
  5
117
100
AcDbEntity
  8
strips
  6
ByLayer
 62
  256
370
   -1
100
AcDbLine
 10
56
 20
-8.570051671485119e-15
 11
56
 21
11.99999999999998
  0
LINE
  5
118
100
AcDbEntity
  8
strips
  6
ByLayer
 62
  256
370
   -1
100
AcDbLine
 10
72
 20
-1.248892142875665e-14
 11
72
 21
11.99999999999998
  0
LINE
  5
119
100
AcDbEntity
  8
strips
  6
ByLayer
 62
  256
370
   -1
100
AcDbLine
 10
-5.086549069943658e-06
 20
25.85641527071245
 11
-5.086549069943658e-06
 21
13.85641527071245
  0
LINE
  5
11A
100
AcDbEntity
  8
strips
  6
ByLayer
 62
  256
370
   -1
100
AcDbLine
 10
15.99999491345093
 20
25.85641527071244
 11
15.99999491345093
 21
13.85641527071244
  0
LINE
  5
11B
100
AcDbEntity
  8
strips
  6
ByLayer
 62
  256
370
   -1
100
AcDbLine
 10
31.99999491345093
 20
25.85641527071244
 11
31.99999491345093
 21
13.85641527071244
  0
LINE
  5
11C
100
AcDbEntity
  8
strips
  6
ByLayer
 62
  256
370
   -1
100
AcDbLine
 10
47.99999491345093
 20
25.85641527071244
 11
47.99999491345093
 21
13.85641527071243
  0
LINE
  5
11D
100
AcDbEntity
  8
strips
  6
ByLayer
 62
  256
370
   -1
100
AcDbLine
 10
63.99999491345093
 20
25.85641527071243
 11
63.99999491345093
 21
13.85641527071243
  0
LINE
  5
11E
100
AcDbEntity
  8
strips
  6
ByLayer
 62
  256
370
   -1
100
AcDbLine
 10
79.99999491345093
 20
25.85641527071243
 11
79.99999491345093
 21
13.85641527071243
  0
LINE
  5
11F
100
AcDbEntity
  8
strips
  6
ByLayer
 62
  256
370
   -1
100
AcDbLine
 10
-7.999999999999989
 20
27.71281292110203
 11
-7.999999999999989
 21
39.71281292110202
  0
LINE
  5
120
100
AcDbEntity
  8
strips
  6
ByLayer
 62
  256
370
   -1
100
AcDbLine
 10
8.000000000000011
 20
27.71281292110202
 11
8.000000000000011
 21
39.71281292110202
  0
LINE
  5
121
100
AcDbEntity
  8
strips
  6
ByLayer
 62
  256
370
   -1
100
AcDbLine
 10
24.00000000000001
 20
27.71281292110202
 11
24.00000000000001
 21
39.71281292110201
  0
LINE
  5
122
100
AcDbEntity
  8
strips
  6
ByLayer
 62
  256
370
   -1
100
AcDbLine
 10
40.00000000000001
 20
27.71281292110202
 11
40.00000000000001
 21
39.71281292110201
  0
LINE
  5
123
100
AcDbEntity
  8
strips
  6
ByLayer
 62
  256
370
   -1
100
AcDbLine
 10
56.00000000000001
 20
27.71281292110201
 11
56.00000000000001
 21
39.71281292110201
  0
LINE
  5
124
100
AcDbEntity
  8
strips
  6
ByLayer
 62
  256
370
   -1
100
AcDbLine
 10
72.00000000000001
 20
27.71281292110201
 11
72.00000000000001
 21
39.71281292110201
  0
LINE
  5
125
100
AcDbEntity
  8
strips
  6
ByLayer
 62
  256
370
   -1
100
AcDbLine
 10
88.00000000000001
 20
27.712812921102
 11
88.00000000000001
 21
39.712812921102
  0
LINE
  5
126
100
AcDbEntity
  8
strips
  6
ByLayer
 62
  256
370
   -1
100
AcDbLine
 10
-15.99999999999998
 20
53.56921938165302
 11
-15.99999999999998
 21
41.56921938165302
  0
LINE
  5
127
100
AcDbEntity
  8
strips
  6
ByLayer
 62
  256
370
   -1
100
AcDbLine
 10
2.131628207280301e-14
 20
53.56921938165302
 11
2.131628207280301e-14
 21
41.56921938165302
  0
LINE
  5
128
100
AcDbEntity
  8
strips
  6
ByLayer
 62
  256
370
   -1
100
AcDbLine
 10
16.00000000000002
 20
53.56921938165301
 11
16.00000000000002
 21
41.56921938165301
  0
LINE
  5
129
100
AcDbEntity
  8
strips
  6
ByLayer
 62
  256
370
   -1
100
AcDbLine
 10
32.00000000000002
 20
53.56921938165301
 11
32.00000000000002
 21
41.56921938165301
  0
LINE
  5
12A
100
AcDbEntity
  8
strips
  6
ByLayer
 62
  256
370
   -1
100
AcDbLine
 10
48.00000000000002
 20
53.56921938165301
 11
48.00000000000002
 21
41.56921938165301
  0
LINE
  5
12B
100
AcDbEntity
  8
strips
  6
ByLayer
 62
  256
370
   -1
100
AcDbLine
 10
64.00000000000003
 20
53.56921938165301
 11
64.00000000000003
 21
41.56921938165301
  0
LINE
  5
12C
100
AcDbEntity
  8
strips
  6
ByLayer
 62
  256
370
   -1
100
AcDbLine
 10
80.00000000000003
 20
53.569219381653
 11
80.00000000000003
 21
41.569219381653
  0
LINE
  5
12D
100
AcDbEntity
  8
strips
  6
ByLayer
 62
  256
370
   -1
100
AcDbLine
 10
96.00000000000003
 20
53.569219381653
 11
96.00000000000003
 21
41.569219381653
  0
LINE
  5
12E
100
AcDbEntity
  8
strips
  6
ByLayer
 62
  256
370
   -1
100
AcDbLine
 10
-23.99999999999991
 20
55.42562584220406
 11
-23.99999999999991
 21
67.42562584220406
  0
LINE
  5
12F
100
AcDbEntity
  8
strips
  6
ByLayer
 62
  256
370
   -1
100
AcDbLine
 10
-7.999999999999908
 20
55.42562584220406
 11
-7.999999999999908
 21
67.42562584220404
  0
LINE
  5
130
100
AcDbEntity
  8
strips
  6
ByLayer
 62
  256
370
   -1
100
AcDbLine
 10
8.000000000000092
 20
55.42562584220405
 11
8.000000000000092
 21
67.42562584220404
  0
LINE
  5
131
100
AcDbEntity
  8
strips
  6
ByLayer
 62
  256
370
   -1
100
AcDbLine
 10
24.00000000000009
 20
55.42562584220405
 11
24.00000000000009
 21
67.42562584220404
  0
LINE
  5
132
100
AcDbEntity
  8
strips
  6
ByLayer
 62
  256
370
   -1
100
AcDbLine
 10
40.00000000000009
 20
55.42562584220404
 11
40.00000000000009
 21
67.42562584220404
  0
LINE
  5
133
100
AcDbEntity
  8
strips
  6
ByLayer
 62
  256
370
   -1
100
AcDbLine
 10
56.00000000000009
 20
55.42562584220404
 11
56.00000000000009
 21
67.42562584220403
  0
LINE
  5
134
100
AcDbEntity
  8
strips
  6
ByLayer
 62
  256
370
   -1
100
AcDbLine
 10
72.00000000000009
 20
55.42562584220403
 11
72.00000000000009
 21
67.42562584220403
  0
LINE
  5
135
100
AcDbEntity
  8
strips
  6
ByLayer
 62
  256
370
   -1
100
AcDbLine
 10
88.00000000000009
 20
55.42562584220403
 11
88.00000000000009
 21
67.42562584220403
  0
LINE
  5
136
100
AcDbEntity
  8
strips
  6
ByLayer
 62
  256
370
   -1
100
AcDbLine
 10
104.0000000000001
 20
55.42562584220403
 11
104.0000000000001
 21
67.42562584220403
  0
LINE
  5
137
100
AcDbEntity
  8
strips
  6
ByLayer
 62
  256
370
   -1
100
AcDbLine
 10
-16.00000000000072
 20
81.28203230275389
 11
-16.00000000000072
 21
69.28203230275389
  0
LINE
  5
138
100
AcDbEntity
  8
strips
  6
ByLayer
 62
  256
370
   -1
100
AcDbLine
 10
-7.176481631177012e-13
 20
81.28203230275388
 11
-7.176481631177012e-13
 21
69.28203230275388
  0
LINE
  5
139
100
AcDbEntity
  8
strips
  6
ByLayer
 62
  256
370
   -1
100
AcDbLine
 10
15.99999999999928
 20
81.28203230275388
 11
15.99999999999928
 21
69.28203230275388
  0
LINE
  5
13A
100
AcDbEntity
  8
strips
  6
ByLayer
 62
  256
370
   -1
100
AcDbLine
 10
31.99999999999928
 20
81.28203230275388
 11
31.99999999999928
 21
69.28203230275388
  0
LINE
  5
13B
100
AcDbEntity
  8
strips
  6
ByLayer
 62
  256
370
   -1
100
AcDbLine
 10
47.99999999999928
 20
81.28203230275388
 11
47.99999999999928
 21
69.28203230275388
  0
LINE
  5
13C
100
AcDbEntity
  8
strips
  6
ByLayer
 62
  256
370
   -1
100
AcDbLine
 10
63.99999999999928
 20
81.28203230275386
 11
63.99999999999928
 21
69.28203230275386
  0
LINE
  5
13D
100
AcDbEntity
  8
strips
  6
ByLayer
 62
  256
370
   -1
100
AcDbLine
 10
79.99999999999929
 20
81.28203230275386
 11
79.99999999999929
 21
69.28203230275386
  0
LINE
  5
13E
100
AcDbEntity
  8
strips
  6
ByLayer
 62
  256
370
   -1
100
AcDbLine
 10
95.99999999999929
 20
81.28203230275386
 11
95.99999999999929
 21
69.28203230275386
  0
LINE
  5
13F
100
AcDbEntity
  8
strips
  6
ByLayer
 62
  256
370
   -1
100
AcDbLine
 10
111.9999999999993
 20
81.28203230275386
 11
111.9999999999993
 21
69.28203230275386
  0
LINE
  5
140
100
AcDbEntity
  8
strips
  6
ByLayer
 62
  256
370
   -1
100
AcDbLine
 10
-8.000000000000028
 20
83.13843876330611
 11
-8.000000000000028
 21
95.13843876330611
  0
LINE
  5
141
100
AcDbEntity
  8
strips
  6
ByLayer
 62
  256
370
   -1
100
AcDbLine
 10
7.999999999999972
 20
83.1384387633061
 11
7.999999999999972
 21
95.1384387633061
  0
LINE
  5
142
100
AcDbEntity
  8
strips
  6
ByLayer
 62
  256
370
   -1
100
AcDbLine
 10
23.99999999999997
 20
83.1384387633061
 11
23.99999999999997
 21
95.1384387633061
  0
LINE
  5
143
100
AcDbEntity
  8
strips
  6
ByLayer
 62
  256
370
   -1
100
AcDbLine
 10
39.99999999999997
 20
83.1384387633061
 11
39.99999999999997
 21
95.1384387633061
  0
LINE
  5
144
100
AcDbEntity
  8
strips
  6
ByLayer
 62
  256
370
   -1
100
AcDbLine
 10
55.99999999999997
 20
83.1384387633061
 11
55.99999999999997
 21
95.1384387633061
  0
LINE
  5
145
100
AcDbEntity
  8
strips
  6
ByLayer
 62
  256
370
   -1
100
AcDbLine
 10
71.99999999999997
 20
83.13843876330608
 11
71.99999999999997
 21
95.13843876330608
  0
LINE
  5
146
100
AcDbEntity
  8
strips
  6
ByLayer
 62
  256
370
   -1
100
AcDbLine
 10
87.99999999999997
 20
83.13843876330608
 11
87.99999999999997
 21
95.13843876330608
  0
LINE
  5
147
100
AcDbEntity
  8
strips
  6
ByLayer
 62
  256
370
   -1
100
AcDbLine
 10
104
 20
83.13843876330608
 11
104
 21
95.13843876330608
  0
LINE
  5
148
100
AcDbEntity
  8
strips
  6
ByLayer
 62
  256
370
   -1
100
AcDbLine
 10
7.999999999999829
 20
122.8512516844079
 11
7.999999999999829
 21
110.8512516844079
  0
LINE
  5
149
100
AcDbEntity
  8
strips
  6
ByLayer
 62
  256
370
   -1
100
AcDbLine
 10
23.99999999999983
 20
122.8512516844079
 11
23.99999999999983
 21
110.8512516844079
  0
LINE
  5
14A
100
AcDbEntity
  8
strips
  6
ByLayer
 62
  256
370
   -1
100
AcDbLine
 10
39.99999999999983
 20
122.8512516844079
 11
39.99999999999983
 21
110.8512516844079
  0
LINE
  5
14B
100
AcDbEntity
  8
strips
  6
ByLayer
 62
  256
370
   -1
100
AcDbLine
 10
55.99999999999983
 20
122.8512516844079
 11
55.99999999999983
 21
110.8512516844079
  0
LINE
  5
14C
100
AcDbEntity
  8
strips
  6
ByLayer
 62
  256
370
   -1
100
AcDbLine
 10
71.99999999999983
 20
122.8512516844079
 11
71.99999999999983
 21
110.8512516844079
  0
LINE
  5
14D
100
AcDbEntity
  8
strips
  6
ByLayer
 62
  256
370
   -1
100
AcDbLine
 10
87.99999999999983
 20
122.8512516844079
 11
87.99999999999983
 21
110.8512516844079
  0
LINE
  5
14E
100
AcDbEntity
  8
strips
  6
ByLayer
 62
  256
370
   -1
100
AcDbLine
 10
103.9999999999998
 20
122.8512516844079
 11
103.9999999999998
 21
110.8512516844079
  0
LINE
  5
14F
100
AcDbEntity
  8
strips
  6
ByLayer
 62
  256
370
   -1
100
AcDbLine
 10
15.99999999999982
 20
136.7076581449589
 11
15.99999999999982
 21
124.7076581449589
  0
LINE
  5
150
100
AcDbEntity
  8
strips
  6
ByLayer
 62
  256
370
   -1
100
AcDbLine
 10
31.99999999999982
 20
136.7076581449589
 11
31.99999999999982
 21
124.7076581449589
  0
LINE
  5
151
100
AcDbEntity
  8
strips
  6
ByLayer
 62
  256
370
   -1
100
AcDbLine
 10
47.99999999999982
 20
136.7076581449589
 11
47.99999999999982
 21
124.7076581449589
  0
LINE
  5
152
100
AcDbEntity
  8
strips
  6
ByLayer
 62
  256
370
   -1
100
AcDbLine
 10
63.99999999999982
 20
136.7076581449589
 11
63.99999999999982
 21
124.7076581449589
  0
LINE
  5
153
100
AcDbEntity
  8
strips
  6
ByLayer
 62
  256
370
   -1
100
AcDbLine
 10
79.99999999999982
 20
136.7076581449589
 11
79.99999999999982
 21
124.7076581449589
  0
LINE
  5
154
100
AcDbEntity
  8
strips
  6
ByLayer
 62
  256
370
   -1
100
AcDbLine
 10
95.99999999999982
 20
136.7076581449589
 11
95.99999999999982
 21
124.7076581449589
  0
LINE
  5
155
100
AcDbEntity
  8
strips
  6
ByLayer
 62
  256
370
   -1
100
AcDbLine
 10
23.99999999999977
 20
150.5640646055098
 11
23.99999999999977
 21
138.5640646055098
  0
LINE
  5
156
100
AcDbEntity
  8
strips
  6
ByLayer
 62
  256
370
   -1
100
AcDbLine
 10
39.99999999999977
 20
150.5640646055098
 11
39.99999999999977
 21
138.5640646055098
  0
LINE
  5
157
100
AcDbEntity
  8
strips
  6
ByLayer
 62
  256
370
   -1
100
AcDbLine
 10
55.99999999999977
 20
150.5640646055098
 11
55.99999999999977
 21
138.5640646055098
  0
LINE
  5
158
100
AcDbEntity
  8
strips
  6
ByLayer
 62
  256
370
   -1
100
AcDbLine
 10
5.101298649279329e-06
 20
108.9948540595656
 11
5.101298649279329e-06
 21
96.99485405956563
  0
LINE
  5
159
100
AcDbEntity
  8
strips
  6
ByLayer
 62
  256
370
   -1
100
AcDbLine
 10
16.00000510129865
 20
108.9948540595656
 11
16.00000510129865
 21
96.99485405956561
  0
LINE
  5
15A
100
AcDbEntity
  8
strips
  6
ByLayer
 62
  256
370
   -1
100
AcDbLine
 10
32.00000510129865
 20
108.9948540595656
 11
32.00000510129865
 21
96.99485405956561
  0
LINE
  5
15B
100
AcDbEntity
  8
strips
  6
ByLayer
 62
  256
370
   -1
100
AcDbLine
 10
48.00000510129865
 20
108.9948540595656
 11
48.00000510129865
 21
96.99485405956561
  0
LINE
  5
15C
100
AcDbEntity
  8
strips
  6
ByLayer
 62
  256
370
   -1
100
AcDbLine
 10
64.00000510129865
 20
108.9948540595656
 11
64.00000510129865
 21
96.99485405956561
  0
LINE
  5
15D
100
AcDbEntity
  8
strips
  6
ByLayer
 62
  256
370
   -1
100
AcDbLine
 10
80.00000510129865
 20
108.9948540595656
 11
80.00000510129865
 21
96.9948540595656
  0
LINE
  5
15E
100
AcDbEntity
  8
strips
  6
ByLayer
 62
  256
370
   -1
100
AcDbLine
 10
96.00000510129865
 20
108.9948540595656
 11
96.00000510129865
 21
96.9948540595656
  0
CIRCLE
  5
15F
100
AcDbEntity
  8
plate_construction
  6
ByLayer
 62
  256
370
   -1
100
AcDbCircle
 10
-39.99999999999991
 20
61.42562584220406
 40
20
  0
CIRCLE
  5
160
100
AcDbEntity
  8
plate_construction
  6
ByLayer
 62
  256
370
   -1
100
AcDbCircle
 10
127.9999999999993
 20
75.28203230275389
 40
20
  0
LINE
  5
161
100
AcDbEntity
  8
plate_construction
  6
ByLayer
 62
  256
370
   -1
100
AcDbLine
 10
-39.99999999999991
 20
61.42562584220406
 11
7.999999999999774
 21
144.5640646055098
  0
CIRCLE
  5
162
100
AcDbEntity
  8
plate_construction
  6
ByLayer
 62
  256
370
   -1
100
AcDbCircle
 10
7.999999999999774
 20
144.5640646055098
 40
20
  0
LINE
  5
163
100
AcDbEntity
  8
plate_construction
  6
ByLayer
 62
  256
370
   -1
100
AcDbLine
 10
7.999999999999773
 20
144.5640646055098
 11
7.999999999999774
 21
164.5640646055098
  0
LINE
  5
164
100
AcDbEntity
  8
plate_construction
  6
ByLayer
 62
  256
370
   -1
100
AcDbLine
 10
7.999999999999773
 20
144.5640646055098
 11
88.00000000000063
 21
144.5640646055098
  0
LINE
  5
165
100
AcDbEntity
  8
plate_construction
  6
ByLayer
 62
  256
370
   -1
100
AcDbLine
 10
127.9999999999993
 20
75.28203230275389
 11
88.00000000000063
 21
144.5640646055098
  0
CIRCLE
  5
166
100
AcDbEntity
  8
plate_construction
  6
ByLayer
 62
  256
370
   -1
100
AcDbCircle
 10
88.00000000000065
 20
144.5640646055098
 40
20
  0
CIRCLE
  5
167
100
AcDbEntity
  8
plate_construction
  6
ByLayer
 62
  256
370
   -1
100
AcDbCircle
 10
-7.999999999999999
 20
6.000000000000004
 40
20
  0
CIRCLE
  5
168
100
AcDbEntity
  8
plate_construction
  6
ByLayer
 62
  256
370
   -1
100
AcDbCircle
 10
87.99999999999986
 20
6.000000000000004
 40
20
  0
CIRCLE
  5
169
100
AcDbEntity
  8
plate_construction
  6
ByLayer
 62
  256
370
   -1
100
AcDbCircle
 10
88.00000000000065
 20
144.5640646055098
 40
26
  0
CIRCLE
  5
16A
100
AcDbEntity
  8
plate_construction
  6
ByLayer
 62
  256
370
   -1
100
AcDbCircle
 10
7.999999999999773
 20
144.5640646055098
 40
26
  0
CIRCLE
  5
16B
100
AcDbEntity
  8
plate_construction
  6
ByLayer
 62
  256
370
   -1
100
AcDbCircle
 10
-39.99999999999991
 20
61.42562584220406
 40
26
  0
CIRCLE
  5
16C
100
AcDbEntity
  8
plate_construction
  6
ByLayer
 62
  256
370
   -1
100
AcDbCircle
 10
127.9999999999993
 20
75.28203230275389
 40
26
  0
CIRCLE
  5
16D
100
AcDbEntity
  8
plate_construction
  6
ByLayer
 62
  256
370
   -1
100
AcDbCircle
 10
87.99999999999986
 20
6.000000000000234
 40
26
  0
CIRCLE
  5
16E
100
AcDbEntity
  8
plate_construction
  6
ByLayer
 62
  256
370
   -1
100
AcDbCircle
 10
-8
 20
6
 40
26
  0
LINE
  5
16F
100
AcDbEntity
  8
plate_construction
  6
ByLayer
 62
  256
370
   -1
100
AcDbLine
 10
-21
 20
-16.5166604983954
 11
2.000000000000004
 21
23.32050807568877
  0
LINE
  5
170
100
AcDbEntity
  8
plate_construction
  6
ByLayer
 62
  256
370
   -1
100
AcDbLine
 10
-39.99999999999991
 20
61.42562584220406
 11
-65.99999999999989
 21
61.42562584220406
  0
LINE
  5
171
100
AcDbEntity
  8
plate_construction
  6
ByLayer
 62
  256
370
   -1
100
AcDbLine
 10
7.999999999999773
 20
144.5640646055098
 11
-5.000000000000221
 21
167.0807251039052
  0
LINE
  5
172
100
AcDbEntity
  8
plate_construction
  6
ByLayer
 62
  256
370
   -1
100
AcDbLine
 10
88.00000000000065
 20
144.5640646055098
 11
101.0000000000007
 21
167.0807251039052
  0
LINE
  5
173
100
AcDbEntity
  8
plate_construction
  6
ByLayer
 62
  256
370
   -1
100
AcDbLine
 10
127.9999999999993
 20
75.28203230275389
 11
153.9999999999994
 21
75.28203230275389
  0
LINE
  5
174
100
AcDbEntity
  8
plate_construction
  6
ByLayer
 62
  256
370
   -1
100
AcDbLine
 10
100.9999999999999
 20
-16.51666049839518
 11
78
 21
23.32050807568877
  0
LINE
  5
175
100
AcDbEntity
  8
baseplate
  6
ByLayer
 62
  256
370
   -1
100
AcDbLine
 10
-65.99999999999994
 20
61.42562584220407
 11
-5.000000000000226
 21
167.0807251039052
  0
LINE
  5
176
100
AcDbEntity
  8
baseplate
  6
ByLayer
 62
  256
370
   -1
100
AcDbLine
 10
-5.000000000000226
 20
167.0807251039052
 11
101.0000000000006
 21
167.080725103905
  0
LINE
  5
177
100
AcDbEntity
  8
baseplate
  6
ByLayer
 62
  256
370
   -1
100
AcDbLine
 10
101.0000000000006
 20
167.080725103905
 11
153.9999999999991
 21
75.28203230275389
  0
LINE
  5
178
100
AcDbEntity
  8
baseplate
  6
ByLayer
 62
  256
370
   -1
100
AcDbLine
 10
153.9999999999991
 20
75.28203230275389
 11
100.9999999999999
 21
-16.51666049839515
  0
LINE
  5
179
100
AcDbEntity
  8
baseplate
  6
ByLayer
 62
  256
370
   -1
100
AcDbLine
 10
100.9999999999999
 20
-16.51666049839515
 11
-21.00000000000001
 21
-16.5166604983954
  0
LINE
  5
17A
100
AcDbEntity
  8
baseplate
  6
ByLayer
 62
  256
370
   -1
100
AcDbLine
 10
-21.00000000000001
 20
-16.5166604983954
 11
-65.99999999999994
 21
61.42562584220407
  0
LINE
  5
17B
100
AcDbEntity
  8
plate_construction
  6
ByLayer
 62
  256
370
   -1
100
AcDbLine
 10
-5.000000000000244
 20
157.0807251039052
 11
101.0000000000006
 21
157.080725103905
  0
LINE
  5
17C
100
AcDbEntity
  8
plate_construction
  6
ByLayer
 62
  256
370
   -1
100
AcDbLine
 10
92.33974596215613
 20
162.0807251039051
 11
145.3397459621546
 21
70.28203230275402
  0
CIRCLE
  5
17D
100
AcDbEntity
  8
plate_construction
  6
ByLayer
 62
  256
370
   -1
100
AcDbCircle
 10
95.22649730810429
 20
157.0807251039049
 40
7
  0
LINE
  5
17E
100
AcDbEntity
  8
plate_construction
  6
ByLayer
 62
  256
370
   -1
100
AcDbLine
 10
-57.33974596215555
 20
56.42562584220407
 11
3.660254037844163
 21
162.0807251039052
  0
LINE
  5
17F
100
AcDbEntity
  8
plate_construction
  6
ByLayer
 62
  256
370
   -1
100
AcDbLine
 10
145.3397459621547
 20
80.28203230275389
 11
92.33974596215552
 21
-11.51666049839515
  0
LINE
  5
180
100
AcDbEntity
  8
plate_construction
  6
ByLayer
 62
  256
370
   -1
100
AcDbLine
 10
100.9999999999999
 20
-6.516660498395151
 11
-21.00000000000003
 21
-6.5166604983954
  0
LINE
  5
181
100
AcDbEntity
  8
plate_construction
  6
ByLayer
 62
  256
370
   -1
100
AcDbLine
 10
-12.33974596215562
 20
-11.5166604983954
 11
-57.33974596215555
 21
66.42562584220407
  0
CIRCLE
  5
182
100
AcDbEntity
  8
baseplate
  6
ByLayer
 62
  256
370
   -1
100
AcDbCircle
 10
95.22649730810429
 20
157.0807251039049
 40
2
  0
CIRCLE
  5
183
100
AcDbEntity
  8
baseplate
  6
ByLayer
 62
  256
370
   -1
100
AcDbCircle
 10
142.4529946162067
 20
75.28203230275389
 40
2
  0
CIRCLE
  5
184
100
AcDbEntity
  8
baseplate
  6
ByLayer
 62
  256
370
   -1
100
AcDbCircle
 10
95.22649730810363
 20
-6.516660498395161
 40
2
  0
CIRCLE
  5
185
100
AcDbEntity
  8
baseplate
  6
ByLayer
 62
  256
370
   -1
100
AcDbCircle
 10
-15.22649730810376
 20
-6.516660498395388
 40
2
  0
CIRCLE
  5
186
100
AcDbEntity
  8
baseplate
  6
ByLayer
 62
  256
370
   -1
100
AcDbCircle
 10
-54.45299461620743
 20
61.42562584220407
 40
2
  0
CIRCLE
  5
187
100
AcDbEntity
  8
baseplate
  6
ByLayer
 62
  256
370
   -1
100
AcDbCircle
 10
0.7735026918960415
 20
157.0807251039052
 40
2
  0
DIMENSION
  5
188
100
AcDbEntity
  8
baseplate
  6
ByLayer
 62
  256
370
   -1
100
AcDbDimension
  2
*D1
 10
-90
 20
167.0807251039053
 30
0
 11
-85.3125
 21
75.28203230275493
 31
0
 70
   32
 71
    5
  3
Standard
 53
0
210
0
220
0
230
1
100
AcDbAlignedDimension
 13
-21.00000000000001
 23
-16.5166604983954
 33
0
 14
-5.000000000000199
 24
167.0807251039053
 34
0
 50
90
100
AcDbRotatedDimension
  0
DIMENSION
  5
189
100
AcDbEntity
  8
baseplate
  6
ByLayer
 62
  256
370
   -1
100
AcDbDimension
  2
*D2
 10
-70
 20
61.42562584220407
 30
0
 11
-65.3125
 21
22.45448267190433
 31
0
 70
   32
 71
    5
  3
Standard
 53
0
210
0
220
0
230
1
100
AcDbAlignedDimension
 13
-21.00000000000001
 23
-16.5166604983954
 33
0
 14
-65.99999999999994
 24
61.42562584220407
 34
0
 50
90
100
AcDbRotatedDimension
  0
DIMENSION
  5
18A
100
AcDbEntity
  8
baseplate
  6
ByLayer
 62
  256
370
   -1
100
AcDbDimension
  2
*D3
 10
170
 20
75.28203230275388
 30
0
 11
174.6875
 21
29.38268590217936
 31
0
 70
   32
 71
    5
  3
Standard
 53
0
210
0
220
0
230
1
100
AcDbAlignedDimension
 13
100.9999999999999
 23
-16.51666049839515
 33
0
 14
153.9999999999991
 24
75.28203230275388
 34
0
 50
90
100
AcDbRotatedDimension
  0
DIMENSION
  5
18B
100
AcDbEntity
  8
baseplate
  6
ByLayer
 62
  256
370
   -1
100
AcDbDimension
  2
*D4
 10
170
 20
167.080725103905
 30
0
 11
174.6875
 21
121.1813787033294
 31
0
 70
   32
 71
    5
  3
Standard
 53
0
210
0
220
0
230
1
100
AcDbAlignedDimension
 13
153.9999999999991
 23
75.28203230275388
 33
0
 14
101.0000000000006
 24
167.080725103905
 34
0
 50
90
100
AcDbRotatedDimension
  0
DIMENSION
  5
18C
100
AcDbEntity
  8
baseplate
  6
ByLayer
 62
  256
370
   -1
100
AcDbDimension
  2
*D5
 10
-70
 20
167.0807251039053
 30
0
 11
-65.3125
 21
114.2531754730547
 31
0
 70
   32
 71
    5
  3
Standard
 53
0
210
0
220
0
230
1
100
AcDbAlignedDimension
 13
-65.99999999999994
 23
61.42562584220407
 33
0
 14
-5.000000000000199
 24
167.0807251039053
 34
0
 50
90
100
AcDbRotatedDimension
  0
DIMENSION
  5
18D
100
AcDbEntity
  8
baseplate
  6
ByLayer
 62
  256
370
   -1
100
AcDbDimension
  2
*D6
 10
-1.226497308103959
 20
157.0807251039052
 30
0
 11
0.7735026918960418
 21
161.7682251039052
 31
0
 70
   35
 71
    5
  3
Standard
 53
0
210
0
220
0
230
1
100
AcDbDiametricDimension
 15
2.773502691896041
 25
157.0807251039052
 35
0
 40
0
  0
DIMENSION
  5
18E
100
AcDbEntity
  8
baseplate
  6
ByLayer
 62
  256
370
   -1
100
AcDbDimension
  2
*D7
 10
93.22649730810429
 20
157.0807251039049
 30
0
 11
95.22649730810429
 21
161.7682251039049
 31
0
 70
   35
 71
    5
  3
Standard
 53
0
210
0
220
0
230
1
100
AcDbDiametricDimension
 15
97.22649730810429
 25
157.0807251039049
 35
0
 40
0
  0
DIMENSION
  5
18F
100
AcDbEntity
  8
baseplate
  6
ByLayer
 62
  256
370
   -1
100
AcDbDimension
  2
*D8
 10
-17.22649730810376
 20
-6.516660498395388
 30
0
 11
-15.22649730810376
 21
-1.829160498395388
 31
0
 70
   35
 71
    5
  3
Standard
 53
0
210
0
220
0
230
1
100
AcDbDiametricDimension
 15
-13.22649730810376
 25
-6.516660498395388
 35
0
 40
0
  0
DIMENSION
  5
190
100
AcDbEntity
  8
baseplate
  6
ByLayer
 62
  256
370
   -1
100
AcDbDimension
  2
*D9
 10
93.22649730810363
 20
-6.516660498395161
 30
0
 11
95.22649730810363
 21
-1.829160498395161
 31
0
 70
   35
 71
    5
  3
Standard
 53
0
210
0
220
0
230
1
100
AcDbDiametricDimension
 15
97.22649730810363
 25
-6.516660498395161
 35
0
 40
0
  0
DIMENSION
  5
191
100
AcDbEntity
  8
baseplate
  6
ByLayer
 62
  256
370
   -1
100
AcDbDimension
  2
*D10
 10
0.7735026918960415
 20
-6.516660498395161
 30
0
 11
-0.2264973081062036
 21
-1.829160498395161
 31
0
 70
   33
 71
    5
  3
Standard
 53
0
210
0
220
0
230
1
100
AcDbAlignedDimension
 13
-1.226497308108449
 23
-6.516660498395161
 33
0
 14
0.7735026918960415
 24
-6.516660498395161
 34
0
  0
DIMENSION
  5
192
100
AcDbEntity
  8
baseplate
  6
ByLayer
 62
  256
370
   -1
100
AcDbDimension
  2
*D11
 10
-54.45299461620743
 20
59.42562584220407
 30
0
 11
-49.76549461620743
 21
61.42562584220407
 31
0
 70
   35
 71
    5
  3
Standard
 53
0
210
0
220
0
230
1
100
AcDbDiametricDimension
 15
-54.45299461620743
 25
63.42562584220407
 35
0
 40
0
  0
DIMENSION
  5
193
100
AcDbEntity
  8
baseplate
  6
ByLayer
 62
  256
370
   -1
100
AcDbDimension
  2
*D12
 10
142.4529946162067
 20
77.28203230275389
 30
0
 11
137.7654946162067
 21
75.28203230275389
 31
0
 70
   35
 71
    5
  3
Standard
 53
0
210
0
220
0
230
1
100
AcDbDiametricDimension
 15
142.4529946162067
 25
73.28203230275389
 35
0
 40
0
  0
ENDSEC
  0
SECTION
  2
OBJECTS
  0
DICTIONARY
  5
C
330
0
100
AcDbDictionary
281
    1
  3
ACAD_GROUP
350
D
  0
DICTIONARY
  5
D
330
C
100
AcDbDictionary
281
    1
  0
ENDSEC
  0
EOF
