999
dxfrw 0.5.10
0
SECTION
2
HEADER
9
$ACADVER
1
AC1021
9
$HANDSEED
5
20000
9
$DWGCODEPAGE
3
ANSI_1252
9
$INSBASE
10
0
20
0
30
0
9
$EXTMIN
10
-73.2
20
-28.6410161514
30
0
9
$EXTMAX
10
181.1
20
170.025211477
30
0
9
$LIMMIN
10
0
20
0
9
$LIMMAX
10
420
20
297
9
$ORTHOMODE
70
0
9
$LTSCALE
40
1
9
$TEXTSTYLE
7
STANDARD
9
$CLAYER
8
dimensions
9
$DIMASZ
40
2.5
9
$DIMLFAC
40
1
9
$DIMSCALE
40
1
9
$DIMEXO
40
0.625
9
$DIMEXE
40
1.25
9
$DIMTXT
40
2.5
9
$DIMTSZ
40
0
9
$DIMAUNIT
70
0
9
$DIMADEC
70
2
9
$DIMLUNIT
70
2
9
$DIMSTYLE
2
STANDARD
9
$DIMGAP
40
0.625
9
$DIMTIH
70
0
9
$LUNITS
70
2
9
$LUPREC
70
2
9
$AUNITS
70
0
9
$AUPREC
70
2
9
$SPLINESEGS
70
8
9
$GRIDMODE
70
1
9
$SNAPSTYLE
70
0
9
$GRIDUNIT
10
0
20
0
9
$PINSBASE
10
94.55
20
34.3079023373
30
0
9
$PLIMMIN
10
0
20
0
9
$PLIMMAX
10
297
20
210
9
$INSUNITS
70
4
9
$PSVPSCALE
40
1
0
ENDSEC
0
SECTION
2
CLASSES
0
ENDSEC
0
SECTION
2
TABLES
0
TABLE
2
VPORT
5
8
330
0
100
AcDbSymbolTable
70
1
0
VPORT
5
31
330
2
100
AcDbSymbolTableRecord
100
AcDbViewportTableRecord
2
*ACTIVE
70
0
10
0
20
0
11
1
21
1
12
157.65625
22
87.65625
13
0
23
0
14
10
24
10
15
10
25
10
16
0
26
0
36
1
17
0
27
0
37
0
40
235.9375
41
2.08344370861
42
50
43
0
44
0
50
0
51
0
71
0
72
100
73
1
74
3
75
0
76
1
77
0
78
0
281
0
65
1
110
0
120
0
130
0
111
1
121
0
131
0
112
0
122
1
132
0
79
0
146
0
348
10020
60
7
61
5
292
1
282
1
141
0
142
0
63
250
421
3358443
0
ENDTAB
0
TABLE
2
LTYPE
5
5
330
0
100
AcDbSymbolTable
70
4
0
LTYPE
5
14
330
5
100
AcDbSymbolTableRecord
100
AcDbLinetypeTableRecord
2
ByBlock
70
0
3

72
65
73
0
40
0
0
LTYPE
5
15
330
5
100
AcDbSymbolTableRecord
100
AcDbLinetypeTableRecord
2
ByLayer
70
0
3

72
65
73
0
40
0
0
LTYPE
5
16
330
5
100
AcDbSymbolTableRecord
100
AcDbLinetypeTableRecord
2
Continuous
70
0
3
Solid line
72
65
73
0
40
0
0
LTYPE
5
32
330
5
100
AcDbSymbolTableRecord
100
AcDbLinetypeTableRecord
2
DOT
70
0
3
Dot . . . . . . . . . . . . . . . . . . . . . .
72
65
73
2
40
6.35
49
0
74
0
49
-6.35
74
0
0
LTYPE
5
33
330
5
100
AcDbSymbolTableRecord
100
AcDbLinetypeTableRecord
2
DOT2
70
0
3
Dot (.5x) .....................................
72
65
73
2
40
3.175
49
0
74
0
49
-3.175
74
0
0
LTYPE
5
34
330
5
100
AcDbSymbolTableRecord
100
AcDbLinetypeTableRecord
2
DOTX2
70
0
3
Dot (2x) .  .  .  .  .  .  .  .  .  .  .  .  .
72
65
73
2
40
12.7
49
0
74
0
49
-12.7
74
0
0
LTYPE
5
35
330
5
100
AcDbSymbolTableRecord
100
AcDbLinetypeTableRecord
2
DASHED
70
0
3
Dot . . . . . . . . . . . . . . . . . . . . . .
72
65
73
2
40
19.05
49
12.7
74
0
49
-6.35
74
0
0
LTYPE
5
36
330
5
100
AcDbSymbolTableRecord
100
AcDbLinetypeTableRecord
2
DASHED2
70
0
3
Dashed (.5x) _ _ _ _ _ _ _ _ _ _ _ _ _ _ _ _ _
72
65
73
2
40
9.525
49
6.35
74
0
49
-3.175
74
0
0
LTYPE
5
37
330
5
100
AcDbSymbolTableRecord
100
AcDbLinetypeTableRecord
2
DASHEDX2
70
0
3
Dashed (2x) ____  ____  ____  ____  ____  ___
72
65
73
2
40
38.1
49
25.4
74
0
49
-12.7
74
0
0
LTYPE
5
38
330
5
100
AcDbSymbolTableRecord
100
AcDbLinetypeTableRecord
2
DASHDOT
70
0
3
Dash dot __ . __ . __ . __ . __ . __ . __ . __
72
65
73
4
40
25.4
49
12.7
74
0
49
-6.35
74
0
49
0
74
0
49
-6.35
74
0
0
LTYPE
5
39
330
5
100
AcDbSymbolTableRecord
100
AcDbLinetypeTableRecord
2
DASHDOT2
70
0
3
Dash dot (.5x) _._._._._._._._._._._._._._._.
72
65
73
4
40
12.7
49
6.35
74
0
49
-3.175
74
0
49
0
74
0
49
-3.175
74
0
0
LTYPE
5
3A
330
5
100
AcDbSymbolTableRecord
100
AcDbLinetypeTableRecord
2
DASHDOTX2
70
0
3
Dash dot (2x) ____  .  ____  .  ____  .  ___
72
65
73
4
40
50.8
49
25.4
74
0
49
-12.7
74
0
49
0
74
0
49
-12.7
74
0
0
LTYPE
5
3B
330
5
100
AcDbSymbolTableRecord
100
AcDbLinetypeTableRecord
2
DIVIDE
70
0
3
Divide ____ . . ____ . . ____ . . ____ . . ____
72
65
73
6
40
31.75
49
12.7
74
0
49
-6.35
74
0
49
0
74
0
49
-6.35
74
0
49
0
74
0
49
-6.35
74
0
0
LTYPE
5
3C
330
5
100
AcDbSymbolTableRecord
100
AcDbLinetypeTableRecord
2
DIVIDE2
70
0
3
Divide (.5x) __..__..__..__..__..__..__..__.._
72
65
73
6
40
15.875
49
6.35
74
0
49
-3.175
74
0
49
0
74
0
49
-3.175
74
0
49
0
74
0
49
-3.175
74
0
0
LTYPE
5
3D
330
5
100
AcDbSymbolTableRecord
100
AcDbLinetypeTableRecord
2
DIVIDEX2
70
0
3
Divide (2x) ________  .  .  ________  .  .  _
72
65
73
6
40
63.5
49
25.4
74
0
49
-12.7
74
0
49
0
74
0
49
-12.7
74
0
49
0
74
0
49
-12.7
74
0
0
LTYPE
5
3E
330
5
100
AcDbSymbolTableRecord
100
AcDbLinetypeTableRecord
2
BORDER
70
0
3
Border __ __ . __ __ . __ __ . __ __ . __ __ .
72
65
73
6
40
44.45
49
12.7
74
0
49
-6.35
74
0
49
12.7
74
0
49
-6.35
74
0
49
0
74
0
49
-6.35
74
0
0
LTYPE
5
3F
330
5
100
AcDbSymbolTableRecord
100
AcDbLinetypeTableRecord
2
BORDER2
70
0
3
Border (.5x) __.__.__.__.__.__.__.__.__.__.__.
72
65
73
6
40
22.225
49
6.35
74
0
49
-3.175
74
0
49
6.35
74
0
49
-3.175
74
0
49
0
74
0
49
-3.175
74
0
0
LTYPE
5
40
330
5
100
AcDbSymbolTableRecord
100
AcDbLinetypeTableRecord
2
BORDERX2
70
0
3
Border (2x) ____  ____  .  ____  ____  .  ___
72
65
73
6
40
88.9
49
25.4
74
0
49
-12.7
74
0
49
25.4
74
0
49
-12.7
74
0
49
0
74
0
49
-12.7
74
0
0
LTYPE
5
41
330
5
100
AcDbSymbolTableRecord
100
AcDbLinetypeTableRecord
2
CENTER
70
0
3
Center ____ _ ____ _ ____ _ ____ _ ____ _ ____
72
65
73
4
40
50.8
49
31.75
74
0
49
-6.35
74
0
49
6.35
74
0
49
-6.35
74
0
0
LTYPE
5
42
330
5
100
AcDbSymbolTableRecord
100
AcDbLinetypeTableRecord
2
CENTER2
70
0
3
Center (.5x) ___ _ ___ _ ___ _ ___ _ ___ _ ___
72
65
73
4
40
28.575
49
19.05
74
0
49
-3.175
74
0
49
3.175
74
0
49
-3.175
74
0
0
LTYPE
5
43
330
5
100
AcDbSymbolTableRecord
100
AcDbLinetypeTableRecord
2
CENTERX2
70
0
3
Center (2x) ________  __  ________  __  _____
72
65
73
4
40
101.6
49
63.5
74
0
49
-12.7
74
0
49
12.7
74
0
49
-12.7
74
0
0
ENDTAB
0
TABLE
2
LAYER
5
2
330
0
100
AcDbSymbolTable
70
1
0
LAYER
5
10
330
2
100
AcDbSymbolTableRecord
100
AcDbLayerTableRecord
2
0
70
5
62
253
420
10526884
6
CONTINUOUS
370
0
390
F
0
LAYER
5
44
330
2
100
AcDbSymbolTableRecord
100
AcDbLayerTableRecord
2
strips
70
4
62
96
420
32768
6
CONTINUOUS
370
0
390
F
0
LAYER
5
45
330
2
100
AcDbSymbolTableRecord
100
AcDbLayerTableRecord
2
plate_construction
70
5
62
216
420
8388736
6
CONTINUOUS
290
0
370
0
390
F
0
LAYER
5
46
330
2
100
AcDbSymbolTableRecord
100
AcDbLayerTableRecord
2
baseplate
70
4
62
7
6
CONTINUOUS
370
0
390
F
0
LAYER
5
47
330
2
100
AcDbSymbolTableRecord
100
AcDbLayerTableRecord
2
dimensions
70
5
62
16
420
8388608
6
CONTINUOUS
370
0
390
F
0
ENDTAB
0
TABLE
2
STYLE
5
3
330
0
100
AcDbSymbolTable
70
3
0
STYLE
5
48
330
2
100
AcDbSymbolTableRecord
100
AcDbTextStyleTableRecord
2
Standard
70
0
40
0
41
1
50
0
71
0
42
1
3
txt
4

0
ENDTAB
0
TABLE
2
VIEW
5
6
330
0
100
AcDbSymbolTable
70
0
0
ENDTAB
0
TABLE
2
UCS
5
7
330
0
100
AcDbSymbolTable
70
0
0
ENDTAB
0
TABLE
2
APPID
5
9
330
0
100
AcDbSymbolTable
70
1
0
APPID
5
12
330
9
100
AcDbSymbolTableRecord
100
AcDbRegAppTableRecord
2
ACAD
70
0
0
ENDTAB
0
TABLE
2
DIMSTYLE
5
A
330
0
100
AcDbSymbolTable
70
1
100
AcDbDimStyleTable
71
1
0
DIMSTYLE
105
49
330
A
100
AcDbSymbolTableRecord
100
AcDbDimStyleTableRecord
2
Standard
70
0
40
1
41
2.5
42
0.625
43
0.38
44
1.25
45
0
46
0
47
0
48
0
140
2.5
141
0.09
142
0
143
25.4
144
1
145
0
146
1
147
0.625
148
0
71
0
72
0
73
0
74
1
75
0
76
0
77
0
78
0
79
0
170
0
171
2
172
0
173
0
174
0
175
0
176
0
177
0
178
0
179
0
271
4
272
4
273
2
274
2
275
0
276
0
277
2
278
46
279
0
280
0
281
0
282
0
283
1
284
0
285
0
286
0
288
0
289
3
340
Standard
341

371
-2
372
-2
0
ENDTAB
0
TABLE
2
BLOCK_RECORD
5
1
330
0
100
AcDbSymbolTable
70
2
0
BLOCK_RECORD
5
1F
330
1
100
AcDbSymbolTableRecord
100
AcDbBlockTableRecord
2
*Model_Space
70
0
280
1
281
0
0
BLOCK_RECORD
5
1E
330
1
100
AcDbSymbolTableRecord
100
AcDbBlockTableRecord
2
*Paper_Space
70
0
280
1
281
0
0
BLOCK_RECORD
5
4A
330
1
100
AcDbSymbolTableRecord
100
AcDbBlockTableRecord
2
*D5
70
0
280
1
281
0
0
BLOCK_RECORD
5
4D
330
1
100
AcDbSymbolTableRecord
100
AcDbBlockTableRecord
2
*D8
70
0
280
1
281
0
0
BLOCK_RECORD
5
50
330
1
100
AcDbSymbolTableRecord
100
AcDbBlockTableRecord
2
*D14
70
0
280
1
281
0
0
BLOCK_RECORD
5
53
330
1
100
AcDbSymbolTableRecord
100
AcDbBlockTableRecord
2
*D15
70
0
280
1
281
0
0
BLOCK_RECORD
5
56
330
1
100
AcDbSymbolTableRecord
100
AcDbBlockTableRecord
2
*D7
70
0
280
1
281
0
0
BLOCK_RECORD
5
59
330
1
100
AcDbSymbolTableRecord
100
AcDbBlockTableRecord
2
*D17
70
0
280
1
281
0
0
BLOCK_RECORD
5
5C
330
1
100
AcDbSymbolTableRecord
100
AcDbBlockTableRecord
2
*D9
70
0
280
1
281
0
0
BLOCK_RECORD
5
5F
330
1
100
AcDbSymbolTableRecord
100
AcDbBlockTableRecord
2
*D16
70
0
280
1
281
0
0
BLOCK_RECORD
5
62
330
1
100
AcDbSymbolTableRecord
100
AcDbBlockTableRecord
2
*D1
70
0
280
1
281
0
0
BLOCK_RECORD
5
65
330
1
100
AcDbSymbolTableRecord
100
AcDbBlockTableRecord
2
*D13
70
0
280
1
281
0
0
BLOCK_RECORD
5
68
330
1
100
AcDbSymbolTableRecord
100
AcDbBlockTableRecord
2
*D11
70
0
280
1
281
0
0
BLOCK_RECORD
5
6B
330
1
100
AcDbSymbolTableRecord
100
AcDbBlockTableRecord
2
*D4
70
0
280
1
281
0
0
BLOCK_RECORD
5
6E
330
1
100
AcDbSymbolTableRecord
100
AcDbBlockTableRecord
2
*D18
70
0
280
1
281
0
0
BLOCK_RECORD
5
71
330
1
100
AcDbSymbolTableRecord
100
AcDbBlockTableRecord
2
*D2
70
0
280
1
281
0
0
BLOCK_RECORD
5
74
330
1
100
AcDbSymbolTableRecord
100
AcDbBlockTableRecord
2
*D12
70
0
280
1
281
0
0
BLOCK_RECORD
5
77
330
1
100
AcDbSymbolTableRecord
100
AcDbBlockTableRecord
2
*D6
70
0
280
1
281
0
0
BLOCK_RECORD
5
7A
330
1
100
AcDbSymbolTableRecord
100
AcDbBlockTableRecord
2
*D10
70
0
280
1
281
0
0
BLOCK_RECORD
5
7D
330
1
100
AcDbSymbolTableRecord
100
AcDbBlockTableRecord
2
*D3
70
0
280
1
281
0
0
BLOCK_RECORD
5
80
330
1
100
AcDbSymbolTableRecord
100
AcDbBlockTableRecord
2
*D19
70
0
280
1
281
0
0
ENDTAB
0
ENDSEC
0
SECTION
2
BLOCKS
0
BLOCK
5
20
330
1F
100
AcDbEntity
8
0
100
AcDbBlockBegin
2
*Model_Space
70
0
10
0
20
0
30
0
3
*Model_Space
1

0
ENDBLK
5
21
330
1F
100
AcDbEntity
8
0
100
AcDbBlockEnd
0
BLOCK
5
1C
330
1B
100
AcDbEntity
8
0
100
AcDbBlockBegin
2
*Paper_Space
70
0
10
0
20
0
30
0
3
*Paper_Space
1

0
ENDBLK
5
1D
330
1F
100
AcDbEntity
8
0
100
AcDbBlockEnd
0
BLOCK
5
4B
330
4A
100
AcDbEntity
8
0
100
AcDbBlockBegin
2
*D5
70
1
10
0
20
0
3
*D5
1

0
LINE
5
83
100
AcDbEntity
8
dimensions
6
CONTINUOUS
62
7
370
0
100
AcDbLine
10
-90
20
-28.6410161514
11
-90
21
63.5040868113
0
SOLID
5
84
100
AcDbEntity
8
dimensions
6
CONTINUOUS
62
7
370
0
100
AcDbTrace
10
-90
20
-28.6410161514
30
0
11
-90.4162846578
21
-26.1410161514
31
0
12
-89.5837153422
22
-26.1410161514
32
0
13
-89.5837153422
23
-26.1410161514
33
0
0
SOLID
5
85
100
AcDbEntity
8
dimensions
6
CONTINUOUS
62
7
370
0
100
AcDbTrace
10
-90
20
63.5040868113
30
0
11
-89.5837153422
21
61.0040868113
31
0
12
-90.4162846578
22
61.0040868113
32
0
13
-90.4162846578
23
61.0040868113
33
0
0
MTEXT
5
86
100
AcDbEntity
8
dimensions
6
CONTINUOUS
62
7
370
0
100
AcDbMText
10
-91.875
20
17.43153533
30
0
40
2.5
41
7.22222222222
71
5
72
1
1
92.15
7
standard
210
0
220
0
230
1
50
90
73
2
44
1
0
LINE
5
87
100
AcDbEntity
8
dimensions
6
CONTINUOUS
62
7
370
0
100
AcDbLine
10
-20.625
20
-28.6410161514
11
-91.25
21
-28.6410161514
0
LINE
5
88
100
AcDbEntity
8
dimensions
6
CONTINUOUS
62
7
370
0
100
AcDbLine
10
-73.825
20
63.5040868113
11
-91.25
21
63.5040868113
0
ENDBLK
5
4C
330
4A
100
AcDbEntity
8
0
100
AcDbBlockEnd
0
BLOCK
5
4E
330
4D
100
AcDbEntity
8
0
100
AcDbBlockBegin
2
*D8
70
1
10
0
20
0
3
*D8
1

0
LINE
5
89
100
AcDbEntity
8
dimensions
6
CONTINUOUS
62
7
370
0
100
AcDbLine
10
200
20
-28.6410161514
11
200
21
77.8801085141
0
SOLID
5
8A
100
AcDbEntity
8
dimensions
6
CONTINUOUS
62
7
370
0
100
AcDbTrace
10
200
20
-28.6410161514
30
0
11
199.583715342
21
-26.1410161514
31
0
12
200.416284658
22
-26.1410161514
32
0
13
200.416284658
23
-26.1410161514
33
0
0
SOLID
5
8B
100
AcDbEntity
8
dimensions
6
CONTINUOUS
62
7
370
0
100
AcDbTrace
10
200
20
77.8801085141
30
0
11
200.416284658
21
75.3801085141
31
0
12
199.583715342
22
75.3801085141
32
0
13
199.583715342
23
75.3801085141
33
0
0
MTEXT
5
8C
100
AcDbEntity
8
dimensions
6
CONTINUOUS
62
7
370
0
100
AcDbMText
10
198.125
20
24.6195461814
30
0
40
2.5
41
9.16666666667
71
5
72
1
1
106.52
7
standard
210
0
220
0
230
1
50
90
73
2
44
1
0
LINE
5
8D
100
AcDbEntity
8
dimensions
6
CONTINUOUS
62
7
370
0
100
AcDbLine
10
120.225
20
-28.6410161514
11
201.25
21
-28.6410161514
0
LINE
5
8E
100
AcDbEntity
8
dimensions
6
CONTINUOUS
62
7
370
0
100
AcDbLine
10
181.725
20
77.8801085141
11
201.25
21
77.8801085141
0
ENDBLK
5
4F
330
4D
100
AcDbEntity
8
0
100
AcDbBlockEnd
0
BLOCK
5
51
330
50
100
AcDbEntity
8
0
100
AcDbBlockBegin
2
*D14
70
1
10
0
20
0
3
*D14
1

0
LINE
5
8F
100
AcDbEntity
8
dimensions
6
CONTINUOUS
62
7
370
0
100
AcDbLine
10
157.118271366
20
36.3425360666
11
162.430771366
21
45.5440559818
0
LINE
5
90
100
AcDbEntity
8
dimensions
6
CONTINUOUS
62
7
370
0
100
AcDbLine
10
148.458017328
20
41.3425360666
11
153.770517328
21
50.5440559818
0
LINE
5
91
100
AcDbEntity
8
dimensions
6
CONTINUOUS
62
7
370
0
100
AcDbLine
10
161.805771366
20
44.4615242271
11
153.145517328
21
49.4615242271
0
SOLID
5
92
100
AcDbEntity
8
dimensions
6
CONTINUOUS
62
7
370
0
100
AcDbTrace
10
161.805771366
20
44.4615242271
30
0
11
159.432565528
21
45.3510111382
31
0
12
159.848850185
22
46.0720373159
32
0
13
159.848850185
23
46.0720373159
33
0
0
SOLID
5
93
100
AcDbEntity
8
dimensions
6
CONTINUOUS
62
7
370
0
100
AcDbTrace
10
153.145517328
20
49.4615242271
30
0
11
155.518723166
21
48.5720373159
31
0
12
155.102438509
22
47.8510111382
32
0
13
155.102438509
23
47.8510111382
33
0
0
MTEXT
5
94
100
AcDbEntity
8
dimensions
6
CONTINUOUS
62
7
370
0
100
AcDbMText
10
158.413144347
20
48.5853218592
30
0
40
2.5
41
2.5
71
5
72
1
1
10
7
standard
210
0
220
0
230
1
50
330
73
2
44
1
0
ENDBLK
5
52
330
50
100
AcDbEntity
8
0
100
AcDbBlockEnd
0
BLOCK
5
54
330
53
100
AcDbEntity
8
0
100
AcDbBlockBegin
2
*D15
70
1
10
0
20
0
3
*D15
1

0
LINE
5
95
100
AcDbEntity
8
dimensions
6
CONTINUOUS
62
7
370
0
100
AcDbLine
10
148.458017328
20
41.3425360666
11
153.770517328
21
50.5440559818
0
LINE
5
96
100
AcDbEntity
8
dimensions
6
CONTINUOUS
62
7
370
0
100
AcDbLine
10
139.79776329
20
46.3425360666
11
145.11026329
21
55.5440559818
0
LINE
5
97
100
AcDbEntity
8
dimensions
6
CONTINUOUS
62
7
370
0
100
AcDbLine
10
153.145517328
20
49.4615242271
11
144.48526329
21
54.4615242271
0
SOLID
5
98
100
AcDbEntity
8
dimensions
6
CONTINUOUS
62
7
370
0
100
AcDbTrace
10
153.145517328
20
49.4615242271
30
0
11
150.77231149
21
50.3510111382
31
0
12
151.188596148
22
51.0720373159
32
0
13
151.188596148
23
51.0720373159
33
0
0
SOLID
5
99
100
AcDbEntity
8
dimensions
6
CONTINUOUS
62
7
370
0
100
AcDbTrace
10
144.48526329
20
54.4615242271
30
0
11
146.858469129
21
53.5720373159
31
0
12
146.442184471
22
52.8510111382
32
0
13
146.442184471
23
52.8510111382
33
0
0
MTEXT
5
9A
100
AcDbEntity
8
dimensions
6
CONTINUOUS
62
7
370
0
100
AcDbMText
10
149.752890309
20
53.5853218592
30
0
40
2.5
41
2.5
71
5
72
1
1
10
7
standard
210
0
220
0
230
1
50
330
73
2
44
1
0
ENDBLK
5
55
330
53
100
AcDbEntity
8
0
100
AcDbBlockEnd
0
BLOCK
5
57
330
56
100
AcDbEntity
8
0
100
AcDbBlockBegin
2
*D7
70
1
10
0
20
0
3
*D7
1

0
LINE
5
9B
100
AcDbEntity
8
dimensions
6
CONTINUOUS
62
7
370
0
100
AcDbLine
10
200
20
170.025211477
11
200
21
77.8801085141
0
SOLID
5
9C
100
AcDbEntity
8
dimensions
6
CONTINUOUS
62
7
370
0
100
AcDbTrace
10
200
20
170.025211477
30
0
11
200.416284658
21
167.525211477
31
0
12
199.583715342
22
167.525211477
32
0
13
199.583715342
23
167.525211477
33
0
0
SOLID
5
9D
100
AcDbEntity
8
dimensions
6
CONTINUOUS
62
7
370
0
100
AcDbTrace
10
200
20
77.8801085141
30
0
11
199.583715342
21
80.3801085141
31
0
12
200.416284658
22
80.3801085141
32
0
13
200.416284658
23
80.3801085141
33
0
0
MTEXT
5
9E
100
AcDbEntity
8
dimensions
6
CONTINUOUS
62
7
370
0
100
AcDbMText
10
198.125
20
123.952659995
30
0
40
2.5
41
7.22222222222
71
5
72
1
1
92.15
7
standard
210
0
220
0
230
1
50
90
73
2
44
1
0
LINE
5
9F
100
AcDbEntity
8
dimensions
6
CONTINUOUS
62
7
370
0
100
AcDbLine
10
128.525
20
170.025211477
11
201.25
21
170.025211477
0
LINE
5
A0
100
AcDbEntity
8
dimensions
6
CONTINUOUS
62
7
370
0
100
AcDbLine
10
181.725
20
77.8801085141
11
201.25
21
77.8801085141
0
ENDBLK
5
58
330
56
100
AcDbEntity
8
0
100
AcDbBlockEnd
0
BLOCK
5
5A
330
59
100
AcDbEntity
8
0
100
AcDbBlockBegin
2
*D17
70
1
10
0
20
0
3
*D17
1

0
LINE
5
A1
100
AcDbEntity
8
dimensions
6
CONTINUOUS
62
7
370
0
100
AcDbLine
10
119.058734123
20
-28.3285161514
11
92.5367061317
21
-13.0160161514
0
LINE
5
A2
100
AcDbEntity
8
dimensions
6
CONTINUOUS
62
7
370
0
100
AcDbLine
10
131.264505489
20
-7.1875
11
104.742477498
21
8.125
0
LINE
5
A3
100
AcDbEntity
8
dimensions
6
CONTINUOUS
62
7
370
0
100
AcDbLine
10
93.6192378865
20
-13.6410161514
11
105.825009252
21
7.5
0
SOLID
5
A4
100
AcDbEntity
8
dimensions
6
CONTINUOUS
62
7
370
0
100
AcDbTrace
10
93.6192378865
20
-13.6410161514
30
0
11
94.5087247976
21
-11.267810313
31
0
12
95.2297509753
22
-11.6840949708
32
0
13
95.2297509753
23
-11.6840949708
33
0
0
SOLID
5
A5
100
AcDbEntity
8
dimensions
6
CONTINUOUS
62
7
370
0
100
AcDbTrace
10
105.825009252
20
7.5
30
0
11
104.935522341
21
5.12679416165
31
0
12
104.214496164
22
5.54307881943
32
0
13
104.214496164
23
5.54307881943
33
0
0
MTEXT
5
A6
100
AcDbEntity
8
dimensions
6
CONTINUOUS
62
7
370
0
100
AcDbMText
10
98.0983259373
20
-2.13300807569
30
0
40
2.5
41
7.77777777778
71
5
72
1
1
24.41
7
standard
210
0
220
0
230
1
50
60
73
2
44
1
0
ENDBLK
5
5B
330
59
100
AcDbEntity
8
0
100
AcDbBlockEnd
0
BLOCK
5
5D
330
5C
100
AcDbEntity
8
0
100
AcDbBlockBegin
2
*D9
70
1
10
0
20
0
3
*D9
1

0
LINE
5
A7
100
AcDbEntity
8
dimensions
6
CONTINUOUS
62
7
370
0
100
AcDbLine
10
-73.2
20
-50
11
-20
21
-50
0
SOLID
5
A8
100
AcDbEntity
8
dimensions
6
CONTINUOUS
62
7
370
0
100
AcDbTrace
10
-73.2
20
-50
30
0
11
-70.7
21
-49.5837153422
31
0
12
-70.7
22
-50.4162846578
32
0
13
-70.7
23
-50.4162846578
33
0
0
SOLID
5
A9
100
AcDbEntity
8
dimensions
6
CONTINUOUS
62
7
370
0
100
AcDbTrace
10
-20
20
-50
30
0
11
-22.5
21
-50.4162846578
31
0
12
-22.5
22
-49.5837153422
32
0
13
-22.5
23
-49.5837153422
33
0
0
MTEXT
5
AA
100
AcDbEntity
8
dimensions
6
CONTINUOUS
62
7
370
0
100
AcDbMText
10
-46.6
20
-48.125
30
0
40
2.5
41
5.83333333333
71
5
72
1
1
53.2
7
standard
210
0
220
0
230
1
50
0
73
2
44
1
0
LINE
5
AB
100
AcDbEntity
8
dimensions
6
CONTINUOUS
62
7
370
0
100
AcDbLine
10
-73.2
20
62.8790868113
11
-73.2
21
-51.25
0
LINE
5
AC
100
AcDbEntity
8
dimensions
6
CONTINUOUS
62
7
370
0
100
AcDbLine
10
-20
20
-29.2660161514
11
-20
21
-51.25
0
ENDBLK
5
5E
330
5C
100
AcDbEntity
8
0
100
AcDbBlockEnd
0
BLOCK
5
60
330
5F
100
AcDbEntity
8
0
100
AcDbBlockBegin
2
*D16
70
1
10
0
20
0
3
*D16
1

0
LINE
5
AD
100
AcDbEntity
8
dimensions
6
CONTINUOUS
62
7
370
0
100
AcDbLine
10
113.943997413
20
2.8125
11
104.742477498
21
8.125
0
LINE
5
AE
100
AcDbEntity
8
dimensions
6
CONTINUOUS
62
7
370
0
100
AcDbLine
10
138.943997413
20
46.1137701892
11
129.742477498
21
51.4262701892
0
LINE
5
AF
100
AcDbEntity
8
dimensions
6
CONTINUOUS
62
7
370
0
100
AcDbLine
10
105.825009252
20
7.5
11
130.825009252
21
50.8012701892
0
SOLID
5
B0
100
AcDbEntity
8
dimensions
6
CONTINUOUS
62
7
370
0
100
AcDbTrace
10
105.825009252
20
7.5
30
0
11
106.714496164
21
9.87320583835
31
0
12
107.435522341
22
9.45692118057
32
0
13
107.435522341
23
9.45692118057
33
0
0
SOLID
5
B1
100
AcDbEntity
8
dimensions
6
CONTINUOUS
62
7
370
0
100
AcDbTrace
10
130.825009252
20
50.8012701892
30
0
11
129.935522341
21
48.4280643509
31
0
12
129.214496164
22
48.8443490086
32
0
13
129.214496164
23
48.8443490086
33
0
0
MTEXT
5
B2
100
AcDbEntity
8
dimensions
6
CONTINUOUS
62
7
370
0
100
AcDbMText
10
116.70121162
20
30.0881350946
30
0
40
2.5
41
3.05555555556
71
5
72
1
1
50
7
standard
210
0
220
0
230
1
50
60
73
2
44
1
0
ENDBLK
5
61
330
5F
100
AcDbEntity
8
0
100
AcDbBlockEnd
0
BLOCK
5
63
330
62
100
AcDbEntity
8
0
100
AcDbBlockBegin
2
*D1
70
1
10
0
20
0
3
*D1
1

0
LINE
5
B3
100
AcDbEntity
8
dimensions
6
CONTINUOUS
62
7
370
0
100
AcDbLine
10
-73.2
20
200
11
181.1
21
200
0
SOLID
5
B4
100
AcDbEntity
8
dimensions
6
CONTINUOUS
62
7
370
0
100
AcDbTrace
10
-73.2
20
200
30
0
11
-70.7
21
200.416284658
31
0
12
-70.7
22
199.583715342
32
0
13
-70.7
23
199.583715342
33
0
0
SOLID
5
B5
100
AcDbEntity
8
dimensions
6
CONTINUOUS
62
7
370
0
100
AcDbTrace
10
181.1
20
200
30
0
11
178.6
21
199.583715342
31
0
12
178.6
22
200.416284658
32
0
13
178.6
23
200.416284658
33
0
0
MTEXT
5
B6
100
AcDbEntity
8
dimensions
6
CONTINUOUS
62
7
370
0
100
AcDbMText
10
53.95
20
201.875
30
0
40
2.5
41
8.05555555556
71
5
72
1
1
254.3
7
standard
210
0
220
0
230
1
50
0
73
2
44
1
0
LINE
5
B7
100
AcDbEntity
8
dimensions
6
CONTINUOUS
62
7
370
0
100
AcDbLine
10
-73.2
20
64.1290868113
11
-73.2
21
201.25
0
LINE
5
B8
100
AcDbEntity
8
dimensions
6
CONTINUOUS
62
7
370
0
100
AcDbLine
10
181.1
20
78.5051085141
11
181.1
21
201.25
0
ENDBLK
5
64
330
62
100
AcDbEntity
8
0
100
AcDbBlockEnd
0
BLOCK
5
66
330
65
100
AcDbEntity
8
0
100
AcDbBlockBegin
2
*D13
70
1
10
0
20
0
3
*D13
1

0
LINE
5
B9
100
AcDbEntity
8
dimensions
6
CONTINUOUS
62
7
370
0
100
AcDbLine
10
7.34788079488e-16
20
141.384195325
11
3.11200154902e-32
21
129.384195325
0
SOLID
5
BA
100
AcDbEntity
8
dimensions
6
CONTINUOUS
62
7
370
0
100
AcDbTrace
10
7.34788079488e-16
20
141.384195325
30
0
11
0.416284657773
21
138.884195325
31
0
12
-0.416284657773
22
138.884195325
32
0
13
-0.416284657773
23
138.884195325
33
0
0
SOLID
5
BB
100
AcDbEntity
8
dimensions
6
CONTINUOUS
62
7
370
0
100
AcDbTrace
10
3.11200154902e-32
20
129.384195325
30
0
11
-0.416284657773
21
131.884195325
31
0
12
0.416284657773
22
131.884195325
32
0
13
0.416284657773
23
131.884195325
33
0
0
MTEXT
5
BC
100
AcDbEntity
8
dimensions
6
CONTINUOUS
62
7
370
0
100
AcDbMText
10
-1.875
20
135.384195325
30
0
40
2.5
41
2.5
71
5
72
1
1
12
7
standard
210
0
220
0
230
1
50
90
73
2
44
1
0
LINE
5
BD
100
AcDbEntity
8
dimensions
6
CONTINUOUS
62
7
370
0
100
AcDbLine
10
7.675
20
141.384195325
11
-1.25
21
141.384195325
0
LINE
5
BE
100
AcDbEntity
8
dimensions
6
CONTINUOUS
62
7
370
0
100
AcDbLine
10
7.675
20
129.384195325
11
-1.25
21
129.384195325
0
ENDBLK
5
67
330
65
100
AcDbEntity
8
0
100
AcDbBlockEnd
0
BLOCK
5
69
330
68
100
AcDbEntity
8
0
100
AcDbBlockBegin
2
*D11
70
1
10
0
20
0
3
*D11
1

0
LINE
5
BF
100
AcDbEntity
8
dimensions
6
CONTINUOUS
62
7
370
0
100
AcDbLine
10
119.6
20
-50
11
181.1
21
-50
0
SOLID
5
C0
100
AcDbEntity
8
dimensions
6
CONTINUOUS
62
7
370
0
100
AcDbTrace
10
119.6
20
-50
30
0
11
122.1
21
-49.5837153422
31
0
12
122.1
22
-50.4162846578
32
0
13
122.1
23
-50.4162846578
33
0
0
SOLID
5
C1
100
AcDbEntity
8
dimensions
6
CONTINUOUS
62
7
370
0
100
AcDbTrace
10
181.1
20
-50
30
0
11
178.6
21
-50.4162846578
31
0
12
178.6
22
-49.5837153422
32
0
13
178.6
23
-49.5837153422
33
0
0
MTEXT
5
C2
100
AcDbEntity
8
dimensions
6
CONTINUOUS
62
7
370
0
100
AcDbMText
10
150.35
20
-48.125
30
0
40
2.5
41
5.27777777778
71
5
72
1
1
61.5
7
standard
210
0
220
0
230
1
50
0
73
2
44
1
0
LINE
5
C3
100
AcDbEntity
8
dimensions
6
CONTINUOUS
62
7
370
0
100
AcDbLine
10
119.6
20
-29.2660161514
11
119.6
21
-51.25
0
LINE
5
C4
100
AcDbEntity
8
dimensions
6
CONTINUOUS
62
7
370
0
100
AcDbLine
10
181.1
20
77.2551085141
11
181.1
21
-51.25
0
ENDBLK
5
6A
330
68
100
AcDbEntity
8
0
100
AcDbBlockEnd
0
BLOCK
5
6C
330
6B
100
AcDbEntity
8
0
100
AcDbBlockBegin
2
*D4
70
1
10
0
20
0
3
*D4
1

0
LINE
5
C5
100
AcDbEntity
8
dimensions
6
CONTINUOUS
62
7
370
0
100
AcDbLine
10
-100
20
170.025211477
11
-100
21
-28.6410161514
0
SOLID
5
C6
100
AcDbEntity
8
dimensions
6
CONTINUOUS
62
7
370
0
100
AcDbTrace
10
-100
20
170.025211477
30
0
11
-99.5837153422
21
167.525211477
31
0
12
-100.416284658
22
167.525211477
32
0
13
-100.416284658
23
167.525211477
33
0
0
SOLID
5
C7
100
AcDbEntity
8
dimensions
6
CONTINUOUS
62
7
370
0
100
AcDbTrace
10
-100
20
-28.6410161514
30
0
11
-100.416284658
21
-26.1410161514
31
0
12
-99.5837153422
22
-26.1410161514
32
0
13
-99.5837153422
23
-26.1410161514
33
0
0
MTEXT
5
C8
100
AcDbEntity
8
dimensions
6
CONTINUOUS
62
7
370
0
100
AcDbMText
10
-101.875
20
70.6920976627
30
0
40
2.5
41
9.16666666667
71
5
72
1
1
198.67
7
standard
210
0
220
0
230
1
50
90
73
2
44
1
0
LINE
5
C9
100
AcDbEntity
8
dimensions
6
CONTINUOUS
62
7
370
0
100
AcDbLine
10
-12.325
20
170.025211477
11
-101.25
21
170.025211477
0
LINE
5
CA
100
AcDbEntity
8
dimensions
6
CONTINUOUS
62
7
370
0
100
AcDbLine
10
-20.625
20
-28.6410161514
11
-101.25
21
-28.6410161514
0
ENDBLK
5
6D
330
6B
100
AcDbEntity
8
0
100
AcDbBlockEnd
0
BLOCK
5
6F
330
6E
100
AcDbEntity
8
0
100
AcDbBlockBegin
2
*D18
70
1
10
0
20
0
3
*D18
1

0
LINE
5
CB
100
AcDbEntity
8
dimensions
6
CONTINUOUS
62
7
370
0
100
AcDbLine
10
0.773374372329
20
160.066677918
11
-12.6263689885
21
159.983745036
0
SOLID
5
CC
100
AcDbEntity
8
dimensions
6
CONTINUOUS
62
7
370
0
100
AcDbTrace
10
-4.2265298668
20
160.035732813
30
0
11
-1.72915414175
21
160.46748205
31
0
12
-1.72400135272
22
159.63492868
32
0
13
-1.72400135272
23
159.63492868
33
0
0
SOLID
5
CD
100
AcDbEntity
8
dimensions
6
CONTINUOUS
62
7
370
0
100
AcDbTrace
10
-7.62646474941
20
160.014690141
30
0
11
-10.1238404745
21
159.582940903
31
0
12
-10.1289932635
22
160.415494273
32
0
13
-10.1289932635
23
160.415494273
33
0
0
MTEXT
5
CE
100
AcDbEntity
8
dimensions
6
CONTINUOUS
62
7
370
0
100
AcDbMText
10
-1.52985281841
20
161.927458834
30
0
40
2.5
41
4.16666666667
71
5
72
1
1
3.4
7
standard
210
0
220
0
230
1
50
0.354607049467
73
2
44
1
0
ENDBLK
5
70
330
6E
100
AcDbEntity
8
0
100
AcDbBlockEnd
0
BLOCK
5
72
330
71
100
AcDbEntity
8
0
100
AcDbBlockBegin
2
*D2
70
1
10
0
20
0
3
*D2
1

0
LINE
5
CF
100
AcDbEntity
8
dimensions
6
CONTINUOUS
62
7
370
0
100
AcDbLine
10
-73.2
20
190
11
-11.7
21
190
0
SOLID
5
D0
100
AcDbEntity
8
dimensions
6
CONTINUOUS
62
7
370
0
100
AcDbTrace
10
-73.2
20
190
30
0
11
-70.7
21
190.416284658
31
0
12
-70.7
22
189.583715342
32
0
13
-70.7
23
189.583715342
33
0
0
SOLID
5
D1
100
AcDbEntity
8
dimensions
6
CONTINUOUS
62
7
370
0
100
AcDbTrace
10
-11.7
20
190
30
0
11
-14.2
21
189.583715342
31
0
12
-14.2
22
190.416284658
32
0
13
-14.2
23
190.416284658
33
0
0
MTEXT
5
D2
100
AcDbEntity
8
dimensions
6
CONTINUOUS
62
7
370
0
100
AcDbMText
10
-42.45
20
191.875
30
0
40
2.5
41
5.27777777778
71
5
72
1
1
61.5
7
standard
210
0
220
0
230
1
50
0
73
2
44
1
0
LINE
5
D3
100
AcDbEntity
8
dimensions
6
CONTINUOUS
62
7
370
0
100
AcDbLine
10
-73.2
20
64.1290868113
11
-73.2
21
191.25
0
LINE
5
D4
100
AcDbEntity
8
dimensions
6
CONTINUOUS
62
7
370
0
100
AcDbLine
10
-11.7
20
170.650211477
11
-11.7
21
191.25
0
ENDBLK
5
73
330
71
100
AcDbEntity
8
0
100
AcDbBlockEnd
0
BLOCK
5
75
330
74
100
AcDbEntity
8
0
100
AcDbBlockBegin
2
*D12
70
1
10
0
20
0
3
*D12
1

0
LINE
5
D5
100
AcDbEntity
8
dimensions
6
CONTINUOUS
62
7
370
0
100
AcDbLine
10
8.3
20
150
11
24.9
21
150
0
SOLID
5
D6
100
AcDbEntity
8
dimensions
6
CONTINUOUS
62
7
370
0
100
AcDbTrace
10
8.3
20
150
30
0
11
10.8
21
150.416284658
31
0
12
10.8
22
149.583715342
32
0
13
10.8
23
149.583715342
33
0
0
SOLID
5
D7
100
AcDbEntity
8
dimensions
6
CONTINUOUS
62
7
370
0
100
AcDbTrace
10
24.9
20
150
30
0
11
22.4
21
149.583715342
31
0
12
22.4
22
150.416284658
32
0
13
22.4
23
150.416284658
33
0
0
MTEXT
5
D8
100
AcDbEntity
8
dimensions
6
CONTINUOUS
62
7
370
0
100
AcDbMText
10
16.6
20
151.875
30
0
40
2.5
41
5.27777777778
71
5
72
1
1
16.6
7
standard
210
0
220
0
230
1
50
0
73
2
44
1
0
LINE
5
D9
100
AcDbEntity
8
dimensions
6
CONTINUOUS
62
7
370
0
100
AcDbLine
10
8.3
20
142.009195325
11
8.3
21
151.25
0
LINE
5
DA
100
AcDbEntity
8
dimensions
6
CONTINUOUS
62
7
370
0
100
AcDbLine
10
24.9
20
142.009195325
11
24.9
21
151.25
0
ENDBLK
5
76
330
74
100
AcDbEntity
8
0
100
AcDbBlockEnd
0
BLOCK
5
78
330
77
100
AcDbEntity
8
0
100
AcDbBlockBegin
2
*D6
70
1
10
0
20
0
3
*D6
1

0
LINE
5
DB
100
AcDbEntity
8
dimensions
6
CONTINUOUS
62
7
370
0
100
AcDbLine
10
-90
20
170.025211477
11
-90
21
63.5040868113
0
SOLID
5
DC
100
AcDbEntity
8
dimensions
6
CONTINUOUS
62
7
370
0
100
AcDbTrace
10
-90
20
170.025211477
30
0
11
-89.5837153422
21
167.525211477
31
0
12
-90.4162846578
22
167.525211477
32
0
13
-90.4162846578
23
167.525211477
33
0
0
SOLID
5
DD
100
AcDbEntity
8
dimensions
6
CONTINUOUS
62
7
370
0
100
AcDbTrace
10
-90
20
63.5040868113
30
0
11
-90.4162846578
21
66.0040868113
31
0
12
-89.5837153422
22
66.0040868113
32
0
13
-89.5837153422
23
66.0040868113
33
0
0
MTEXT
5
DE
100
AcDbEntity
8
dimensions
6
CONTINUOUS
62
7
370
0
100
AcDbMText
10
-91.875
20
116.764649144
30
0
40
2.5
41
9.16666666667
71
5
72
1
1
106.52
7
standard
210
0
220
0
230
1
50
90
73
2
44
1
0
LINE
5
DF
100
AcDbEntity
8
dimensions
6
CONTINUOUS
62
7
370
0
100
AcDbLine
10
-12.325
20
170.025211477
11
-91.25
21
170.025211477
0
LINE
5
E0
100
AcDbEntity
8
dimensions
6
CONTINUOUS
62
7
370
0
100
AcDbLine
10
-73.825
20
63.5040868113
11
-91.25
21
63.5040868113
0
ENDBLK
5
79
330
77
100
AcDbEntity
8
0
100
AcDbBlockEnd
0
BLOCK
5
7B
330
7A
100
AcDbEntity
8
0
100
AcDbBlockBegin
2
*D10
70
1
10
0
20
0
3
*D10
1

0
LINE
5
E1
100
AcDbEntity
8
dimensions
6
CONTINUOUS
62
7
370
0
100
AcDbLine
10
-20
20
-50
11
119.6
21
-50
0
SOLID
5
E2
100
AcDbEntity
8
dimensions
6
CONTINUOUS
62
7
370
0
100
AcDbTrace
10
-20
20
-50
30
0
11
-17.5
21
-49.5837153422
31
0
12
-17.5
22
-50.4162846578
32
0
13
-17.5
23
-50.4162846578
33
0
0
SOLID
5
E3
100
AcDbEntity
8
dimensions
6
CONTINUOUS
62
7
370
0
100
AcDbTrace
10
119.6
20
-50
30
0
11
117.1
21
-50.4162846578
31
0
12
117.1
22
-49.5837153422
32
0
13
117.1
23
-49.5837153422
33
0
0
MTEXT
5
E4
100
AcDbEntity
8
dimensions
6
CONTINUOUS
62
7
370
0
100
AcDbMText
10
49.8
20
-48.125
30
0
40
2.5
41
7.22222222222
71
5
72
1
1
139.6
7
standard
210
0
220
0
230
1
50
0
73
2
44
1
0
LINE
5
E5
100
AcDbEntity
8
dimensions
6
CONTINUOUS
62
7
370
0
100
AcDbLine
10
-20
20
-29.2660161514
11
-20
21
-51.25
0
LINE
5
E6
100
AcDbEntity
8
dimensions
6
CONTINUOUS
62
7
370
0
100
AcDbLine
10
119.6
20
-29.2660161514
11
119.6
21
-51.25
0
ENDBLK
5
7C
330
7A
100
AcDbEntity
8
0
100
AcDbBlockEnd
0
BLOCK
5
7E
330
7D
100
AcDbEntity
8
0
100
AcDbBlockBegin
2
*D3
70
1
10
0
20
0
3
*D3
1

0
LINE
5
E7
100
AcDbEntity
8
dimensions
6
CONTINUOUS
62
7
370
0
100
AcDbLine
10
-11.7
20
190
11
127.9
21
190
0
SOLID
5
E8
100
AcDbEntity
8
dimensions
6
CONTINUOUS
62
7
370
0
100
AcDbTrace
10
-11.7
20
190
30
0
11
-9.2
21
190.416284658
31
0
12
-9.2
22
189.583715342
32
0
13
-9.2
23
189.583715342
33
0
0
SOLID
5
E9
100
AcDbEntity
8
dimensions
6
CONTINUOUS
62
7
370
0
100
AcDbTrace
10
127.9
20
190
30
0
11
125.4
21
189.583715342
31
0
12
125.4
22
190.416284658
32
0
13
125.4
23
190.416284658
33
0
0
MTEXT
5
EA
100
AcDbEntity
8
dimensions
6
CONTINUOUS
62
7
370
0
100
AcDbMText
10
58.1
20
191.875
30
0
40
2.5
41
7.22222222222
71
5
72
1
1
139.6
7
standard
210
0
220
0
230
1
50
0
73
2
44
1
0
LINE
5
EB
100
AcDbEntity
8
dimensions
6
CONTINUOUS
62
7
370
0
100
AcDbLine
10
-11.7
20
170.650211477
11
-11.7
21
191.25
0
LINE
5
EC
100
AcDbEntity
8
dimensions
6
CONTINUOUS
62
7
370
0
100
AcDbLine
10
127.9
20
170.650211477
11
127.9
21
191.25
0
ENDBLK
5
7F
330
7D
100
AcDbEntity
8
0
100
AcDbBlockEnd
0
BLOCK
5
81
330
80
100
AcDbEntity
8
0
100
AcDbBlockBegin
2
*D19
70
1
10
0
20
0
3
*D19
1

0
LINE
5
ED
100
AcDbEntity
8
dimensions
6
CONTINUOUS
62
7
370
0
100
AcDbLine
10
-30
20
-28.6410161514
11
-30
21
-18.6410161514
0
SOLID
5
EE
100
AcDbEntity
8
dimensions
6
CONTINUOUS
62
7
370
0
100
AcDbTrace
10
-30
20
-28.6410161514
30
0
11
-30.4162846578
21
-26.1410161514
31
0
12
-29.5837153422
22
-26.1410161514
32
0
13
-29.5837153422
23
-26.1410161514
33
0
0
SOLID
5
EF
100
AcDbEntity
8
dimensions
6
CONTINUOUS
62
7
370
0
100
AcDbTrace
10
-30
20
-18.6410161514
30
0
11
-29.5837153422
21
-21.1410161514
31
0
12
-30.4162846578
22
-21.1410161514
32
0
13
-30.4162846578
23
-21.1410161514
33
0
0
MTEXT
5
F0
100
AcDbEntity
8
dimensions
6
CONTINUOUS
62
7
370
0
100
AcDbMText
10
-31.875
20
-23.6410161514
30
0
40
2.5
41
2.5
71
5
72
1
1
10
7
standard
210
0
220
0
230
1
50
90
73
2
44
1
0
LINE
5
F1
100
AcDbEntity
8
dimensions
6
CONTINUOUS
62
7
370
0
100
AcDbLine
10
-20.625
20
-28.6410161514
11
-31.25
21
-28.6410161514
0
LINE
5
F2
100
AcDbEntity
8
dimensions
6
CONTINUOUS
62
7
370
0
100
AcDbLine
10
-14.8514973081
20
-18.6410161514
11
-31.25
21
-18.6410161514
0
ENDBLK
5
82
330
80
100
AcDbEntity
8
0
100
AcDbBlockEnd
0
ENDSEC
0
SECTION
2
ENTITIES
0
HATCH
5
F3
100
AcDbEntity
8
baseplate
6
ByLayer
62
256
370
-1
100
AcDbHatch
10
0
20
0
30
0
210
0
220
0
230
1
2
ansi31
70
0
71
0
91
1
92
0
93
4
72
1
10
123.145517328
20
-2.5
11
114.48526329
21
2.5
72
1
10
114.48526329
20
2.5
11
139.48526329
21
45.8012701892
72
1
10
139.48526329
20
45.8012701892
11
148.145517328
21
40.8012701892
72
1
10
148.145517328
20
40.8012701892
11
123.145517328
21
-2.5
97
0
75
0
76
1
52
0
41
1
77
0
78
0
98
0
0
LINE
5
F4
100
AcDbEntity
8
0
6
ByLayer
62
256
370
-1
100
AcDbLine
10
0
20
0
11
10
21
0
0
LINE
5
F5
100
AcDbEntity
8
0
6
ByLayer
62
256
370
-1
100
AcDbLine
10
-5
20
8.66025403784
11
5
21
-8.66025403784
0
CIRCLE
5
F6
100
AcDbEntity
8
0
6
ByLayer
62
256
370
-1
100
AcDbCircle
10
0
20
0
40
16.6
0
LINE
5
F7
100
AcDbEntity
8
0
6
ByLayer
62
256
370
-1
100
AcDbLine
10
-8.3
20
14.3760217028
11
1.7
21
14.3760217028
0
CIRCLE
5
F8
100
AcDbEntity
8
0
6
ByLayer
62
256
370
-1
100
AcDbCircle
10
-8.3
20
14.3760217028
40
16.6
0
CIRCLE
5
F9
100
AcDbEntity
8
0
6
ByLayer
62
256
370
-1
100
AcDbCircle
10
-16.6
20
28.7520434056
40
16.6
0
CIRCLE
5
FA
100
AcDbEntity
8
0
6
ByLayer
62
256
370
-1
100
AcDbCircle
10
-24.9
20
43.1280651085
40
16.6
0
CIRCLE
5
FB
100
AcDbEntity
8
0
6
ByLayer
62
256
370
-1
100
AcDbCircle
10
-33.2
20
57.5040868113
40
16.6
0
LINE
5
FC
100
AcDbEntity
8
0
6
ByLayer
62
256
370
-1
100
AcDbLine
10
-16.6
20
28.7520434056
11
-15.6
21
28.7520434056
0
LINE
5
FD
100
AcDbEntity
8
0
6
ByLayer
62
256
370
-1
100
AcDbLine
10
-24.9
20
43.1280651085
11
-23.9
21
43.1280651085
0
LINE
5
FE
100
AcDbEntity
8
0
6
ByLayer
62
256
370
-1
100
AcDbLine
10
-33.2
20
57.5040868113
11
-32.2
21
57.5040868113
0
LINE
5
FF
100
AcDbEntity
8
0
6
ByLayer
62
256
370
-1
100
AcDbLine
10
-38.2
20
48.8438327734
11
-28.2
21
66.1643408491
0
CIRCLE
5
100
100
AcDbEntity
8
0
6
ByLayer
62
256
370
-1
100
AcDbCircle
10
-24.9
20
71.8801085141
40
16.6
0
CIRCLE
5
101
100
AcDbEntity
8
0
6
ByLayer
62
256
370
-1
100
AcDbCircle
10
-16.6
20
86.2561302169
40
16.6
0
CIRCLE
5
102
100
AcDbEntity
8
0
6
ByLayer
62
256
370
-1
100
AcDbCircle
10
-8.3
20
100.63215192
40
16.6
0
CIRCLE
5
103
100
AcDbEntity
8
0
6
ByLayer
62
256
370
-1
100
AcDbCircle
10
-1.31274252724e-13
20
115.008173623
40
16.6
0
CIRCLE
5
104
100
AcDbEntity
8
0
6
ByLayer
62
256
370
-1
100
AcDbCircle
10
8.3
20
129.384195325
40
16.6
0
LINE
5
105
100
AcDbEntity
8
0
6
ByLayer
62
256
370
-1
100
AcDbLine
10
-24.9
20
71.8801085141
11
-23.9
21
71.8801085141
0
LINE
5
106
100
AcDbEntity
8
0
6
ByLayer
62
256
370
-1
100
AcDbLine
10
-16.5999956297
20
86.2561276937
11
-15.5999956297
21
86.2561276937
0
LINE
5
107
100
AcDbEntity
8
0
6
ByLayer
62
256
370
-1
100
AcDbLine
10
-8.3
20
100.63215192
11
-7.3
21
100.63215192
0
LINE
5
108
100
AcDbEntity
8
0
6
ByLayer
62
256
370
-1
100
AcDbLine
10
1.12031262596e-05
20
115.008167154
11
1.00001120313
21
115.008167154
0
LINE
5
109
100
AcDbEntity
8
0
6
ByLayer
62
256
370
-1
100
AcDbLine
10
8.3
20
129.384195325
11
9.3
21
129.384195325
0
LINE
5
10A
100
AcDbEntity
8
0
6
ByLayer
62
256
370
-1
100
AcDbLine
10
-33.2
20
57.5040868113
11
-33.2
21
58.5040868113
0
LINE
5
10B
100
AcDbEntity
8
0
6
ByLayer
62
256
370
-1
100
AcDbLine
10
-24.9
20
43.1280651085
11
-24.9
21
44.1280651085
0
LINE
5
10C
100
AcDbEntity
8
0
6
ByLayer
62
256
370
-1
100
AcDbLine
10
-8.3
20
43.1280651085
11
-8.3
21
44.1280651085
0
LINE
5
10D
100
AcDbEntity
8
0
6
ByLayer
62
256
370
-1
100
AcDbLine
10
8.3
20
43.1280651085
11
8.3
21
44.1280651085
0
LINE
5
10E
100
AcDbEntity
8
0
6
ByLayer
62
256
370
-1
100
AcDbLine
10
24.9
20
43.1280651085
11
24.9
21
44.1280651085
0
LINE
5
10F
100
AcDbEntity
8
0
6
ByLayer
62
256
370
-1
100
AcDbLine
10
41.5
20
43.1280651085
11
41.5
21
44.1280651085
0
LINE
5
110
100
AcDbEntity
8
0
6
ByLayer
62
256
370
-1
100
AcDbLine
10
58.1
20
43.1280651085
11
58.1
21
44.1280651085
0
LINE
5
111
100
AcDbEntity
8
0
6
ByLayer
62
256
370
-1
100
AcDbLine
10
74.7
20
43.1280651085
11
74.7
21
44.1280651085
0
LINE
5
112
100
AcDbEntity
8
0
6
ByLayer
62
256
370
-1
100
AcDbLine
10
91.3
20
43.1280651085
11
91.3
21
44.1280651085
0
LINE
5
113
100
AcDbEntity
8
0
6
ByLayer
62
256
370
-1
100
AcDbLine
10
107.9
20
43.1280651085
11
107.9
21
44.1280651085
0
LINE
5
114
100
AcDbEntity
8
0
6
ByLayer
62
256
370
-1
100
AcDbLine
10
124.5
20
43.1280651085
11
124.5
21
44.1280651085
0
LINE
5
115
100
AcDbEntity
8
0
6
ByLayer
62
256
370
-1
100
AcDbLine
10
-16.6
20
57.5040868113
11
-16.6
21
58.5040868113
0
LINE
5
116
100
AcDbEntity
8
0
6
ByLayer
62
256
370
-1
100
AcDbLine
10
-2.13162820728e-14
20
57.5040868113
11
-2.13162820728e-14
21
58.5040868113
0
LINE
5
117
100
AcDbEntity
8
0
6
ByLayer
62
256
370
-1
100
AcDbLine
10
16.6
20
57.5040868113
11
16.6
21
58.5040868113
0
LINE
5
118
100
AcDbEntity
8
0
6
ByLayer
62
256
370
-1
100
AcDbLine
10
33.2
20
57.5040868113
11
33.2
21
58.5040868113
0
LINE
5
119
100
AcDbEntity
8
0
6
ByLayer
62
256
370
-1
100
AcDbLine
10
49.8
20
57.5040868113
11
49.8
21
58.5040868113
0
LINE
5
11A
100
AcDbEntity
8
0
6
ByLayer
62
256
370
-1
100
AcDbLine
10
66.4
20
57.5040868113
11
66.4
21
58.5040868113
0
LINE
5
11B
100
AcDbEntity
8
0
6
ByLayer
62
256
370
-1
100
AcDbLine
10
83
20
57.5040868113
11
83
21
58.5040868113
0
LINE
5
11C
100
AcDbEntity
8
0
6
ByLayer
62
256
370
-1
100
AcDbLine
10
99.6
20
57.5040868113
11
99.6
21
58.5040868113
0
LINE
5
11D
100
AcDbEntity
8
0
6
ByLayer
62
256
370
-1
100
AcDbLine
10
116.2
20
57.5040868113
11
116.2
21
58.5040868113
0
LINE
5
11E
100
AcDbEntity
8
0
6
ByLayer
62
256
370
-1
100
AcDbLine
10
7.34788079488e-16
20
12
11
10
21
12
0
LINE
5
11F
100
AcDbEntity
8
0
6
ByLayer
62
256
370
-1
100
AcDbLine
10
-8.3
20
26.3760217028
11
1.7
21
26.3760217028
0
LINE
5
120
100
AcDbEntity
8
0
6
ByLayer
62
256
370
-1
100
AcDbLine
10
-16.6
20
40.7520434056
11
-15.6
21
40.7520434056
0
LINE
5
121
100
AcDbEntity
8
0
6
ByLayer
62
256
370
-1
100
AcDbLine
10
-24.9
20
55.1280651085
11
-23.9
21
55.1280651085
0
LINE
5
122
100
AcDbEntity
8
0
6
ByLayer
62
256
370
-1
100
AcDbLine
10
-33.2
20
69.5040868113
11
-32.2
21
69.5040868113
0
LINE
5
123
100
AcDbEntity
8
0
6
ByLayer
62
256
370
-1
100
AcDbLine
10
-24.9
20
83.8801085141
11
-23.9
21
83.8801085141
0
LINE
5
124
100
AcDbEntity
8
0
6
ByLayer
62
256
370
-1
100
AcDbLine
10
-16.5999956297
20
98.2561276937
11
-15.5999956297
21
98.2561276937
0
LINE
5
125
100
AcDbEntity
8
0
6
ByLayer
62
256
370
-1
100
AcDbLine
10
-8.3
20
112.63215192
11
-7.3
21
112.63215192
0
LINE
5
126
100
AcDbEntity
8
0
6
ByLayer
62
256
370
-1
100
AcDbLine
10
1.12031262603e-05
20
127.008167154
11
1.00001120313
21
127.008167154
0
LINE
5
127
100
AcDbEntity
8
0
6
ByLayer
62
256
370
-1
100
AcDbLine
10
8.3
20
141.384195325
11
9.3
21
141.384195325
0
LINE
5
128
100
AcDbEntity
8
strips
6
ByLayer
62
256
370
-1
100
AcDbLine
10
-2.13162820728e-14
20
-1.42108547152e-14
11
99.6
21
0
0
LINE
5
129
100
AcDbEntity
8
strips
6
ByLayer
62
256
370
-1
100
AcDbLine
10
99.6
20
0
11
99.6
21
12
0
LINE
5
12A
100
AcDbEntity
8
strips
6
ByLayer
62
256
370
-1
100
AcDbLine
10
99.6
20
12
11
-2.13162820728e-14
21
12
0
LINE
5
12B
100
AcDbEntity
8
strips
6
ByLayer
62
256
370
-1
100
AcDbLine
10
-2.13162820728e-14
20
12
11
-2.13162820728e-14
21
3.69208835786e-14
0
LINE
5
12C
100
AcDbEntity
8
strips
6
ByLayer
62
256
370
-1
100
AcDbLine
10
-8.3
20
14.3760217028
11
107.9
21
14.3760217028
0
LINE
5
12D
100
AcDbEntity
8
strips
6
ByLayer
62
256
370
-1
100
AcDbLine
10
107.9
20
14.3760217028
11
107.9
21
26.3760217028
0
LINE
5
12E
100
AcDbEntity
8
strips
6
ByLayer
62
256
370
-1
100
AcDbLine
10
107.9
20
26.3760217028
11
-8.3
21
26.3760217028
0
LINE
5
12F
100
AcDbEntity
8
strips
6
ByLayer
62
256
370
-1
100
AcDbLine
10
-8.3
20
26.3760217028
11
-8.3
21
14.3760217028
0
LINE
5
130
100
AcDbEntity
8
strips
6
ByLayer
62
256
370
-1
100
AcDbLine
10
-16.6
20
28.7520434056
11
-16.6
21
40.7520434056
0
LINE
5
131
100
AcDbEntity
8
strips
6
ByLayer
62
256
370
-1
100
AcDbLine
10
-16.6
20
40.7520434056
11
116.2
21
40.7520434056
0
LINE
5
132
100
AcDbEntity
8
strips
6
ByLayer
62
256
370
-1
100
AcDbLine
10
116.2
20
40.7520434056
11
116.2
21
28.7520434056
0
LINE
5
133
100
AcDbEntity
8
strips
6
ByLayer
62
256
370
-1
100
AcDbLine
10
116.2
20
28.7520434056
11
-16.6
21
28.7520434056
0
LINE
5
134
100
AcDbEntity
8
strips
6
ByLayer
62
256
370
-1
100
AcDbLine
10
-24.9
20
43.1280651085
11
-24.9
21
55.1280651085
0
LINE
5
135
100
AcDbEntity
8
strips
6
ByLayer
62
256
370
-1
100
AcDbLine
10
-24.9
20
55.1280651085
11
124.5
21
55.1280651085
0
LINE
5
136
100
AcDbEntity
8
strips
6
ByLayer
62
256
370
-1
100
AcDbLine
10
124.5
20
55.1280651085
11
124.5
21
43.1280651085
0
LINE
5
137
100
AcDbEntity
8
strips
6
ByLayer
62
256
370
-1
100
AcDbLine
10
124.5
20
43.1280651085
11
-24.9000008259
21
43.1280646316
0
LINE
5
138
100
AcDbEntity
8
0
6
ByLayer
62
256
370
-1
100
AcDbLine
10
132.8
20
57.5040868113
11
132.8
21
58.5040868113
0
LINE
5
139
100
AcDbEntity
8
strips
6
ByLayer
62
256
370
-1
100
AcDbLine
10
-33.2
20
57.5040868113
11
132.8
21
57.5040868113
0
LINE
5
13A
100
AcDbEntity
8
strips
6
ByLayer
62
256
370
-1
100
AcDbLine
10
132.8
20
57.5040868113
11
132.8
21
69.5040868113
0
LINE
5
13B
100
AcDbEntity
8
strips
6
ByLayer
62
256
370
-1
100
AcDbLine
10
132.8
20
69.5040868113
11
-33.2
21
69.5040868113
0
LINE
5
13C
100
AcDbEntity
8
strips
6
ByLayer
62
256
370
-1
100
AcDbLine
10
-33.2
20
69.5040868113
11
-33.2
21
57.5040868113
0
LINE
5
13D
100
AcDbEntity
8
0
6
ByLayer
62
256
370
-1
100
AcDbLine
10
141.1
20
43.1280651085
11
141.1
21
44.1280651085
0
LINE
5
13E
100
AcDbEntity
8
strips
6
ByLayer
62
256
370
-1
100
AcDbLine
10
-24.9
20
71.8801085141
11
141.1
21
71.8801085141
0
LINE
5
13F
100
AcDbEntity
8
strips
6
ByLayer
62
256
370
-1
100
AcDbLine
10
141.1
20
71.8801085141
11
141.1
21
83.8801085141
0
LINE
5
140
100
AcDbEntity
8
strips
6
ByLayer
62
256
370
-1
100
AcDbLine
10
141.1
20
83.8801085141
11
-24.9
21
83.8801085141
0
LINE
5
141
100
AcDbEntity
8
strips
6
ByLayer
62
256
370
-1
100
AcDbLine
10
-24.9
20
83.8801085141
11
-24.9
21
71.8801085141
0
LINE
5
142
100
AcDbEntity
8
strips
6
ByLayer
62
256
370
-1
100
AcDbLine
10
132.8
20
98.2561276937
11
-16.5999956297
21
98.2561276937
0
LINE
5
143
100
AcDbEntity
8
strips
6
ByLayer
62
256
370
-1
100
AcDbLine
10
-16.5999956297
20
98.2561276937
11
-16.5999956297
21
86.2561276937
0
LINE
5
144
100
AcDbEntity
8
strips
6
ByLayer
62
256
370
-1
100
AcDbLine
10
-16.5999956297
20
86.2561276937
11
132.8
21
86.2561276937
0
LINE
5
145
100
AcDbEntity
8
strips
6
ByLayer
62
256
370
-1
100
AcDbLine
10
132.8
20
86.2561276937
11
132.8
21
98.2561276937
0
LINE
5
146
100
AcDbEntity
8
strips
6
ByLayer
62
256
370
-1
100
AcDbLine
10
124.5
20
112.63215192
11
-8.3
21
112.63215192
0
LINE
5
147
100
AcDbEntity
8
strips
6
ByLayer
62
256
370
-1
100
AcDbLine
10
-8.3
20
112.63215192
11
-8.3
21
100.63215192
0
LINE
5
148
100
AcDbEntity
8
strips
6
ByLayer
62
256
370
-1
100
AcDbLine
10
-8.3
20
100.63215192
11
124.5
21
100.63215192
0
LINE
5
149
100
AcDbEntity
8
strips
6
ByLayer
62
256
370
-1
100
AcDbLine
10
124.5
20
100.63215192
11
124.5
21
112.63215192
0
LINE
5
14A
100
AcDbEntity
8
strips
6
ByLayer
62
256
370
-1
100
AcDbLine
10
-2.84217094304e-14
20
127.008167154
11
-2.84217094304e-14
21
115.008173623
0
LINE
5
14B
100
AcDbEntity
8
strips
6
ByLayer
62
256
370
-1
100
AcDbLine
10
16.6
20
127.008167154
11
16.6
21
115.00817553
0
LINE
5
14C
100
AcDbEntity
8
strips
6
ByLayer
62
256
370
-1
100
AcDbLine
10
8.3
20
112.63215192
11
8.3
21
100.632153268
0
LINE
5
14D
100
AcDbEntity
8
strips
6
ByLayer
62
256
370
-1
100
AcDbLine
10
-2.13162820728e-14
20
86.2561276937
11
-2.13162820728e-14
21
98.2561276937
0
LINE
5
14E
100
AcDbEntity
8
strips
6
ByLayer
62
256
370
-1
100
AcDbLine
10
16.6
20
-8.59630411974e-07
11
16.6
21
12
0
LINE
5
14F
100
AcDbEntity
8
strips
6
ByLayer
62
256
370
-1
100
AcDbLine
10
-3.5527136788e-15
20
28.7520434056
11
-2.13162820728e-14
21
40.7520434056
0
LINE
5
150
100
AcDbEntity
8
strips
6
ByLayer
62
256
370
-1
100
AcDbLine
10
-8.3
20
43.1280651085
11
-8.3
21
55.1280651085
0
LINE
5
151
100
AcDbEntity
8
strips
6
ByLayer
62
256
370
-1
100
AcDbLine
10
-16.599997139
20
57.5040884631
11
-16.6
21
69.5040868113
0
LINE
5
152
100
AcDbEntity
8
strips
6
ByLayer
62
256
370
-1
100
AcDbLine
10
-8.3
20
71.8801085141
11
-8.3
21
83.8801085141
0
LINE
5
153
100
AcDbEntity
8
strips
6
ByLayer
62
256
370
-1
100
AcDbLine
10
33.2
20
12
11
33.2
21
0
0
LINE
5
154
100
AcDbEntity
8
strips
6
ByLayer
62
256
370
-1
100
AcDbLine
10
49.8
20
0
11
49.8
21
12
0
LINE
5
155
100
AcDbEntity
8
strips
6
ByLayer
62
256
370
-1
100
AcDbLine
10
66.4
20
12
11
66.4
21
0
0
LINE
5
156
100
AcDbEntity
8
strips
6
ByLayer
62
256
370
-1
100
AcDbLine
10
83
20
0
11
83
21
12
0
LINE
5
157
100
AcDbEntity
8
strips
6
ByLayer
62
256
370
-1
100
AcDbLine
10
-2.84217094304e-14
20
127.008167154
11
66.4
21
127.008167154
0
LINE
5
158
100
AcDbEntity
8
strips
6
ByLayer
62
256
370
-1
100
AcDbLine
10
66.4
20
127.008167154
11
66.4
21
115.008167154
0
LINE
5
159
100
AcDbEntity
8
strips
6
ByLayer
62
256
370
-1
100
AcDbLine
10
66.4
20
115.008167154
11
1.12031459842e-05
21
115.008167154
0
LINE
5
15A
100
AcDbEntity
8
strips
6
ByLayer
62
256
370
-1
100
AcDbLine
10
33.2
20
127.008167154
11
33.2
21
115.008167154
0
LINE
5
15B
100
AcDbEntity
8
strips
6
ByLayer
62
256
370
-1
100
AcDbLine
10
49.8
20
127.008167154
11
49.8
21
115.008167154
0
LINE
5
15C
100
AcDbEntity
8
strips
6
ByLayer
62
256
370
-1
100
AcDbLine
10
8.3
20
71.8801085141
11
8.3
21
83.8801085141
0
LINE
5
15D
100
AcDbEntity
8
strips
6
ByLayer
62
256
370
-1
100
AcDbLine
10
24.9
20
71.8801085141
11
24.9
21
83.8801085141
0
LINE
5
15E
100
AcDbEntity
8
strips
6
ByLayer
62
256
370
-1
100
AcDbLine
10
41.5
20
71.8801085141
11
41.5
21
83.8801085141
0
LINE
5
15F
100
AcDbEntity
8
strips
6
ByLayer
62
256
370
-1
100
AcDbLine
10
58.1
20
71.8801085141
11
58.1
21
83.8801085141
0
LINE
5
160
100
AcDbEntity
8
strips
6
ByLayer
62
256
370
-1
100
AcDbLine
10
74.7
20
71.8801085141
11
74.7
21
83.8801085141
0
LINE
5
161
100
AcDbEntity
8
strips
6
ByLayer
62
256
370
-1
100
AcDbLine
10
91.3
20
71.8801085141
11
91.3
21
83.8801085141
0
LINE
5
162
100
AcDbEntity
8
strips
6
ByLayer
62
256
370
-1
100
AcDbLine
10
107.9
20
71.8801085141
11
107.9
21
83.8801085141
0
LINE
5
163
100
AcDbEntity
8
strips
6
ByLayer
62
256
370
-1
100
AcDbLine
10
124.5
20
71.8801085141
11
124.5
21
83.8801085141
0
LINE
5
164
100
AcDbEntity
8
strips
6
ByLayer
62
256
370
-1
100
AcDbLine
10
141.1
20
71.8801085141
11
141.1
21
83.8801085141
0
LINE
5
165
100
AcDbEntity
8
strips
6
ByLayer
62
256
370
-1
100
AcDbLine
10
2.86102173064e-06
20
57.5040924208
11
-4.93827201353e-13
21
69.504090769
0
LINE
5
166
100
AcDbEntity
8
strips
6
ByLayer
62
256
370
-1
100
AcDbLine
10
16.600002861
20
57.5040963786
11
16.6
21
69.5040947268
0
LINE
5
167
100
AcDbEntity
8
strips
6
ByLayer
62
256
370
-1
100
AcDbLine
10
33.200002861
20
57.5041003363
11
33.2
21
69.5040986845
0
LINE
5
168
100
AcDbEntity
8
strips
6
ByLayer
62
256
370
-1
100
AcDbLine
10
49.800002861
20
57.5041042941
11
49.8
21
69.5041026423
0
LINE
5
169
100
AcDbEntity
8
strips
6
ByLayer
62
256
370
-1
100
AcDbLine
10
66.400002861
20
57.5041082518
11
66.4
21
69.5041066
0
LINE
5
16A
100
AcDbEntity
8
strips
6
ByLayer
62
256
370
-1
100
AcDbLine
10
83.000002861
20
57.5041122096
11
83
21
69.5041105578
0
LINE
5
16B
100
AcDbEntity
8
strips
6
ByLayer
62
256
370
-1
100
AcDbLine
10
99.600002861
20
57.5041161673
11
99.6
21
69.5041145155
0
LINE
5
16C
100
AcDbEntity
8
strips
6
ByLayer
62
256
370
-1
100
AcDbLine
10
116.200002861
20
57.5041201251
11
116.2
21
69.5041184733
0
LINE
5
16D
100
AcDbEntity
8
strips
6
ByLayer
62
256
370
-1
100
AcDbLine
10
8.3
20
43.1280651085
11
8.3
21
55.1280651085
0
LINE
5
16E
100
AcDbEntity
8
strips
6
ByLayer
62
256
370
-1
100
AcDbLine
10
24.9
20
43.1280651085
11
24.9
21
55.1280651085
0
LINE
5
16F
100
AcDbEntity
8
strips
6
ByLayer
62
256
370
-1
100
AcDbLine
10
41.5
20
43.1280651085
11
41.5
21
55.1280651085
0
LINE
5
170
100
AcDbEntity
8
strips
6
ByLayer
62
256
370
-1
100
AcDbLine
10
58.1
20
43.1280651085
11
58.1
21
55.1280651085
0
LINE
5
171
100
AcDbEntity
8
strips
6
ByLayer
62
256
370
-1
100
AcDbLine
10
74.7
20
43.1280651085
11
74.7
21
55.1280651085
0
LINE
5
172
100
AcDbEntity
8
strips
6
ByLayer
62
256
370
-1
100
AcDbLine
10
91.3
20
43.1280651085
11
91.3
21
55.1280651085
0
LINE
5
173
100
AcDbEntity
8
strips
6
ByLayer
62
256
370
-1
100
AcDbLine
10
107.9
20
43.1280651085
11
107.9
21
55.1280651085
0
LINE
5
174
100
AcDbEntity
8
strips
6
ByLayer
62
256
370
-1
100
AcDbLine
10
16.6
20
28.7520434056
11
16.6
21
40.7520434056
0
LINE
5
175
100
AcDbEntity
8
strips
6
ByLayer
62
256
370
-1
100
AcDbLine
10
33.2
20
28.7520434056
11
33.2
21
40.7520434056
0
LINE
5
176
100
AcDbEntity
8
strips
6
ByLayer
62
256
370
-1
100
AcDbLine
10
49.8
20
28.7520434056
11
49.8
21
40.7520434056
0
LINE
5
177
100
AcDbEntity
8
strips
6
ByLayer
62
256
370
-1
100
AcDbLine
10
66.4
20
28.7520434056
11
66.4
21
40.7520434056
0
LINE
5
178
100
AcDbEntity
8
strips
6
ByLayer
62
256
370
-1
100
AcDbLine
10
83
20
28.7520434056
11
83
21
40.7520434056
0
LINE
5
179
100
AcDbEntity
8
strips
6
ByLayer
62
256
370
-1
100
AcDbLine
10
99.6
20
28.7520434056
11
99.6
21
40.7520434056
0
LINE
5
17A
100
AcDbEntity
8
strips
6
ByLayer
62
256
370
-1
100
AcDbLine
10
8.3
20
14.3760217028
11
8.3
21
26.3760217028
0
LINE
5
17B
100
AcDbEntity
8
strips
6
ByLayer
62
256
370
-1
100
AcDbLine
10
24.9
20
14.3760217028
11
24.9
21
26.3760217028
0
LINE
5
17C
100
AcDbEntity
8
strips
6
ByLayer
62
256
370
-1
100
AcDbLine
10
41.5
20
14.3760217028
11
41.5
21
26.3760217028
0
LINE
5
17D
100
AcDbEntity
8
strips
6
ByLayer
62
256
370
-1
100
AcDbLine
10
58.1
20
14.3760217028
11
58.1
21
26.3760217028
0
LINE
5
17E
100
AcDbEntity
8
strips
6
ByLayer
62
256
370
-1
100
AcDbLine
10
74.7
20
14.3760217028
11
74.7
21
26.3760217028
0
LINE
5
17F
100
AcDbEntity
8
strips
6
ByLayer
62
256
370
-1
100
AcDbLine
10
91.3
20
14.3760217028
11
91.3
21
26.3760217028
0
LINE
5
180
100
AcDbEntity
8
strips
6
ByLayer
62
256
370
-1
100
AcDbLine
10
16.6
20
86.2561276937
11
16.6
21
98.2561276937
0
LINE
5
181
100
AcDbEntity
8
strips
6
ByLayer
62
256
370
-1
100
AcDbLine
10
33.2
20
86.2561276937
11
33.2
21
98.2561276937
0
LINE
5
182
100
AcDbEntity
8
strips
6
ByLayer
62
256
370
-1
100
AcDbLine
10
49.8
20
86.2561276937
11
49.8
21
98.2561276937
0
LINE
5
183
100
AcDbEntity
8
strips
6
ByLayer
62
256
370
-1
100
AcDbLine
10
66.4
20
86.2561276937
11
66.4
21
98.2561276937
0
LINE
5
184
100
AcDbEntity
8
strips
6
ByLayer
62
256
370
-1
100
AcDbLine
10
83
20
86.2561276937
11
83
21
98.2561276937
0
LINE
5
185
100
AcDbEntity
8
strips
6
ByLayer
62
256
370
-1
100
AcDbLine
10
99.6
20
86.2561276937
11
99.6
21
98.2561276937
0
LINE
5
186
100
AcDbEntity
8
strips
6
ByLayer
62
256
370
-1
100
AcDbLine
10
116.2
20
86.2561276937
11
116.2
21
98.2561276937
0
LINE
5
187
100
AcDbEntity
8
strips
6
ByLayer
62
256
370
-1
100
AcDbLine
10
24.9
20
112.63215192
11
24.9
21
100.632153268
0
LINE
5
188
100
AcDbEntity
8
strips
6
ByLayer
62
256
370
-1
100
AcDbLine
10
41.5
20
112.63215192
11
41.5
21
100.632153268
0
LINE
5
189
100
AcDbEntity
8
strips
6
ByLayer
62
256
370
-1
100
AcDbLine
10
58.1
20
112.63215192
11
58.1
21
100.632153268
0
LINE
5
18A
100
AcDbEntity
8
strips
6
ByLayer
62
256
370
-1
100
AcDbLine
10
74.7
20
112.63215192
11
74.7
21
100.632153268
0
LINE
5
18B
100
AcDbEntity
8
strips
6
ByLayer
62
256
370
-1
100
AcDbLine
10
91.3
20
112.63215192
11
91.3
21
100.632153268
0
LINE
5
18C
100
AcDbEntity
8
strips
6
ByLayer
62
256
370
-1
100
AcDbLine
10
107.9
20
112.63215192
11
107.9
21
100.632153268
0
LINE
5
18D
100
AcDbEntity
8
strips
6
ByLayer
62
256
370
-1
100
AcDbLine
10
8.3
20
129.384195325
11
74.7
21
129.384195325
0
LINE
5
18E
100
AcDbEntity
8
strips
6
ByLayer
62
256
370
-1
100
AcDbLine
10
74.7
20
129.384195325
11
74.7
21
141.384195325
0
LINE
5
18F
100
AcDbEntity
8
strips
6
ByLayer
62
256
370
-1
100
AcDbLine
10
74.7
20
141.384195325
11
8.3
21
141.384195325
0
LINE
5
190
100
AcDbEntity
8
strips
6
ByLayer
62
256
370
-1
100
AcDbLine
10
8.3
20
141.384195325
11
8.3
21
129.384195325
0
LINE
5
191
100
AcDbEntity
8
strips
6
ByLayer
62
256
370
-1
100
AcDbLine
10
24.9
20
141.384195325
11
24.9
21
129.384195325
0
LINE
5
192
100
AcDbEntity
8
strips
6
ByLayer
62
256
370
-1
100
AcDbLine
10
41.5
20
141.384195325
11
41.5
21
129.384195325
0
LINE
5
193
100
AcDbEntity
8
strips
6
ByLayer
62
256
370
-1
100
AcDbLine
10
58.1
20
141.384195325
11
58.1
21
129.384195325
0
LINE
5
194
100
AcDbEntity
8
strips
6
ByLayer
62
256
370
-1
100
AcDbLine
10
83
20
127.008167154
11
83
21
115.008167154
0
LINE
5
195
100
AcDbEntity
8
strips
6
ByLayer
62
256
370
-1
100
AcDbLine
10
66.4
20
127.008167154
11
83
21
127.008167154
0
LINE
5
196
100
AcDbEntity
8
strips
6
ByLayer
62
256
370
-1
100
AcDbLine
10
83
20
115.008167154
11
66.4
21
115.008167154
0
LINE
5
197
100
AcDbEntity
8
strips
6
ByLayer
62
256
370
-1
100
AcDbLine
10
99.6
20
127.008167154
11
99.6
21
115.008167154
0
LINE
5
198
100
AcDbEntity
8
strips
6
ByLayer
62
256
370
-1
100
AcDbLine
10
83
20
127.008167154
11
99.6
21
127.008167154
0
LINE
5
199
100
AcDbEntity
8
strips
6
ByLayer
62
256
370
-1
100
AcDbLine
10
99.6
20
115.008167154
11
83
21
115.008167154
0
LINE
5
19A
100
AcDbEntity
8
strips
6
ByLayer
62
256
370
-1
100
AcDbLine
10
99.6
20
127.008167154
11
116.2
21
127.008167154
0
LINE
5
19B
100
AcDbEntity
8
strips
6
ByLayer
62
256
370
-1
100
AcDbLine
10
116.2
20
127.008167154
11
116.2
21
115.008167154
0
LINE
5
19C
100
AcDbEntity
8
strips
6
ByLayer
62
256
370
-1
100
AcDbLine
10
116.2
20
115.008167154
11
99.6
21
115.008167154
0
CIRCLE
5
19D
100
AcDbEntity
8
plate_construction
6
ByLayer
62
256
370
-1
100
AcDbCircle
10
-2.13162820728e-14
20
6
40
40
0
CIRCLE
5
19E
100
AcDbEntity
8
plate_construction
6
ByLayer
62
256
370
-1
100
AcDbCircle
10
-33.2
20
63.5040868113
40
40
0
CIRCLE
5
19F
100
AcDbEntity
8
plate_construction
6
ByLayer
62
256
370
-1
100
AcDbCircle
10
8.3
20
135.384195325
40
40
0
CIRCLE
5
1A0
100
AcDbEntity
8
plate_construction
6
ByLayer
62
256
370
-1
100
AcDbCircle
10
99.6
20
6
40
40
0
CIRCLE
5
1A1
100
AcDbEntity
8
plate_construction
6
ByLayer
62
256
370
-1
100
AcDbCircle
10
141.1
20
77.8801085141
40
40
0
LINE
5
1A2
100
AcDbEntity
8
plate_construction
6
ByLayer
62
256
370
-1
100
AcDbLine
10
5
20
14.6602540378
11
-5
21
-2.66025403784
0
LINE
5
1A3
100
AcDbEntity
8
plate_construction
6
ByLayer
62
256
370
-1
100
AcDbLine
10
3.3
20
144.044449363
11
13.3
21
126.723941288
0
LINE
5
1A4
100
AcDbEntity
8
plate_construction
6
ByLayer
62
256
370
-1
100
AcDbLine
10
94.6
20
14.6602540378
11
104.6
21
-2.66025403784
0
LINE
5
1A5
100
AcDbEntity
8
plate_construction
6
ByLayer
62
256
370
-1
100
AcDbLine
10
-23.2
20
63.5040868113
11
-43.2
21
63.5040868113
0
LINE
5
1A6
100
AcDbEntity
8
plate_construction
6
ByLayer
62
256
370
-1
100
AcDbLine
10
151.1
20
77.8801085141
11
131.1
21
77.8801085141
0
LINE
5
1A7
100
AcDbEntity
8
plate_construction
6
ByLayer
62
256
370
-1
100
AcDbLine
10
-73.2
20
63.5040868113
11
-20
21
-28.6410161514
0
LINE
5
1A8
100
AcDbEntity
8
plate_construction
6
ByLayer
62
256
370
-1
100
AcDbLine
10
-20
20
-28.6410161514
11
119.6
21
-28.6410161514
0
LINE
5
1A9
100
AcDbEntity
8
plate_construction
6
ByLayer
62
256
370
-1
100
AcDbLine
10
119.6
20
-28.6410161514
11
181.1
21
77.8801085141
0
LINE
5
1AA
100
AcDbEntity
8
plate_construction
6
ByLayer
62
256
370
-1
100
AcDbLine
10
-73.2
20
63.5040868113
11
-11.7
21
170.025211477
0
LINE
5
1AB
100
AcDbEntity
8
plate_construction
6
ByLayer
62
256
370
-1
100
AcDbLine
10
-20
20
-18.6410161514
11
119.6
21
-18.6410161514
0
LINE
5
1AC
100
AcDbEntity
8
plate_construction
6
ByLayer
62
256
370
-1
100
AcDbLine
10
-64.5397459622
20
68.5040868113
11
-11.3397459622
21
-23.6410161514
0
LINE
5
1AD
100
AcDbEntity
8
plate_construction
6
ByLayer
62
256
370
-1
100
AcDbLine
10
110.939745962
20
-23.6410161514
11
172.439745962
21
82.8801085141
0
LINE
5
1AE
100
AcDbEntity
8
plate_construction
6
ByLayer
62
256
370
-1
100
AcDbLine
10
-11.7
20
160.025211477
11
111.3
21
160.025211477
0
LINE
5
1AF
100
AcDbEntity
8
plate_construction
6
ByLayer
62
256
370
-1
100
AcDbLine
10
-64.5397459622
20
58.5040868113
11
-3.03974596216
21
165.025211477
0
CIRCLE
5
1B0
100
AcDbEntity
8
baseplate
6
ByLayer
62
256
370
-1
100
AcDbCircle
10
-5.9264973081
20
160.025211477
40
1.7
0
CIRCLE
5
1B1
100
AcDbEntity
8
baseplate
6
ByLayer
62
256
370
-1
100
AcDbCircle
10
-61.6529946162
20
63.5040868113
40
1.7
0
CIRCLE
5
1B2
100
AcDbEntity
8
baseplate
6
ByLayer
62
256
370
-1
100
AcDbCircle
10
-14.2264973081
20
-18.6410161514
40
1.7
0
CIRCLE
5
1B3
100
AcDbEntity
8
baseplate
6
ByLayer
62
256
370
-1
100
AcDbCircle
10
113.826497308
20
-18.6410161514
40
1.7
0
CIRCLE
5
1B4
100
AcDbEntity
8
baseplate
6
ByLayer
62
256
370
-1
100
AcDbCircle
10
169.178714804
20
77.8801085141
40
1.7
0
LINE
5
1B5
100
AcDbEntity
8
baseplate
6
ByLayer
62
256
370
-1
100
AcDbLine
10
-73.2
20
63.5040868113
11
-11.7
21
170.025211477
0
LINE
5
1B6
100
AcDbEntity
8
baseplate
6
ByLayer
62
256
370
-1
100
AcDbLine
10
181.1
20
77.8801085141
11
119.6
21
-28.6410161514
0
LINE
5
1B7
100
AcDbEntity
8
baseplate
6
ByLayer
62
256
370
-1
100
AcDbLine
10
119.6
20
-28.6410161514
11
-20
21
-28.6410161514
0
LINE
5
1B8
100
AcDbEntity
8
baseplate
6
ByLayer
62
256
370
-1
100
AcDbLine
10
-20
20
-28.6410161514
11
-73.2
21
63.5040868113
0
LINE
5
1B9
100
AcDbEntity
8
plate_construction
6
ByLayer
62
256
370
-1
100
AcDbLine
10
91.3
20
129.384195325
11
91.3
21
141.384195325
0
LINE
5
1BA
100
AcDbEntity
8
plate_construction
6
ByLayer
62
256
370
-1
100
AcDbLine
10
107.9
20
129.384195325
11
107.9
21
141.384195325
0
CIRCLE
5
1BB
100
AcDbEntity
8
plate_construction
6
ByLayer
62
256
370
-1
100
AcDbCircle
10
107.9
20
135.384195325
40
40
0
LINE
5
1BC
100
AcDbEntity
8
plate_construction
6
ByLayer
62
256
370
-1
100
AcDbLine
10
102.9
20
126.723941288
11
112.9
21
144.044449363
0
LINE
5
1BD
100
AcDbEntity
8
plate_construction
6
ByLayer
62
256
370
-1
100
AcDbLine
10
-11.7
20
170.025211477
11
127.9
21
170.025211477
0
LINE
5
1BE
100
AcDbEntity
8
plate_construction
6
ByLayer
62
256
370
-1
100
AcDbLine
10
127.9
20
170.025211477
11
181.1
21
77.8801085141
0
LINE
5
1BF
100
AcDbEntity
8
plate_construction
6
ByLayer
62
256
370
-1
100
AcDbLine
10
119.239745962
20
165.025211477
11
172.439745962
21
72.8801085141
0
LINE
5
1C0
100
AcDbEntity
8
baseplate
6
ByLayer
62
256
370
-1
100
AcDbLine
10
-11.7
20
170.025211477
11
127.9
21
170.025211477
0
LINE
5
1C1
100
AcDbEntity
8
baseplate
6
ByLayer
62
256
370
-1
100
AcDbLine
10
127.9
20
170.025211477
11
181.1
21
77.8801085141
0
CIRCLE
5
1C2
100
AcDbEntity
8
baseplate
6
ByLayer
62
256
370
-1
100
AcDbCircle
10
122.126497308
20
160.025211477
40
1.7
0
DIMENSION
5
1C3
100
AcDbEntity
8
dimensions
6
ByLayer
62
256
370
-1
100
AcDbDimension
2
*D1
10
181.1
20
200
30
0
11
53.95
21
201.875
31
0
70
32
71
5
3
Standard
53
0
210
0
220
0
230
1
100
AcDbAlignedDimension
13
-73.2
23
63.5040868113
33
0
14
181.1
24
77.8801085141
34
0
100
AcDbRotatedDimension
0
DIMENSION
5
1C4
100
AcDbEntity
8
dimensions
6
ByLayer
62
256
370
-1
100
AcDbDimension
2
*D2
10
-11.7
20
190
30
0
11
-42.45
21
191.875
31
0
70
32
71
5
3
Standard
53
0
210
0
220
0
230
1
100
AcDbAlignedDimension
13
-73.2
23
63.5040868113
33
0
14
-11.7
24
170.025211477
34
0
100
AcDbRotatedDimension
0
DIMENSION
5
1C5
100
AcDbEntity
8
dimensions
6
ByLayer
62
256
370
-1
100
AcDbDimension
2
*D3
10
127.9
20
190
30
0
11
58.1
21
191.875
31
0
70
32
71
5
3
Standard
53
0
210
0
220
0
230
1
100
AcDbAlignedDimension
13
-11.7
23
170.025211477
33
0
14
127.9
24
170.025211477
34
0
100
AcDbRotatedDimension
0
DIMENSION
5
1C6
100
AcDbEntity
8
dimensions
6
ByLayer
62
256
370
-1
100
AcDbDimension
2
*D4
10
-100
20
-28.6410161514
30
0
11
-101.875
21
70.6920976627
31
0
70
32
71
5
3
Standard
53
0
210
0
220
0
230
1
100
AcDbAlignedDimension
13
-11.7
23
170.025211477
33
0
14
-20
24
-28.6410161514
34
0
50
90
100
AcDbRotatedDimension
0
DIMENSION
5
1C7
100
AcDbEntity
8
dimensions
6
ByLayer
62
256
370
-1
100
AcDbDimension
2
*D5
10
-90
20
63.5040868113
30
0
11
-91.875
21
17.43153533
31
0
70
32
71
5
3
Standard
53
0
210
0
220
0
230
1
100
AcDbAlignedDimension
13
-20
23
-28.6410161514
33
0
14
-73.2
24
63.5040868113
34
0
50
90
100
AcDbRotatedDimension
0
DIMENSION
5
1C8
100
AcDbEntity
8
dimensions
6
ByLayer
62
256
370
-1
100
AcDbDimension
2
*D6
10
-90
20
63.5040868113
30
0
11
-91.875
21
116.764649144
31
0
70
32
71
5
3
Standard
53
0
210
0
220
0
230
1
100
AcDbAlignedDimension
13
-11.7
23
170.025211477
33
0
14
-73.2
24
63.5040868113
34
0
50
90
100
AcDbRotatedDimension
0
DIMENSION
5
1C9
100
AcDbEntity
8
dimensions
6
ByLayer
62
256
370
-1
100
AcDbDimension
2
*D7
10
200
20
77.8801085141
30
0
11
198.125
21
123.952659995
31
0
70
32
71
5
3
Standard
53
0
210
0
220
0
230
1
100
AcDbAlignedDimension
13
127.9
23
170.025211477
33
0
14
181.1
24
77.8801085141
34
0
50
90
100
AcDbRotatedDimension
0
DIMENSION
5
1CA
100
AcDbEntity
8
dimensions
6
ByLayer
62
256
370
-1
100
AcDbDimension
2
*D8
10
200
20
77.8801085141
30
0
11
198.125
21
24.6195461814
31
0
70
32
71
5
3
Standard
53
0
210
0
220
0
230
1
100
AcDbAlignedDimension
13
119.6
23
-28.6410161514
33
0
14
181.1
24
77.8801085141
34
0
50
90
100
AcDbRotatedDimension
0
DIMENSION
5
1CB
100
AcDbEntity
8
dimensions
6
ByLayer
62
256
370
-1
100
AcDbDimension
2
*D9
10
-20
20
-50
30
0
11
-46.6
21
-48.125
31
0
70
32
71
5
3
Standard
53
0
210
0
220
0
230
1
100
AcDbAlignedDimension
13
-73.2
23
63.5040868113
33
0
14
-20
24
-28.6410161514
34
0
100
AcDbRotatedDimension
0
DIMENSION
5
1CC
100
AcDbEntity
8
dimensions
6
ByLayer
62
256
370
-1
100
AcDbDimension
2
*D10
10
119.6
20
-50
30
0
11
49.8
21
-48.125
31
0
70
32
71
5
3
Standard
53
0
210
0
220
0
230
1
100
AcDbAlignedDimension
13
-20
23
-28.6410161514
33
0
14
119.6
24
-28.6410161514
34
0
100
AcDbRotatedDimension
0
DIMENSION
5
1CD
100
AcDbEntity
8
dimensions
6
ByLayer
62
256
370
-1
100
AcDbDimension
2
*D11
10
181.1
20
-50
30
0
11
150.35
21
-48.125
31
0
70
32
71
5
3
Standard
53
0
210
0
220
0
230
1
100
AcDbAlignedDimension
13
119.6
23
-28.6410161514
33
0
14
181.1
24
77.8801085141
34
0
100
AcDbRotatedDimension
0
DIMENSION
5
1CE
100
AcDbEntity
8
dimensions
6
ByLayer
62
256
370
-1
100
AcDbDimension
2
*D12
10
24.9
20
150
30
0
11
16.6
21
151.875
31
0
70
32
71
5
3
Standard
53
0
210
0
220
0
230
1
100
AcDbAlignedDimension
13
8.3
23
141.384195325
33
0
14
24.9
24
141.384195325
34
0
100
AcDbRotatedDimension
0
DIMENSION
5
1CF
100
AcDbEntity
8
dimensions
6
ByLayer
62
256
370
-1
100
AcDbDimension
2
*D13
10
0
20
129.384195325
30
0
11
-1.875
21
135.384195325
31
0
70
32
71
5
3
Standard
53
0
210
0
220
0
230
1
100
AcDbAlignedDimension
13
8.3
23
141.384195325
33
0
14
8.3
24
129.384195325
34
0
50
90
100
AcDbRotatedDimension
0
LINE
5
1D0
100
AcDbEntity
8
plate_construction
6
ByLayer
62
256
370
-1
100
AcDbLine
10
99.6
20
6
11
100.6
21
6
0
LINE
5
1D1
100
AcDbEntity
8
plate_construction
6
ByLayer
62
256
370
-1
100
AcDbLine
10
102.279491924
20
-18.6410161514
11
163.779491924
21
87.8801085141
0
LINE
5
1D2
100
AcDbEntity
8
plate_construction
6
ByLayer
62
256
370
-1
100
AcDbLine
10
106.609618943
20
-21.1410161514
11
168.109618943
21
85.3801085141
0
LINE
5
1D3
100
AcDbEntity
8
plate_construction
6
ByLayer
62
256
370
-1
100
AcDbLine
10
100
20
0
11
101
21
0
0
LINE
5
1D4
100
AcDbEntity
8
plate_construction
6
ByLayer
62
256
370
-1
100
AcDbLine
10
120
20
-10
11
120
21
10
0
LINE
5
1D5
100
AcDbEntity
8
plate_construction
6
ByLayer
62
256
370
-1
100
AcDbLine
10
110.155136271
20
5
11
127.475644347
21
-5
0
LINE
5
1D6
100
AcDbEntity
8
plate_construction
6
ByLayer
62
256
370
-1
100
AcDbLine
10
135.155136271
20
48.3012701892
11
152.475644347
21
38.3012701892
0
LINE
5
1D7
100
AcDbEntity
8
baseplate
6
ByLayer
62
256
370
-1
100
AcDbLine
10
123.145517328
20
-2.5
11
114.48526329
21
2.5
0
LINE
5
1D8
100
AcDbEntity
8
baseplate
6
ByLayer
62
256
370
-1
100
AcDbLine
10
114.48526329
20
2.5
11
139.48526329
21
45.8012701892
0
LINE
5
1D9
100
AcDbEntity
8
baseplate
6
ByLayer
62
256
370
-1
100
AcDbLine
10
139.48526329
20
45.8012701892
11
148.145517328
21
40.8012701892
0
LINE
5
1DA
100
AcDbEntity
8
baseplate
6
ByLayer
62
256
370
-1
100
AcDbLine
10
148.145517328
20
40.8012701892
11
123.145517328
21
-2.5
0
LINE
5
1DB
100
AcDbEntity
8
plate_construction
6
ByLayer
62
256
370
-1
100
AcDbLine
10
140.155136271
20
56.9615242271
11
157.475644347
21
46.9615242271
0
LINE
5
1DC
100
AcDbEntity
8
plate_construction
6
ByLayer
62
256
370
-1
100
AcDbLine
10
93.6192378865
20
-13.6410161514
11
155.119237886
21
92.8801085141
0
DIMENSION
5
1DD
100
AcDbEntity
8
dimensions
6
ByLayer
62
256
370
-1
100
AcDbDimension
2
*D14
10
153.145517328
20
49.4615242271
30
0
11
158.413144347
21
48.5853218592
31
0
70
33
71
5
3
Standard
53
0
210
0
220
0
230
1
100
AcDbAlignedDimension
13
156.805771366
23
35.8012701892
33
0
14
148.145517328
24
40.8012701892
34
0
0
DIMENSION
5
1DE
100
AcDbEntity
8
dimensions
6
ByLayer
62
256
370
-1
100
AcDbDimension
2
*D15
10
144.48526329
20
54.4615242271
30
0
11
149.752890309
21
53.5853218592
31
0
70
33
71
5
3
Standard
53
0
210
0
220
0
230
1
100
AcDbAlignedDimension
13
148.145517328
23
40.8012701892
33
0
14
139.48526329
24
45.8012701892
34
0
0
DIMENSION
5
1DF
100
AcDbEntity
8
dimensions
6
ByLayer
62
256
370
-1
100
AcDbDimension
2
*D16
10
130.825009252
20
50.8012701892
30
0
11
116.70121162
21
30.0881350946
31
0
70
33
71
5
3
Standard
53
0
210
0
220
0
230
1
100
AcDbAlignedDimension
13
114.48526329
23
2.5
33
0
14
139.48526329
24
45.8012701892
34
0
0
DIMENSION
5
1E0
100
AcDbEntity
8
dimensions
6
ByLayer
62
256
370
-1
100
AcDbDimension
2
*D17
10
105.825009252
20
7.5
30
0
11
98.0983259373
21
-2.13300807569
31
0
70
33
71
5
3
Standard
53
0
210
0
220
0
230
1
100
AcDbAlignedDimension
13
119.6
23
-28.6410161514
33
0
14
131.805771366
24
-7.5
34
0
0
DIMENSION
5
1E1
100
AcDbEntity
8
dimensions
6
ByLayer
62
256
370
-1
100
AcDbDimension
2
*D18
10
-4.2265298668
20
160.035732813
30
0
11
-5.93810172258
21
161.900175566
31
0
70
35
71
5
3
Standard
53
0
210
0
220
0
230
1
100
AcDbDiametricDimension
15
-7.62646474941
25
160.014690141
35
0
40
0
0
DIMENSION
5
1E2
100
AcDbEntity
8
dimensions
6
ByLayer
62
256
370
-1
100
AcDbDimension
2
*D19
10
-30
20
-18.6410161514
30
0
11
-31.875
21
-23.6410161514
31
0
70
32
71
5
3
Standard
53
0
210
0
220
0
230
1
100
AcDbAlignedDimension
13
-20
23
-28.6410161514
33
0
14
-14.2264973081
24
-18.6410161514
34
0
50
90
100
AcDbRotatedDimension
0
ENDSEC
0
SECTION
2
OBJECTS
0
DICTIONARY
5
C
330
0
100
AcDbDictionary
281
1
3
ACAD_GROUP
350
D
0
DICTIONARY
5
D
330
C
100
AcDbDictionary
281
1
0
ENDSEC
0
EOF
